<?xml version="1.0" standalone="no"?>
<!DOCTYPE svg PUBLIC "-//W3C//DTD SVG 1.1//EN" "http://www.w3.org/Graphics/SVG/1.1/DTD/svg11.dtd" >
<svg xmlns="http://www.w3.org/2000/svg" xmlns:xlink="http://www.w3.org/1999/xlink" version="1.1">
<metadata>
Created by FontForge 20170731 at Wed Jan  2 15:03:03 2002
 By Aleksey,,,
Copyright (c) ReEncode by P-chanSoft, 2001. All rights reserved.
</metadata>
<defs>
<font id="JSAngsumalin" horiz-adv-x="0" >
  <font-face 
    font-family="JS Angsumalin"
    font-weight="400"
    font-stretch="normal"
    units-per-em="1000"
    panose-1="2 0 0 0 0 0 0 0 0 0"
    ascent="800"
    descent="-200"
    x-height="341"
    cap-height="463"
    bbox="-497 -261 988 760"
    underline-thickness="17"
    underline-position="-39"
    unicode-range="U+0020-F71D"
  />
<missing-glyph horiz-adv-x="500" 
 />
    <glyph glyph-name=".notdef" horiz-adv-x="500" 
 />
    <glyph glyph-name=".null" 
 />
    <glyph glyph-name="nonmarkingreturn" horiz-adv-x="333" 
 />
    <glyph glyph-name="space" unicode=" " horiz-adv-x="293" 
 />
    <glyph glyph-name="exclam" unicode="!" horiz-adv-x="227" 
d="M178 402q0 32 -17.5 52.5t-45.5 20.5t-45.5 -21t-17.5 -52q0 -18 3 -40t12 -62l19 -131l2 -20h54l2 20l19 131q2 10 4 19t4 19q4 19 5.5 35t1.5 29zM173 55q0 28 -16.5 45t-41.5 17q-24 0 -40 -18t-16 -43q0 -27 17 -44t41 -17q23 0 39.5 18t16.5 42z" />
    <glyph glyph-name="quotedbl" unicode="&#x22;" horiz-adv-x="265" 
d="M232 420v6q0 18 -12.5 33.5t-29.5 15.5q-18 0 -31 -15.5t-13 -33.5q0 -5 1 -6l28 -162h29zM92 420v7q0 18 -13 33t-29 15q-17 0 -30 -15t-13 -33q0 -6 1 -7l27 -162h29z" />
    <glyph glyph-name="numbersign" unicode="#" horiz-adv-x="378" 
d="M346 265v61h-57l19 137h-57l-18 -137h-54l18 137h-55l-19 -137h-69v-61h62l-8 -58h-72v-61h63l-20 -146h56l20 146h54l-20 -146h56l20 146h64v61h-56l8 58h65zM225 265l-8 -58h-54l8 58h54z" />
    <glyph glyph-name="dollar" unicode="$" horiz-adv-x="416" 
d="M391 156q0 47 -25 75q-28 32 -109 53l-30 6q-50 13 -60 18q-35 17 -35 48q0 28 22 41q9 7 22 9.5t29 2.5q23 0 45 -7t27 -18q1 -4 3.5 -15t8 -23t15.5 -21t27 -7q18 0 28 12t10 31q0 42 -51 71q-42 24 -86 24v91h-39v-92q-59 0 -102 -33q-48 -38 -48 -100q0 -47 24 -72
q20 -23 58 -36q5 -2 70 -19l42 -10q34 -9 43 -15q20 -11 20 -38q0 -36 -33 -52q-25 -13 -62 -13q-24 0 -48 8q-30 10 -30 34q0 4 1 9.5t1 7.5q1 2 1 8q0 20 -15 32.5t-34 12.5q-24 0 -37.5 -14.5t-13.5 -40.5q0 -51 61 -82q49 -24 102 -24v-99h40v99q63 6 107 38
q51 37 51 100z" />
    <glyph glyph-name="percent" unicode="%" horiz-adv-x="592" 
d="M582 140q0 61 -30 102q-32 44 -88 44q-63 0 -94 -43q-30 -41 -30 -108q0 -61 31 -100.5t88 -39.5q59 0 92 42q31 37 31 103zM456 463h-53l-265 -463h53zM250 328q0 63 -29 104q-31 43 -89 43q-62 0 -94 -44q-30 -41 -30 -108q0 -61 31.5 -100t88.5 -39q58 0 91 42
q31 37 31 102zM505 143q0 -41 -6 -66q-11 -42 -38 -42t-38 41q-7 24 -7 63q0 38 7 65q12 41 38 41q25 0 37 -40q7 -24 7 -62zM173 333q0 -41 -6 -66q-10 -43 -38 -43q-27 0 -38 41q-7 24 -7 63q0 38 7 65q12 41 38 41q25 0 37 -40q7 -24 7 -61z" />
    <glyph glyph-name="ampersand" unicode="&#x26;" horiz-adv-x="504" 
d="M486 0v56h-7q-43 0 -65 9q-27 10 -50 45q17 21 30 58q5 14 9 30.5t8 34.5q6 24 26 33q12 6 41 9v53h-166v-53q18 -4 24 -8q10 -6 10 -22q0 -18 -6 -40q-2 -8 -5.5 -17t-8.5 -20q-7 13 -16.5 26t-20.5 27q-10 13 -20 25t-21 24q27 17 45 44.5t18 59.5q0 23 -10.5 43.5
t-27.5 34.5q-33 23 -77 23q-51 0 -87 -30q-37 -33 -37 -87q0 -25 9.5 -47.5t25.5 -40.5q-42 -14 -68 -52t-26 -84q0 -69 50 -110q46 -36 112 -36q35 0 67.5 13t59.5 37q30 -27 61 -34q10 -2 27 -3t41 -1h55zM236 374q0 -17 -10 -33.5t-24 -26.5q-7 10 -12 16.5t-8 11.5
q-9 16 -9 33q0 15 9.5 25.5t22.5 10.5q14 0 22.5 -11.5t8.5 -25.5zM261 85q-14 -13 -31.5 -21t-34.5 -8q-35 0 -54 27q-18 25 -18 63q0 24 6 46t21 33q18 -16 41 -43q16 -20 36 -48q15 -22 23.5 -34t10.5 -15z" />
    <glyph glyph-name="quotesingle" unicode="'" horiz-adv-x="151" 
d="M112 420v6q0 18 -13.5 33.5t-29.5 15.5q-17 0 -30 -15.5t-13 -33.5q0 -5 1 -6l28 -162h29z" />
    <glyph glyph-name="parenleft" unicode="(" horiz-adv-x="202" 
d="M182 -102v63q-22 6 -37 28q-19 32 -22.5 73.5t-5.5 89.5v105q0 24 1.5 48.5t4.5 47t8.5 40.5t14.5 30q15 20 36 23v63h-11q-36 0 -67 -24q-44 -34 -59 -93.5t-15 -131.5v-110q0 -51 7 -97.5t25 -79.5q19 -34 51.5 -54.5t68.5 -20.5z" />
    <glyph glyph-name="parenright" unicode=")" horiz-adv-x="202" 
d="M165 148v112q0 24 -1.5 45.5t-3.5 40.5q-4 23 -9.5 43t-13.5 37q-17 36 -48 59.5t-66 23.5h-10v-63q22 -5 35 -25q15 -20 19 -44q6 -23 8.5 -57t2.5 -64v-106q0 -22 -1 -45.5t-4 -45t-9 -40.5t-15 -32q-14 -21 -36 -26v-63q2 -1 9 -1q51 2 89 44t48 116q6 39 6 91z" />
    <glyph glyph-name="asterisk" unicode="*" horiz-adv-x="290" 
d="M251 280q4 7 4 15q0 18 -17 29q-17 9 -36 9l-21 3v18l17 2q21 1 30 5q15 4 23 19q4 7 4 15q0 16 -14 25q-5 4 -13 4q-14 0 -30 -18l-12 -14t-11 -14l-2 -4l-7 4l-8 5q5 14 10.5 31t5.5 29q0 14 -7.5 23t-19.5 9q-17 0 -24 -15q-5 -10 -5 -20q0 -8 3 -17t8 -21l7 -21
l-13 -8l-11 14q-8 10 -12 18q-17 20 -33 20q-17 0 -24 -15q-4 -7 -4 -14q0 -20 17 -29q8 -7 20 -8q5 -1 10 -1.5t10 -1.5l16 -2v-17l-20 -3q-20 -3 -28 -6q-14 -5 -21 -18q-2 -4 -2.5 -7.5t-0.5 -6.5q0 -19 13 -26q5 -4 13 -4q16 0 32 19q6 8 12 15.5t12 15.5l8 -5l7 -4
l-2 -4q-1 -2 -2.5 -7t-4.5 -13q-8 -24 -8 -35q0 -14 7 -23.5t21 -9.5q16 0 23 16q5 10 5 19q0 12 -4 21q-1 2 -3 7.5t-5 13.5l-7 17l14 9l13 -19l7.5 -10.5t3.5 -5.5q8 -10 14 -12q10 -5 18 -5q16 0 24 14z" />
    <glyph glyph-name="plus" unicode="+" horiz-adv-x="378" 
d="M350 195v79h-123v130h-73v-130h-122v-79h122v-135h73v135h123z" />
    <glyph glyph-name="comma" unicode="," horiz-adv-x="214" 
d="M162 38q0 31 -15.5 51.5t-43.5 20.5q-23 0 -38.5 -17t-15.5 -42q0 -23 12 -37.5t33 -18.5q-12 -26 -34 -45l31 -34l3 3q42 37 56 66q12 24 12 53z" />
    <glyph glyph-name="hyphen" unicode="-" horiz-adv-x="378" 
d="M350 195v79h-318v-79h318z" />
    <glyph glyph-name="period" unicode="." horiz-adv-x="214" 
d="M163 55q0 28 -17 45t-42 17q-24 0 -40 -18t-16 -43q0 -27 17 -44t41 -17q23 0 40 18t17 42z" />
    <glyph glyph-name="slash" unicode="/" horiz-adv-x="378" 
d="M350 493h-84l-235 -594h84z" />
    <glyph glyph-name="zero" unicode="0" horiz-adv-x="416" 
d="M403 232q0 103 -46 168q-50 75 -142 75q-96 0 -149 -74q-47 -68 -47 -175q0 -103 47 -168q52 -70 146 -70q93 0 144 74q47 67 47 170zM285 235q0 -66 -12 -111q-18 -72 -63 -72q-44 0 -63 70q-11 46 -11 109q0 65 12 110q18 70 62 70q43 0 63 -69q12 -44 12 -107z" />
    <glyph glyph-name="one" unicode="1" horiz-adv-x="416" 
d="M358 0v56h-5h-25q-26 0 -39 9.5t-13 35.5v362h-31l-6 -2q-23 -5 -37 -8.5t-20 -5.5q-35 -7 -91 -7h-5v-56l24 -1q3 -1 10 -1.5t18 -2.5q20 -3 24 -10q2 -3 2.5 -9.5t0.5 -15.5v-15v-215v-12q0 -14 -1.5 -21t-4.5 -10q-8 -8 -29.5 -11.5t-38.5 -3.5h-5v-56h272z" />
    <glyph glyph-name="two" unicode="2" horiz-adv-x="416" 
d="M396 148l-51 15q-16 -44 -39 -58q-16 -10 -56 -10h-26h-72q24 14 42.5 25.5t31.5 19.5q20 13 37 26t31 26q39 35 56 61q24 37 24 80q0 71 -57 110q-49 32 -118 32q-32 0 -63 -8.5t-54 -25.5q-27 -21 -40 -45q-16 -26 -16 -58q0 -33 18 -50q16 -15 38 -15q21 0 36.5 14.5
t15.5 36.5q0 16 -9 30q-2 5 -4.5 10t-2.5 11q0 18 24 30q19 10 38 10q31 0 50 -18.5t19 -51.5q0 -53 -39 -108q-29 -42 -85 -89q-14 -11 -37 -27.5t-55 -39.5l-7 -5l11 -76h320z" />
    <glyph glyph-name="three" unicode="3" horiz-adv-x="416" 
d="M398 144q0 43 -28 72q-26 29 -64 36q14 5 27 14.5t22.5 22.5t15.5 27.5t6 29.5q0 65 -57 100q-47 29 -111 29q-49 0 -91.5 -18.5t-64.5 -52.5q-16 -25 -16 -54q0 -26 14.5 -43t38.5 -17q23 0 39 13t16 36q0 9 -3.5 18.5t-7.5 19.5q0 5 4 10q1 2 6 7q22 18 48 18
q29 0 47 -15t18 -46q0 -21 -7.5 -34.5t-19.5 -21.5t-27.5 -11.5t-31.5 -3.5h-21v-60l9 1h14q19 0 38.5 -3.5t32.5 -12.5q14 -11 21 -29.5t7 -39.5q0 -40 -22.5 -62t-59.5 -22q-14 0 -29.5 4.5t-25.5 12.5q-5 3 -6 6q-4 5 -4 12q0 9 3 13.5t3 15.5q0 23 -16 37t-38 14
q-24 0 -39 -17.5t-15 -44.5q0 -30 20 -56q16 -22 45 -37q25 -13 51 -18.5t55 -5.5q35 0 73 10t66 28q29 18 47 50t18 68z" />
    <glyph glyph-name="four" unicode="4" horiz-adv-x="416" 
d="M409 182h-91v281h-100l-206 -298l23 -49h180v-13q0 -14 -2 -24q-5 -12 -15 -16q-8 -4 -14.5 -5.5t-17.5 -1.5h-5v-56h210v56h-7q-22 2 -34 9q-7 4 -9.5 9t-2.5 18v11v13h64zM215 182h-115l115 175v-175z" />
    <glyph glyph-name="five" unicode="5" horiz-adv-x="416" 
d="M392 163q0 75 -50 119q-46 40 -117 40q-31 0 -62 -9t-53 -26v82h229l18 123h-51q-6 -17 -18 -25q-9 -4 -29 -4h-10h-199v-255l48 -15q5 12 14.5 23.5t22 20.5t26 14.5t25.5 5.5q37 0 60 -32q20 -29 20 -69q0 -46 -22 -75q-23 -32 -63 -32q-13 0 -28 5q-16 7 -16 22
q0 4 2 14l1 12q0 25 -16.5 41.5t-39.5 16.5q-26 0 -41 -17.5t-15 -45.5q0 -57 60 -87q45 -22 107 -22q82 0 136 42q61 48 61 133z" />
    <glyph glyph-name="six" unicode="6" horiz-adv-x="416" 
d="M399 153q0 67 -45 111q-44 41 -107 41q-31 0 -63.5 -9.5t-54.5 -28.5q0 59 24 100q28 48 81 48q11 0 22 -3.5t16 -11.5q2 -4 3.5 -11t1.5 -13q2 -22 16.5 -35t34.5 -13q21 0 36 14t15 37q0 21 -14 41q-9 12 -23.5 22t-33 17.5t-39.5 11.5t-41 4q-104 0 -158 -75
q-49 -67 -49 -182q0 -109 46 -167q49 -63 148 -63q78 0 127 40q57 43 57 125zM287 148q0 -44 -18 -68q-20 -27 -59 -27q-37 0 -56 27q-17 25 -17 65q0 42 20 67.5t58 25.5q35 0 55 -26q17 -25 17 -64z" />
    <glyph glyph-name="seven" unicode="7" horiz-adv-x="416" 
d="M398 392l-9 71h-346l-20 -143l45 -7q20 49 32 56q13 9 63 9h148q-39 -40 -73 -83.5t-62 -91.5q-12 -20 -21 -36t-14 -27q-18 -38 -27 -69q-11 -39 -11 -71h128q0 72 26 152q23 68 64 138q11 17 19.5 30.5t15.5 23.5q21 30 42 48z" />
    <glyph glyph-name="eight" unicode="8" horiz-adv-x="416" 
d="M399 144q0 45 -24 74q-19 25 -61 42q27 14 43 38q17 26 17 56q0 62 -55 95q-46 26 -107 26q-35 0 -66.5 -10.5t-55 -30t-37 -46t-13.5 -59.5q0 -69 60 -98q-36 -14 -56.5 -42t-20.5 -67q0 -35 19 -63q16 -25 46 -44q23 -15 53.5 -21t62.5 -6q34 0 70 9.5t62 27.5
q30 21 46.5 51.5t16.5 67.5zM291 350q0 -21 -14 -38q-11 -12 -31 -26l-32 15q-41 18 -45 21q-27 18 -27 39q0 5 2.5 13.5t7.5 15.5q12 13 27 17.5t35 4.5q30 0 52 -14q25 -16 25 -48zM299 114q0 -33 -33 -51q-24 -12 -59 -12q-41 0 -66 16q-33 19 -33 59q0 27 15 46.5
t39 28.5l60 -23q34 -12 49 -22q28 -18 28 -42z" />
    <glyph glyph-name="nine" unicode="9" horiz-adv-x="416" 
d="M401 239q0 46 -9 87q-12 50 -34 79q-26 35 -65 52.5t-84 17.5q-75 0 -128 -41q-60 -47 -60 -124q0 -70 45 -113q44 -41 109 -41q31 0 62.5 9.5t52.5 28.5q0 -57 -22 -97q-27 -47 -76 -47q-9 0 -21 3t-19 8q-6 3 -7 15q-6 27 -17 41q-13 16 -37 16q-21 0 -35.5 -15
t-14.5 -37q0 -49 55 -74q41 -19 92 -19q48 0 87 16q42 17 72 52t43 86q11 42 11 97zM283 318q0 -43 -20.5 -68.5t-59.5 -25.5q-36 0 -55 27q-18 25 -18 64q0 41 18 67q21 28 59 28q37 0 57 -26q19 -25 19 -66z" />
    <glyph glyph-name="colon" unicode=":" horiz-adv-x="214" 
d="M163 288q0 27 -17 44.5t-42 17.5q-24 0 -40 -18t-16 -43q0 -26 17.5 -43.5t40.5 -17.5t40 18t17 42zM163 55q0 28 -17 45t-42 17q-24 0 -40 -18t-16 -43q0 -27 17 -44t41 -17q23 0 40 18t17 42z" />
    <glyph glyph-name="semicolon" unicode=";" horiz-adv-x="214" 
d="M162 288q0 28 -16.5 45t-42.5 17q-24 0 -40 -18t-16 -43q0 -26 17.5 -43.5t41.5 -17.5q22 0 39 18t17 42zM163 38q0 31 -15 51.5t-43 20.5q-23 0 -39 -17t-16 -42q0 -49 46 -56q-6 -14 -15 -24q-4 -5 -8.5 -10t-10.5 -11l30 -34l4 3q34 31 47 51q20 32 20 68z" />
    <glyph glyph-name="less" unicode="&#x3c;" horiz-adv-x="378" 
d="M352 -6v75l-229 111l229 113v76l-321 -155v-67z" />
    <glyph glyph-name="equal" unicode="=" horiz-adv-x="378" 
d="M350 237v79h-318v-79h318zM356 93v79h-318v-79h318z" />
    <glyph glyph-name="greater" unicode="&#x3e;" horiz-adv-x="378" 
d="M351 147v67l-321 155v-76l228 -113l-228 -111v-75z" />
    <glyph glyph-name="question" unicode="?" horiz-adv-x="416" 
d="M383 343q0 70 -57 105q-45 27 -116 27q-47 0 -89 -18.5t-66 -53.5q-17 -26 -17 -55q0 -64 56 -64q21 0 36.5 14t15.5 36q1 9 -4.5 22.5t-6.5 20.5q0 18 26 29q19 9 39 9q32 0 50 -19.5t18 -54.5q0 -25 -10 -41q-9 -15 -27 -31q-14 -12 -23 -22t-14.5 -21t-8 -24t-2.5 -31
v-22h65q0 11 1.5 19t6.5 15.5t15 14.5t28 16q40 19 62 51.5t22 77.5zM275 55q0 28 -17 45t-42 17q-23 0 -39.5 -18t-16.5 -43q0 -27 17 -44t42 -17q22 0 39 18t17 42z" />
    <glyph glyph-name="at" unicode="@" horiz-adv-x="517" 
d="M478 275q0 85 -65 144q-62 56 -144 56q-96 0 -164 -71q-67 -70 -67 -173q0 -101 67 -172q68 -71 161 -71q66 0 121 35.5t85 96.5h-42q-26 -42 -69 -64t-91 -22q-82 0 -136 57q-54 58 -54 144q0 85 54 139q54 55 134 55q71 0 117 -43q50 -45 50 -117q0 -30 -8 -56.5
t-24 -45.5q-6 -7 -12 -12.5t-13 -10.5q-19 -14 -30 -14q-16 0 -16 16q0 5 1 6l63 205h-63l-7 -20q-11 15 -28 23.5t-35 8.5q-58 0 -100 -61q-39 -56 -39 -119q0 -39 22.5 -68t58.5 -29q9 0 15.5 1t14.5 4t17.5 9.5t24.5 17.5q7 -14 21.5 -21.5t30.5 -7.5q29 0 58.5 17
t47.5 42q43 50 43 121zM309 302q0 -10 -5 -25l-26 -85q-11 -30 -22 -45q-18 -24 -39 -24q-16 0 -23.5 10.5t-7.5 26.5q0 48 25 107q30 70 68 70q14 0 22 -10.5t8 -24.5z" />
    <glyph glyph-name="A" unicode="A" horiz-adv-x="454" 
d="M481 0v56h-7q-36 8 -46 27q-4 8 -15 37l-128 343h-98l-122 -315q-10 -24 -17 -39.5t-12 -22.5q-20 -26 -57 -30v-56h194v56h-6q-32 7 -38 9q-12 6 -12 18q0 5 3 16q1 2 2 5.5t3 9.5l17 51h136l17 -51q0 -1 1.5 -6t3 -10.5l3 -11t1.5 -8.5q0 -14 -21 -18l-16 -2l-16 -2
v-56h230zM257 224h-95l48 132z" />
    <glyph glyph-name="B" unicode="B" horiz-adv-x="454" 
d="M437 137q0 40 -21.5 70t-58.5 42q26 12 43.5 39t17.5 57q0 51 -30 79t-83 36q-23 3 -61 3h-231v-56l14 -2q25 -5 32 -18q5 -10 5 -33v-13v-219q0 -40 -7 -50q-7 -9 -44 -16v-56h244q46 0 66 3q54 8 84 45t30 89zM310 336q0 -34 -32 -48q-21 -9 -58 -9h-45v76v10
q0 12 2 18t5 8q6 4 17.5 5.5t25.5 1.5q36 0 57 -12q28 -15 28 -50zM319 141q0 -41 -27 -60q-22 -16 -63 -16q-36 0 -47 10q-5 5 -6 10.5t-1 23.5v107h47q47 0 68 -12q29 -17 29 -63z" />
    <glyph glyph-name="C" unicode="C" horiz-adv-x="466" 
d="M456 135l-52 30q-23 -47 -56 -76q-38 -32 -83 -32q-32 0 -54.5 15.5t-37.5 40.5t-22 56.5t-7 63.5q0 68 23 117q30 61 88 61q25 0 47 -13q19 -10 39 -31q14 -16 29 -38q4 -7 9.5 -17.5t13.5 -24.5l3 -3l48 19l-56 160h-38l-7 -16q-47 28 -105 28q-100 0 -158 -69
q-58 -67 -58 -175q0 -106 63 -175q65 -68 163 -68q35 0 67.5 10t59.5 29t48 46t33 62z" />
    <glyph glyph-name="D" unicode="D" horiz-adv-x="491" 
d="M471 231q0 40 -10.5 76t-29 65.5t-44.5 50.5t-57 30q-23 7 -50.5 8.5t-72.5 1.5h-194v-56q36 0 47 -15q6 -11 6 -51v-219q0 -41 -7 -51q-9 -15 -46 -15v-56h209q80 0 116 13t65 39q36 34 52 79t16 100zM350 233q0 -76 -31 -120q-35 -50 -99 -50q-24 -1 -34 5.5t-8 18.5
v12v258q0 15 1.5 23.5t6.5 13t14.5 6t24.5 1.5q30 3 54 -10t40 -37t24 -55.5t7 -65.5z" />
    <glyph glyph-name="E" unicode="E" horiz-adv-x="454" 
d="M456 160l-44 24q-41 -62 -79 -90q-46 -31 -109 -31q-8 0 -15 0.5t-12 1.5q-15 4 -20 15q-2 5 -2 17v26v24v71h10h11q16 0 27 -3.5t17 -13.5q16 -25 16 -57h50v211h-50q0 -20 -2 -35t-8 -25q-7 -9 -15.5 -11.5t-23.5 -2.5h-14h-18v49v18q0 15 0.5 25t6 16t18.5 9t37 3
q52 0 92 -28q36 -25 67 -73l42 22l-62 141h-363v-56l14 -2q23 -4 31 -17q5 -10 5 -33v-14v-219q0 -33 -5 -45q-8 -15 -35 -19l-10 -2v-56h374z" />
    <glyph glyph-name="F" unicode="F" horiz-adv-x="428" 
d="M432 323l-59 140h-360v-56q37 0 47 -16q7 -10 7 -51v-218q0 -41 -7 -51q-11 -15 -47 -15v-56h227v56h-7q-12 0 -26.5 4t-19.5 12t-7 17.5t-2 32.5v88q51 0 65 -15q9 -11 17 -64h46v219h-46q-1 -5 -2 -12t-3 -17q-3 -17 -9 -27q-6 -12 -18 -15q-10 -2 -24 -2h-7h-19v54
q0 44 6 55q7 15 45 15q52 0 91 -27q17 -12 34 -30.5t34 -43.5z" />
    <glyph glyph-name="G" unicode="G" horiz-adv-x="491" 
d="M487 182v56h-205v-56q26 0 40 -9q16 -10 16 -36q0 -34 -28 -58q-25 -22 -58 -22q-58 0 -85 56q-23 44 -23 112q0 67 20 116q26 65 80 65q46 0 86 -37q18 -16 32.5 -36t25.5 -43l45 17l-39 156h-40l-9 -20q-24 15 -53 23.5t-56 8.5q-98 0 -156 -70q-58 -67 -58 -174
q0 -103 53 -171q55 -72 150 -72q16 0 38.5 4.5t38.5 10.5q4 2 9 4t10 6q2 1 10 6t23 14l15 -38h69v121v16q0 26 6.5 35.5t33.5 13.5z" />
    <glyph glyph-name="H" unicode="H" horiz-adv-x="517" 
d="M504 0v56h-4q-13 0 -26.5 4.5t-18.5 12.5t-6.5 20.5t-1.5 28.5v219q0 39 8 52q11 14 49 14v56h-224v-56q37 0 48 -15q7 -10 7 -52v-60h-154v60v6q0 21 3 32t7 15q7 7 19.5 10.5t25.5 3.5v56h-223v-56h5l18 -3q22 -5 27 -14q7 -11 7 -37v-12v-219v-13q2 -27 -11 -39.5
t-46 -13.5v-56h223v56h-5q-12 0 -24.5 4.5t-18.5 11.5q-5 8 -6 15t-1 36v93h154v-93q0 -39 -8 -52q-11 -15 -47 -15v-56h224z" />
    <glyph glyph-name="I" unicode="I" horiz-adv-x="252" 
d="M239 0v56h-6q-13 0 -27 4.5t-19 11.5t-6 13.5t-1 20.5v16v219v13q0 16 3 25.5t6 13.5q7 7 21.5 10.5t28.5 3.5v56h-226v-56h4q13 -1 26.5 -5.5t17.5 -11.5q5 -6 6.5 -15t1.5 -22v-12v-219v-13q0 -13 -2 -23.5t-7 -16.5q-7 -6 -20.5 -9.5t-26.5 -3.5v-56h226z" />
    <glyph glyph-name="J" unicode="J" horiz-adv-x="403" 
d="M392 407v56h-228v-56h9q33 -3 42 -17q6 -11 6 -47v-179v-15q0 -7 -1 -15q-3 -32 -13 -48q-10 -14 -27 -21.5t-34 -7.5q-13 0 -26 3.5t-22 10.5q-6 4 -11.5 11t-5.5 13q7 14 14.5 27t7.5 30q0 23 -13 37.5t-34 14.5q-30 0 -47 -22.5t-17 -54.5q0 -69 54 -106
q46 -33 113 -33q37 0 73 11q40 12 64.5 35.5t31.5 52.5q5 22 5 61v22v173q0 42 7 52q10 12 46 12h6z" />
    <glyph glyph-name="K" unicode="K" horiz-adv-x="504" 
d="M501 0v56q-18 3 -31.5 8t-24.5 16q-10 9 -26 35q-5 9 -11 18t-12 19l-88 149l14 14q19 19 30 29.5t16 14.5q25 22 49 35q27 13 59 13v56h-215v-56h10q13 0 23 -2.5t10 -11.5q0 -7 -11 -18q-5 -6 -15 -15l-99 -103v83q0 41 7 51q8 12 43 16v56h-216v-56q37 0 48 -15
q6 -11 6 -51v-219v-13q0 -12 -2 -23t-6 -16q-7 -7 -20 -10.5t-26 -3.5v-56h216v56q-42 5 -47 26q-3 7 -3 40v56l50 48l61 -109q3 -5 6 -10.5t7 -10.5q8 -16 8 -21q0 -12 -16 -16q-9 -3 -28 -3h-6v-56h240z" />
    <glyph glyph-name="L" unicode="L" horiz-adv-x="403" 
d="M421 162l-44 24q-26 -54 -65 -86q-44 -37 -97 -37q-26 0 -34 8q-5 7 -5 28v15v227v13q-2 28 9.5 39t48.5 14v56h-221v-56q38 -5 46 -17q6 -11 6 -49v-219q0 -40 -7 -50q-7 -11 -45 -16v-56h342z" />
    <glyph glyph-name="M" unicode="M" horiz-adv-x="592" 
d="M582 0v56h-5q-13 0 -26.5 4.5t-19.5 11.5q-5 7 -5.5 13.5t-0.5 21.5v16v218v13q-3 28 10 40.5t47 12.5v56h-201l-88 -290l-86 290h-194v-56q44 -5 50 -25q3 -11 3 -41v-218q0 -40 -7 -50q-8 -12 -46 -17v-56h172v56h-5q-13 0 -26 4.5t-19 11.5q-3 4 -4 7t-2 8t-1 13v22
v234l107 -356h71l107 350v-227v-8q6 -61 -55 -59h-5v-56h229z" />
    <glyph glyph-name="N" unicode="N" horiz-adv-x="466" 
d="M456 407v56h-169v-56q38 0 47 -15q7 -10 7 -51v-145l-144 267h-184v-56q17 -1 30 -5t19 -12q3 -5 4.5 -13t1.5 -24v-12v-219v-13q0 -27 -11 -40t-44 -13v-56h168v56q-15 0 -29 4t-20 12q-3 4 -4 7t-2 8t-1 13v22v236l198 -358h78v341q0 39 8 52q11 14 47 14z" />
    <glyph glyph-name="O" unicode="O" horiz-adv-x="504" 
d="M484 242q0 104 -68 170q-65 63 -161 63q-101 0 -167 -70q-66 -71 -66 -179q0 -105 67 -174q34 -33 73 -48.5t85 -15.5q101 0 169 71q68 73 68 183zM363 238q0 -32 -5 -61.5t-16 -54.5q-14 -30 -36.5 -47.5t-52.5 -17.5q-58 0 -86 58q-23 46 -23 113q0 70 25 119
q30 59 89 59q55 0 83 -58q22 -44 22 -110z" />
    <glyph glyph-name="P" unicode="P" horiz-adv-x="416" 
d="M415 326q0 38 -17 69.5t-47 47.5q-24 14 -52 17t-68 3h-218v-56q44 -5 50 -26q3 -9 3 -41v-218q0 -41 -7 -51q-11 -15 -46 -15v-56h214v56q-34 0 -43 16q-7 10 -7 50v66h54q81 0 125 25q59 35 59 113zM295 326q0 -29 -16 -48.5t-48 -25.5q-7 -1 -16.5 -1.5t-21.5 -0.5
h-16v108q0 9 1 19t6 15q12 9 37 9q32 0 53 -20t21 -55z" />
    <glyph glyph-name="Q" unicode="Q" horiz-adv-x="504" 
d="M488 5q0 24 -12 50q-11 21 -30 42q20 30 29.5 66.5t9.5 75.5q0 103 -68 171q-65 65 -161 65q-102 0 -168 -70q-66 -69 -66 -179q0 -102 65 -170t159 -68q68 0 126 39q14 -14 14 -37q0 -21 -17 -40q-14 -14 -36 -23q-21 -10 -48 -14.5t-56 -4.5q-25 0 -44 4q-29 5 -41 15
q-5 5 -8 12q-1 1 -3 13q-4 21 -17 33.5t-32 12.5t-32.5 -13t-13.5 -34q0 -29 30 -54q21 -17 54 -30q29 -11 59.5 -16t66.5 -5q39 0 78 8t71 24q40 20 63 50q28 34 28 77zM364 235q0 -17 -3.5 -37.5t-8.5 -45.5q-36 10 -70 10q-33 0 -62 -16q-37 -19 -37 -52v-5
q-21 25 -31 68q-8 35 -8 76q0 69 24 116q30 57 89 57q57 0 85 -58q22 -44 22 -113zM309 78q-10 -9 -24 -14t-27 -5q-10 0 -18.5 3t-8.5 11q0 10 9 13.5t19 3.5q12 0 25.5 -3t24.5 -9z" />
    <glyph glyph-name="R" unicode="R" horiz-adv-x="491" 
d="M493 0v56q-37 5 -55 23q-4 4 -9.5 11.5t-13.5 18.5l-75 105q45 9 74.5 43.5t29.5 83.5q0 37 -20 65t-53 41q-26 11 -52.5 13.5t-68.5 2.5h-237v-56h7q39 0 45 -24q2 -10 2 -40v-223q0 -40 -6 -50q-9 -14 -43 -14h-5v-56h226v56h-8q-34 0 -44 15q-9 12 -9 50v78h34
l135 -199h146zM323 334q0 -19 -12 -34.5t-30 -24.5q-12 -6 -26 -8t-32 -2h-20h-25v97v9q0 5 1 10.5t4 8.5q6 6 19.5 8.5t29.5 2.5q17 0 34 -3.5t28 -12.5q10 -9 19 -23q10 -14 10 -28z" />
    <glyph glyph-name="S" unicode="S" horiz-adv-x="416" 
d="M403 156q0 30 -12 56.5t-34 41.5q-18 12 -47 23q-8 2 -20.5 6t-29.5 9l-43 13l-23 5q-17 5 -27.5 8.5t-15.5 5.5q-26 12 -26 33q0 25 24 39q17 10 45 10q21 0 40.5 -7.5t37.5 -20.5q14 -11 28 -29q10 -12 24 -33l6 -9l45 18l-41 138h-38l-7 -22q-22 16 -49.5 25t-53.5 9
q-65 0 -111 -39q-49 -43 -49 -112q0 -29 11 -55.5t32 -43.5q18 -13 47 -24q8 -2 20.5 -5.5t29.5 -8.5l72 -19q17 -5 27.5 -8.5t15.5 -5.5q24 -14 24 -37q0 -31 -28 -47q-22 -13 -53 -13q-55 0 -98 37q-38 32 -65 89l-48 -17l53 -171h37l9 31q21 -18 52.5 -28t60.5 -10
q71 0 123 44q55 46 55 124z" />
    <glyph glyph-name="T" unicode="T" horiz-adv-x="441" 
d="M443 322l-51 141h-344l-51 -141l46 -19q16 27 21 36q13 18 24 29q15 15 30 23q17 10 34 10q9 0 10.5 -2.5t1.5 -13.5v-263v-14q0 -16 -1.5 -23.5t-5.5 -11.5q-6 -9 -18.5 -13t-25.5 -4h-8v-56h230v56h-7q-12 0 -25.5 4t-19.5 12q-5 9 -6 20t-1 30v263q0 11 1.5 13.5
t10.5 2.5q15 0 35 -11q18 -10 30 -22q5 -6 11 -13.5t12 -16.5q2 -3 7.5 -12t13.5 -23z" />
    <glyph glyph-name="U" unicode="U" horiz-adv-x="466" 
d="M456 407v56h-169v-55q45 -6 49 -27q3 -8 3 -42v-164q0 -32 -3 -48q-3 -26 -17 -42q-12 -14 -31 -21t-39 -7q-19 0 -36 9.5t-28 27.5q-10 15 -11 28.5t-1 32.5v22v162q0 43 7 53q9 15 46 15v56h-217v-56q39 -5 46 -17q6 -11 6 -51v-175q0 -53 6 -77q9 -35 39 -61
q25 -21 60 -30q30 -8 65 -8q39 0 72 10q39 12 64 36.5t32 66.5q2 11 3 30.5t1 46.5v161q0 43 7 53q9 15 46 15z" />
    <glyph glyph-name="V" unicode="V" horiz-adv-x="454" 
d="M460 407v56h-178v-56q17 -2 26.5 -4t11.5 -3q11 -6 11 -20q0 -6 -1.5 -13.5t-5.5 -14.5l-73 -229l-78 231q-4 9 -6 15.5t-2 12.5q0 16 20 22q10 3 35 3v56h-233v-56q37 0 51 -13q11 -11 24 -49l121 -345h86l117 333q14 37 26 52q18 22 48 22z" />
    <glyph glyph-name="W" unicode="W" horiz-adv-x="592" 
d="M607 407v56h-191v-56h5q20 0 33 -5q18 -8 18 -26q0 -11 -3 -20l-59 -216l-55 218q-5 15 -5 26q0 16 16 20q1 1 27 3v56h-196v-56q23 0 33 -19q3 -5 9 -26l19 -54l-49 -163l-53 215q-5 15 -5 27q0 10 5 15t21 5v56h-190v-56q26 0 38 -19q4 -5 8 -16.5t9 -28.5l101 -343h81
l63 211l58 -211h83l96 319l6 20q13 40 26 53q15 15 51 15z" />
    <glyph glyph-name="X" unicode="X" horiz-adv-x="491" 
d="M485 0v56q-31 0 -62 26q-21 18 -46 53l-80 113l57 78q26 37 50 54q27 19 65 27v56h-196v-56h5l15 -1q9 -1 15.5 -4t6.5 -10q0 -11 -12 -25l-42 -64l-42 65l-6 11q-4 5 -4 13q0 9 10 12q4 1 8 1.5t8 1.5h11v56h-233v-56q29 0 47 -15q5 -5 13 -15t19 -26l82 -118l-91 -121
q-20 -26 -36 -39q-23 -17 -46 -17v-56h195v56q-50 0 -50 22q0 3 6 14q2 4 4.5 7.5t4.5 5.5l49 78l59 -88q3 -6 7 -12.5t4 -11.5q0 -7 -14 -12q-9 -3 -20 -3h-7v-56h246z" />
    <glyph glyph-name="Y" unicode="Y" horiz-adv-x="441" 
d="M452 407v56h-192v-56h7h11t13 -1.5t10.5 -4.5t4.5 -9q0 -7 -9 -23q-2 -5 -5 -10.5t-7 -12.5l-45 -81l-48 94l-7 14l-4.5 9t-2.5 8q0 12 21 15q7 1 14 1t14 1v56h-240v-56q27 -3 44 -16q18 -13 46 -61l82 -140v-68v-13q2 -27 -10 -39.5t-47 -13.5v-56h227v56h-6
q-12 0 -26 4.5t-20 12.5q-5 7 -6 24v26v73l77 128q25 42 42 58q23 20 62 25z" />
    <glyph glyph-name="Z" unicode="Z" horiz-adv-x="403" 
d="M400 159l-47 16q-18 -57 -62 -88q-41 -28 -102 -28l-46 5l239 356l-12 43h-303l-63 -147l44 -21q50 108 158 108l38 -2l-240 -357l10 -44h330z" />
    <glyph glyph-name="bracketleft" unicode="[" horiz-adv-x="189" 
d="M180 -94v57h-12q-24 0 -29 6.5t-5 35.5v391q0 14 1 22t5 12t11.5 5t20.5 1h8v57h-133v-587h133z" />
    <glyph glyph-name="backslash" unicode="\" horiz-adv-x="378" 
d="M350 0l-235 493h-84l235 -493h84z" />
    <glyph glyph-name="bracketright" unicode="]" horiz-adv-x="189" 
d="M146 -94v587h-133v-57h8q13 0 21 -1t12 -5t5 -12t1 -23v-391q0 -28 -5.5 -34.5t-29.5 -6.5h-12v-57h133z" />
    <glyph glyph-name="asciicircum" unicode="^" horiz-adv-x="378" 
d="M349 191l-120 272h-76l-120 -272h80l78 173l78 -173h80z" />
    <glyph glyph-name="underscore" unicode="_" horiz-adv-x="322" 
d="M322 -105v40h-322v-40h322z" />
    <glyph glyph-name="grave" unicode="`" horiz-adv-x="252" 
d="M206 405l-60 59q-18 15 -27 21q-17 11 -30 11q-20 0 -33 -14t-13 -35q0 -25 19 -38q13 -11 39 -15l92 -22z" />
    <glyph glyph-name="a" unicode="a" horiz-adv-x="342" 
d="M347 30l-33 46q-7 -7 -10 -9t-6 -2q-7 0 -8.5 8t-1.5 24v132q0 37 -6 57q-9 27 -32 42q-18 12 -40 17t-48 5q-27 0 -49.5 -5t-41.5 -17q-19 -13 -30.5 -32t-11.5 -42q0 -21 13 -35t32 -14q10 0 21 5t17 15q7 13 7 33q0 9 1 12.5t4 7.5q5 6 13.5 8t17.5 2q26 0 32 -12
t6 -33v-10v-17q-44 -6 -75 -15q-47 -14 -70 -37q-31 -28 -31 -75q0 -45 28 -70q25 -24 66 -24q51 0 95 35q10 -17 28 -26t37 -9q43 0 76 35zM193 93q-9 -11 -22.5 -17.5t-25.5 -6.5q-13 0 -20.5 10.5t-7.5 24.5q0 27 28 42q17 8 48 14v-67z" />
    <glyph glyph-name="b" unicode="b" horiz-adv-x="354" 
d="M335 169q0 35 -9 68.5t-27 56.5q-18 25 -45 40.5t-55 15.5q-17 0 -34.5 -6.5t-31.5 -15.5v165h-32q-29 -14 -57 -22t-56 -8v-56q27 0 38.5 -8.5t8.5 -35.5v-11v-352h68l10 22q11 -7 21 -11.5t18 -7.5q22 -8 42 -8q65 0 104 50q37 49 37 124zM236 178q0 -49 -10 -75
q-15 -40 -50 -40q-10 0 -22.5 6.5t-20.5 18.5v166q4 13 18.5 20.5t28.5 7.5q31 0 46 -36q10 -26 10 -68z" />
    <glyph glyph-name="c" unicode="c" horiz-adv-x="342" 
d="M324 98l-47 28q-12 -29 -34 -46t-49 -17q-33 0 -53 35q-16 29 -16 72q0 44 9 74q14 44 45 44q15 0 25 -10q6 -6 7.5 -11.5t1.5 -17.5q-4 -23 12 -39t36 -18q21 0 35 16t14 40q0 26 -15 47q-13 18 -35 31q-41 24 -82 24q-70 0 -115 -49q-45 -50 -45 -129q0 -39 11.5 -72
t32 -56t49 -36t63.5 -13q52 0 90 25q42 27 60 78z" />
    <glyph glyph-name="d" unicode="d" horiz-adv-x="378" 
d="M367 0v56q-37 4 -42 26q-2 8 -2 38v373h-32q-29 -14 -57 -22t-56 -8v-56q29 0 37.5 -8.5t8.5 -35.5v-11v-24q-29 22 -66 22q-63 0 -103 -57q-37 -52 -37 -126q0 -36 10 -68.5t30 -57.5q21 -25 43.5 -35.5t52.5 -10.5q24 0 44.5 7.5t36.5 24.5v-27h132zM224 96
q-8 -15 -23.5 -24t-31.5 -9q-27 0 -40 37q-10 26 -10 62q0 43 12 76q15 44 47 44q14 0 26 -9q9 -7 20 -21v-156z" />
    <glyph glyph-name="e" unicode="e" horiz-adv-x="342" 
d="M323 97l-49 29q-8 -14 -16 -25t-16 -19q-22 -19 -46 -19q-36 0 -55 34q-16 28 -16 81h191v14q0 73 -41 117q-39 41 -102 41q-69 0 -112 -49t-43 -126q0 -82 45 -131t115 -49q51 0 86 25.5t59 76.5zM215 234h-87q0 21 14 35t32 14t29.5 -13.5t11.5 -35.5z" />
    <glyph glyph-name="f" unicode="f" horiz-adv-x="224" 
d="M272 443q0 32 -25 48q-19 13 -50 13q-55 0 -98 -39q-24 -21 -33 -49q-6 -21 -6 -61v-14h-47v-61h47v-160q0 -38 -5 -50q-9 -14 -42 -14v-56h198v56h-9q-37 0 -41 24q-2 8 -2 40v160h52v61h-52v42v9q0 18 4 29t15 11q6 0 10 -4q1 0 7 -9q10 -22 31 -22q18 0 32 13t14 33z
" />
    <glyph glyph-name="g" unicode="g" horiz-adv-x="342" 
d="M344 358q0 21 -14 34t-32 13q-27 0 -49 -18q-10 -7 -18.5 -18t-16.5 -25q-13 2 -21 3t-13.5 2t-9.5 1h-8q-55 0 -90 -34q-40 -36 -40 -96q0 -28 10.5 -52.5t29.5 -38.5q-26 -6 -41 -29t-15 -54q0 -36 29 -60q-19 -8 -29.5 -23.5t-10.5 -37.5q0 -53 58 -75q37 -15 95 -15
q30 0 62 5.5t53 16.5q27 15 43.5 43t16.5 61q0 45 -27.5 68t-70.5 23l-79 9q-55 0 -55 23q0 6 3.5 11t8.5 5l9 -1q19 -5 29 -6t20 -1q54 0 92 33q40 36 40 97q0 29 -12 54t-34 44q7 9 19 9q4 0 12 -3q15 -6 19 -6q15 0 26 10.5t11 27.5zM209 216q0 -28 -8 -46
q-11 -20 -35 -20t-33 20q-7 14 -7 46q0 33 6 48q9 24 33 24q27 0 37 -22q7 -15 7 -50zM241 -77q0 -17 -17 -23q-12 -5 -29.5 -7t-37.5 -2q-19 0 -36 4q-50 8 -50 34q0 11 6 19.5t14 13.5l111 -14l18 -3q21 -5 21 -22z" />
    <glyph glyph-name="h" unicode="h" horiz-adv-x="401" 
d="M386 0v56l-10 2q-12 0 -18 6t-8.5 14.5t-3 19.5t-0.5 22v112q0 29 -4 48t-18 36q-28 34 -71 34q-26 0 -50 -10q-11 -4 -22 -9.5t-23 -13.5v176h-32q-29 -14 -57 -22t-56 -8v-56q12 0 22.5 -2t17.5 -7q5 -4 6 -13t1 -22v-11v-232q0 -29 -2 -39q-4 -19 -42 -25v-56h175v56
l-9 2q-9 2 -14 6q-8 7 -9 24t-1 32v128q12 11 31.5 19t37.5 8q14 0 18 -13q2 -10 2 -28v-10v-104v-11q0 -18 -2 -28t-10 -17q-4 -2 -7.5 -3.5t-7.5 -3.5l-6 -1v-56h172z" />
    <glyph glyph-name="i" unicode="i" horiz-adv-x="212" 
d="M158 430q0 27 -16 46.5t-39 19.5q-25 0 -41.5 -20t-16.5 -48q0 -26 15.5 -45t38.5 -19q24 0 41.5 19.5t17.5 46.5zM198 0v56q-34 4 -39 26q-1 3 -1 38v221h-39l-105 -17v-56h4q29 -4 37 -18q4 -7 4 -46v-84q0 -37 -5 -47q-7 -12 -41 -17v-56h185z" />
    <glyph glyph-name="j" unicode="j" horiz-adv-x="201" 
d="M164 431q0 27 -16.5 46t-40.5 19q-23 0 -39.5 -20t-16.5 -46q0 -27 16 -46t40 -19t40.5 19t16.5 47zM164 3v338h-39l-105 -17v-56h4q34 -4 39 -26q1 -4 1.5 -13t0.5 -25v-252q0 -17 -3 -26q-5 -12 -18 -12q-6 0 -13 5q-3 3 -9 12q-9 10 -16.5 15.5t-17.5 5.5
q-19 0 -31 -12t-12 -33q0 -26 16 -39q21 -18 63 -18q32 0 58 9q29 10 50 31.5t28 51.5q4 17 4 61z" />
    <glyph glyph-name="k" unicode="k" horiz-adv-x="389" 
d="M379 0v56h-4q-17 0 -31 11q-9 8 -22 29l-77 122l47 40q17 14 29 20t33 8v55h-171v-55l7 -1q4 0 9.5 -2t5.5 -10q0 -4 -7 -14q-3 -3 -9 -11l-31 -42v287h-32q-29 -14 -57 -22t-56 -8v-56q12 0 22.5 -2t17.5 -7q5 -4 6 -13t1 -22v-11v-232q0 -39 -6 -48q-6 -8 -39 -16v-56
h175v56h-5q-19 3 -25 22q-1 7 -1.5 14t-0.5 14v17v9l18 22l36 -63q5 -9 6 -11q4 -7 4 -12q0 -10 -19 -12v-56h176z" />
    <glyph glyph-name="l" unicode="l" horiz-adv-x="201" 
d="M190 0v56l-9 2q-13 3 -17 6q-13 8 -13.5 24t-0.5 32v373h-31q-29 -14 -57.5 -22t-56.5 -8v-56q29 0 38 -9t9 -35v-11v-232q0 -15 -0.5 -24.5t-1.5 -14.5q-4 -19 -38 -25v-56h178z" />
    <glyph glyph-name="m" unicode="m" horiz-adv-x="590" 
d="M578 0v56h-5q-35 5 -39 26q-2 8 -2 38v115q0 38 -4.5 53.5t-15.5 29.5q-14 18 -31.5 25t-41.5 7q-70 0 -115 -39q-29 39 -79 39t-99 -34v25h-28l-105 -17v-56h4q35 -5 40 -26q1 -5 1 -38v-84v-11q0 -17 -1 -28.5t-15 -17.5l-16 -5l-9 -2v-56h173v56q-20 4 -25 10
q-8 8 -8 32v152q14 11 32 18t32 7q17 0 22 -15q3 -9 3 -31v-129q0 -23 -6.5 -31t-26.5 -13v-56h165v56q-20 5 -26.5 13t-6.5 30v151q5 10 22.5 17.5t37.5 7.5q13 0 21 -10.5t8 -38.5v-125q0 -25 -6 -32t-27 -13v-56h177z" />
    <glyph glyph-name="n" unicode="n" horiz-adv-x="401" 
d="M385 0v56l-11 2q-7 2 -11 3.5t-6 2.5q-10 8 -11 20.5t-1 19.5v16v111q0 30 -5 49.5t-20 36.5q-15 18 -33 25.5t-40 7.5q-28 0 -52 -10q-11 -5 -22.5 -11.5t-24.5 -16.5v29h-30l-105 -17v-56h4q35 -5 40 -26q1 -5 1 -38v-84q0 -37 -5 -47q-7 -12 -40 -17v-56h177v56h-5
q-18 6 -23 14.5t-5 37.5v131q13 14 28 24q18 12 33 12q18 0 24 -18q4 -9 4 -35v-116q0 -27 -4 -34q-7 -12 -29 -16v-56h172z" />
    <glyph glyph-name="o" unicode="o" horiz-adv-x="366" 
d="M345 171q0 40 -13 77t-38 61q-23 22 -54 33q-29 8 -62 8q-75 0 -117.5 -46.5t-42.5 -131.5q0 -40 13 -76t38 -60q24 -22 53 -32q27 -9 59 -9q36 0 63 10q50 18 75.5 63.5t25.5 102.5zM238 170q0 -46 -10 -70q-13 -37 -46 -37q-27 0 -40 22q-17 28 -17 85q0 47 9 74
q14 38 48 38q33 0 47 -39q9 -26 9 -73z" />
    <glyph glyph-name="p" unicode="p" horiz-adv-x="378" 
d="M360 178q0 74 -31 121q-33 51 -91 51q-31 0 -50.5 -9t-34.5 -29v29h-34l-105 -17v-56h4q36 -5 41 -26q1 -4 1 -38v-228q0 -40 -6 -50q-8 -14 -41 -14v-56h188v56h-5q-32 0 -36 24q-1 4 -1.5 13.5t-0.5 26.5v37q31 -18 68 -18q62 0 100 57q34 52 34 126zM262 175
q0 -45 -12 -73q-15 -39 -49 -39q-24 0 -43 24v165q8 13 21.5 21.5t26.5 8.5q31 0 45 -38q11 -30 11 -69z" />
    <glyph glyph-name="q" unicode="q" horiz-adv-x="366" 
d="M373 -144v56h-7q-37 0 -41 24q-2 8 -2 39v366h-68l-11 -23q-17 15 -40 23.5t-44 8.5q-65 0 -104 -54q-38 -50 -38 -126q0 -35 10.5 -67t29 -56t44.5 -38.5t57 -14.5q19 0 38 5.5t27 16.5v-41q0 -39 -5 -51q-7 -13 -38 -13l-6 1v-56h198zM224 82q-7 -8 -21 -14.5t-25 -6.5
q-32 0 -47 37q-11 28 -11 69q0 44 11 72q15 38 50 38q28 0 43 -21v-174z" />
    <glyph glyph-name="r" unicode="r" horiz-adv-x="271" 
d="M273 286q0 26 -15 40.5t-38 14.5q-20 0 -39 -9q-13 -6 -38 -23v32h-23l-105 -17v-56h4q29 -4 37 -18q4 -7 4 -46v-84q0 -40 -6 -50q-8 -14 -41 -14v-56h188v56h-5q-31 4 -35 26q-1 4 -1.5 13t-0.5 25v126q0 5 5 8t12 3q6 0 20.5 -10.5t29.5 -10.5q20 0 33.5 14t13.5 36z
" />
    <glyph glyph-name="s" unicode="s" horiz-adv-x="307" 
d="M290 118q0 46 -30 73q-11 11 -26 17q-5 1 -48 12l-29 6q-14 4 -22 6t-10 3q-21 9 -21 25q0 14 16 21q12 5 25 5q24 0 44 -15q18 -14 32 -38l48 8l-11 100h-37l-7 -15q-21 12 -38.5 18t-37.5 6q-24 0 -46 -8.5t-39 -25.5q-35 -35 -35 -85q0 -27 9.5 -48.5t29.5 -34.5
q8 -5 17 -9.5t19 -6.5q5 -2 14.5 -3.5t23.5 -3.5t29.5 -4.5t24.5 -6.5q9 -5 13 -10t4 -14q0 -16 -20 -25q-14 -7 -32 -7q-29 0 -51 18q-8 7 -17.5 17.5t-20.5 26.5l-48 -8l24 -112h39l7 14q19 -11 36 -15t39 -4q52 0 90 30q42 34 42 93z" />
    <glyph glyph-name="t" unicode="t" horiz-adv-x="271" 
d="M263 58l-36 49q-9 -12 -25 -25t-26 -13q-12 0 -18 8.5t-6 35.5v11v156h82v61h-82v108h-58l-1 -6q-2 -16 -5 -27.5t-5 -19.5q-8 -23 -23 -38q-24 -21 -47 -25v-53h41v-167v-24q0 -21 3 -36t13 -29q13 -17 30 -24q15 -5 36 -5q80 0 127 63z" />
    <glyph glyph-name="u" unicode="u" horiz-adv-x="389" 
d="M385 0v56h-4q-31 4 -35 26q-1 3 -1 38v221h-38l-105 -17v-56h4q28 -5 36 -18q4 -7 4 -46v-110q-8 -7 -16 -12t-15 -9q-19 -10 -35 -10q-12 0 -17.5 9.5t-5.5 37.5v15v216h-39l-105 -17v-56h4q35 -5 40 -26q1 -5 1 -38v-80q0 -35 3 -53q11 -59 54 -71q17 -5 41 -5
q52 0 101 32v-27h128z" />
    <glyph glyph-name="v" unicode="v" horiz-adv-x="354" 
d="M350 286v55h-151v-55q22 -8 25 -10q6 -5 6 -14q0 -3 -2.5 -12t-6.5 -21l-33 -99l-36 103q-3 7 -6 16.5t-3 13.5q0 12 12 18q5 4 21 5v55h-180v-55q27 -6 41 -33q1 -1 4 -9.5t10 -24.5l88 -219h60l81 199q7 17 12 28t7 16q16 27 51 43z" />
    <glyph glyph-name="w" unicode="w" horiz-adv-x="472" 
d="M478 286v55h-139v-55l8 -2q24 -8 24 -25q0 -7 -4 -22l-39 -117l-35 117q-3 13 -3.5 17.5t-0.5 10.5q0 12 10 16t23 4v56h-152v-55l6 -2q11 -2 16.5 -10t10.5 -28l-37 -126l-41 116q-5 15 -5 26q0 15 26 23l7 1v55h-157v-55q23 -5 32 -23q5 -11 9 -22.5t8 -22.5l77 -218
h69l43 148l44 -148h72l74 222q10 30 18 42q14 18 36 22z" />
    <glyph glyph-name="x" unicode="x" horiz-adv-x="354" 
d="M349 0v56q-21 0 -42.5 13.5t-33.5 32.5l-59 85l36 38q22 23 44.5 37.5t50.5 23.5v55h-142v-55q6 0 12.5 -2t6.5 -7t-9 -17q-2 -4 -5 -7t-5 -7l-17 -18l-11 17q-2 3 -4.5 6.5t-4.5 7.5q-6 12 -6 16q0 6 8 8.5t18 2.5v55h-169v-55q21 -3 40.5 -18t30.5 -34l36 -57l-39 -46
q-21 -26 -27 -33q-27 -31 -53 -42v-56h144v56q-10 0 -18 2q-12 3 -14 11q0 6 7.5 18.5t16.5 21.5l15 17l13 -20q1 -1 2.5 -4t5.5 -8q12 -18 12 -24q0 -7 -10 -11q-6 -3 -14 -3v-56h184z" />
    <glyph glyph-name="y" unicode="y" horiz-adv-x="366" 
d="M362 286v55h-158v-55h4q14 0 22 -3t8 -16q0 -6 -5 -21l-39 -116l-41 118q0 2 -2.5 9.5t-2.5 10.5q0 12 14 17q4 1 25 1v55h-183v-55h5q16 -1 28 -13q5 -7 15 -31l92 -239q-6 -15 -18 -37q-15 -26 -23 -26q-5 5 -10 9l-10 8q-13 8 -25 8q-22 0 -35 -16t-13 -41
q0 -27 20 -44q19 -14 44 -14q40 0 72 30q6 6 11 12t9.5 14t10 19.5t12.5 29.5l103 259q13 33 25 47q16 19 45 25z" />
    <glyph glyph-name="z" unicode="z" horiz-adv-x="330" 
d="M323 126l-46 19q-35 -82 -117 -82l-17 2l169 226l-19 50h-234l-35 -112l47 -19l2 4q10 17 19 29.5t19 19.5q20 16 56 16h15l-169 -224l15 -55h258z" />
    <glyph glyph-name="braceleft" unicode="{" horiz-adv-x="189" 
d="M165 -95q-25 10 -34.5 28t-9.5 52v130q0 39 -9 57q-10 22 -40 30q30 8 40 32q9 19 9 61v120q0 33 10 51.5t34 26.5h-15q-24 0 -40.5 -4t-28.5 -19q-11 -14 -13.5 -32.5t-2.5 -46.5v-114q0 -36 -9 -52t-36 -24q19 -2 33 -24q8 -11 10 -22t2 -30v-128q0 -26 4.5 -44.5
t18.5 -30.5q16 -12 33 -15q5 -1 13 -1.5t20 -0.5h11z" />
    <glyph glyph-name="bar" unicode="|" horiz-adv-x="354" 
d="M214 0v493h-71v-493h71z" />
    <glyph glyph-name="braceright" unicode="}" horiz-adv-x="189" 
d="M165 201q-28 8 -36.5 24t-8.5 52v114q0 38 -8.5 64.5t-40.5 34.5q-12 3 -37 3h-13q23 -7 34 -28q9 -17 9 -50v-121q0 -40 8 -61q10 -24 41 -32q-29 -8 -40 -31q-9 -18 -9 -56v-129q0 -34 -9 -52t-34 -28h13q22 0 35.5 3t26.5 14q7 6 11.5 11.5t7.5 13.5t4 20t1 30v128
q0 20 2 30.5t9 21.5q17 23 34 24z" />
    <glyph glyph-name="asciitilde" unicode="~" horiz-adv-x="354" 
d="M327 201l-37 49q-11 -18 -17 -28t-8 -12q-10 -10 -23 -10q-14 0 -57 22q-44 23 -67 23t-42 -16q-23 -20 -46 -69l38 -50l5.5 11l8.5 17q16 28 37 28q9 0 22 -6t24 -11l23 -12q21 -10 32.5 -13t21.5 -3q29 0 52 26q10 13 33 54z" />
    <glyph glyph-name="nonbreakingspace" unicode="&#xa0;" horiz-adv-x="293" 
 />
    <glyph glyph-name="afii59681" unicode="&#xe01;" horiz-adv-x="415" 
d="M395 0v308q-2 8 -3 14t-2 10q-8 26 -18 38q-14 15 -39 24q-20 6 -34 6h-161q-29 0 -51 -31q-10 -13 -28 -21q-8 -4 -16 -5v-117h32v-226h104v297h-40v5q0 8 6 14q8 8 15 8h93q12 0 20 -7q4 -4 8.5 -9t7.5 -15q1 -2 1 -4t1 -6v-283h104z" />
    <glyph glyph-name="afii59682" unicode="&#xe02;" horiz-adv-x="377" 
d="M357 0v400h-104v-328h-83v121q0 8 14 25q19 22 24 30q20 35 20 66q0 40 -27.5 66t-70.5 26q-41 0 -65 -27q-22 -23 -22 -62q0 -35 27 -54q23 -17 47 -17q40 0 48 9q0 -8 -14.5 -19t-38.5 -17q-30 -7 -44 -33q-2 -6 -3 -11v-175h292zM131 294q-14 0 -21 9t-7 20
q0 12 7.5 21t20.5 9q14 0 21.5 -9t7.5 -21t-7.5 -20.5t-21.5 -8.5z" />
    <glyph glyph-name="afii59683" unicode="&#xe03;" horiz-adv-x="376" 
d="M356 0v395h-96v-323h-90v108q25 24 50.5 48t32.5 53q3 12 3 24q0 39 -27 77q-11 17 -13 15q-5 -5 -9 -8.5t-6 -5.5q-16 -13 -29 -13q-10 0 -20 9.5t-17 21.5q-31 -8 -44 -15q-45 -25 -49 -74q0 -16 6 -30.5t16.5 -25.5t24.5 -17.5t29 -6.5q20 0 39 11q8 8 16.5 15.5
t16.5 15.5v-12q-9 -19 -21 -26q-53 -33 -80 -61q-23 -23 -24 -36v-139h291zM121 279q-14 0 -21.5 8.5t-7.5 20.5t7.5 20.5t21.5 8.5t21.5 -9t7.5 -20q0 -12 -7.5 -20.5t-21.5 -8.5z" />
    <glyph glyph-name="afii59684" unicode="&#xe04;" horiz-adv-x="456" 
d="M436 0v297v10q-2 24 -12 39q-26 37 -60 48q-21 6 -82 6h-94q-61 0 -99 -25q-47 -32 -47 -95q-1 -10 1 -23.5t6.5 -28.5t10.5 -29.5t14 -26.5q5 -8 9.5 -17.5t6.5 -20.5q3 -14 3 -28v-6v-100h105v143q5 -2 9 -2.5t7 -1.5q15 -4 24 -4q40 0 62 25q20 23 20 56q0 35 -22 60
q-25 28 -65 28q-33 0 -56 -20q-28 -25 -28 -74q0 -12 3 -31v-40q-6 6 -10.5 20t-8.5 30.5t-5.5 32.5t-1.5 25q0 51 33 69q25 14 77 14q48 0 74 -23q15 -13 21 -49v-258h105zM237 190q-14 0 -21.5 9t-7.5 20q0 12 8 21t21 9q14 0 21.5 -9t7.5 -21t-8 -20.5t-21 -8.5z" />
    <glyph glyph-name="afii59685" unicode="&#xe05;" horiz-adv-x="442" 
d="M422 0v274q-2 8 -3 15t-2 15q-7 32 -25 56q-22 31 -61 37q-8 1 -15 1.5t-12 0.5q-21 0 -37 -6t-24 -13l-67 37q-6 2 -36 -14q-38 -19 -63 -49q-33 -41 -33 -93q0 -36 13 -63q4 -9 21 -36q10 -16 13 -27.5t3 -23.5q0 -4 -0.5 -6.5t-0.5 -4.5v-100h105v147l17 -5
q10 -3 18 -3q36 0 59 26q21 22 21 55q0 32 -21 55q-21 25 -61 25q-37 0 -61 -23t-24 -62l9 -66q-14 12 -22 24q-21 31 -21 63q0 10 2 18t5 17q11 27 39 49q25 19 33 18l50 -18q10 7 17 10q19 9 33 9q15 0 21.5 -11t8.5 -42v-14v-272h101zM235 192q-15 0 -22.5 8t-7.5 20
q0 11 7.5 18.5t20.5 7.5q15 0 22.5 -8.5t7.5 -19.5t-7.5 -18.5t-20.5 -7.5z" />
    <glyph glyph-name="afii59686" unicode="&#xe06;" horiz-adv-x="435" 
d="M415 0v400h-105v-272q-2 4 -3 5q-9 12 -14 17q-8 8 -10 9q-11 8 -19 8h-57v39q0 11 17 33q38 48 39 61q0 4 1 7v7q0 37 -22 71q-18 29 -24 26l-15 -15q-18 -13 -31 -12q-12 1 -25 16q-2 2 -4 6t-6 9q-15 -4 -26 -8t-18 -8q-44 -25 -49 -75q0 -33 21 -56t55 -23q22 0 39 9
l14 12t15 12v-7q-1 -4 -2 -7t-3 -7q-6 -10 -59 -33q-22 -10 -22 -20v-41q-30 -5 -45.5 -27t-15.5 -51q0 -37 22 -62q26 -29 66 -29q37 0 60 29q20 26 20 62v11q8 -1 16 -1t16 -1q18 -1 29 -12q18 -19 32 -58q3 -6 9 -24h104zM123 294q-14 0 -21.5 9t-7.5 20q0 12 7.5 21
t21.5 9t21.5 -9t7.5 -21t-7.5 -20.5t-21.5 -8.5zM127 109q14 0 21 -8.5t7 -19.5q0 -12 -8 -21t-22 -9t-21 8t-7 20t8 21t22 9z" />
    <glyph glyph-name="afii59687" unicode="&#xe07;" horiz-adv-x="351" 
d="M331 2v327q0 33 -24 56t-61 23q-41 0 -65 -28q-22 -25 -22 -60q0 -31 17.5 -54t49.5 -28v-159h-17q-30 0 -46 27q-5 8 -7 15.5t-2 15.5l-5 114v23t-1.5 16.5t-4 13.5t-6.5 14q-2 4 -6 9t-9 10l-10 10l-67 -41q2 -1 2.5 -2t1.5 -2q7 -7 9 -13q4 -11 7.5 -38.5t5.5 -72.5
q1 -23 2 -45l2 -44q0 -14 10.5 -29.5t25 -28.5t31 -21t28.5 -8h161zM246 293q-14 0 -21.5 9t-7.5 20q0 12 7.5 20.5t21.5 8.5t21.5 -9t7.5 -20q0 -12 -7.5 -20.5t-21.5 -8.5z" />
    <glyph glyph-name="afii59688" unicode="&#xe08;" horiz-adv-x="355" 
d="M329 233q7 24 7 50q0 41 -23 70q-26 30 -78 42q-37 8 -65 8q-55 0 -96 -22q-32 -17 -32 -27v-74q0 12 43 31q33 15 74 15q33 0 57 -13t34 -40q5 -15 5 -29q0 -23 -10 -50q-16 -39 -16 -43l-10 -40v95q-5 34 -25 54q-25 23 -59 23q-38 0 -62 -27q-22 -25 -22 -60
q0 -34 23 -57q26 -26 71 -26v-113h105l4 56q0 18 17 54q1 3 33 63q10 20 16.5 34.5t8.5 25.5zM135 168q-14 0 -21.5 8.5t-7.5 20.5t8 20.5t21 8.5t20.5 -9t7.5 -20q0 -12 -7.5 -20.5t-20.5 -8.5z" />
    <glyph glyph-name="afii59689" unicode="&#xe09;" horiz-adv-x="459" 
d="M409 154v148v12t-1 10q-4 24 -18 41q-13 15 -25 24q-17 11 -27 11h-233q-10 -3 -27 -11.5t-28 -22.5q-2 -2 -3.5 -4.5t-3.5 -6.5v-85q3 0 5 1q19 28 21 30q15 13 24 17q13 7 24 7h157q1 0 9 -4t9 -5q7 -5 9.5 -18.5t2.5 -27.5v-8v-99h-60l-41 -41v94q0 33 -23 53.5
t-62 20.5q-37 0 -58 -24q-19 -20 -19 -53q0 -27 15.5 -47.5t41.5 -23.5v-142h105q10 25 15 35q16 37 32 53h32q-1 -3 -1 -13q0 -33 21 -55q23 -26 61 -26q42 0 66 29q21 25 21 62q0 25 -10.5 43.5t-30.5 25.5zM363 51q-15 0 -22.5 8.5t-7.5 21.5q0 11 7 19.5t21 8.5t22 -9
t8 -21q0 -11 -7.5 -19.5t-20.5 -8.5zM119 184q-14 0 -21.5 9t-7.5 20q0 12 7.5 20.5t21.5 8.5t21.5 -8.5t7.5 -20.5t-7.5 -20.5t-21.5 -8.5z" />
    <glyph glyph-name="afii59690" unicode="&#xe0a;" horiz-adv-x="374" 
d="M354 0v233q0 31 -29 44q-14 4 -25 8t-12 7q-2 6 17 14q41 18 47 34q3 8 3.5 13t0.5 17q0 10 -0.5 17.5t-1.5 12.5h-104v-71q0 -8 -8 -16q-4 -4 -17 -12q0 45 -24.5 75t-64.5 30q-45 0 -69.5 -21.5t-24.5 -59.5v-6q0 -3 1 -8q1 -21 20 -40q20 -20 49 -20q23 0 49 14
q-2 -4 -3 -7t-2 -5q-5 -11 -11 -19q-5 -5 -58 -33q-17 -11 -17 -20v-181h284zM122 299q-14 0 -21.5 8.5t-7.5 20.5t7.5 20.5t21.5 8.5t21.5 -9t7.5 -20q0 -12 -7.5 -20.5t-21.5 -8.5zM250 69h-75v114q0 24 24 62q8 14 13 22t7 11h6q7 0 12 -4q11 -8 12 -20t1 -27v-158z" />
    <glyph glyph-name="afii59691" unicode="&#xe0b;" horiz-adv-x="377" 
d="M357 0v233q0 31 -29 44q-14 4 -25 8t-12 7q-2 6 17 14q41 18 47 34q3 8 3.5 13t0.5 17q0 10 -0.5 17.5t-1.5 12.5h-104v-71q0 -23 -17 -32q-2 -1 -4 -1t-4 -1q4 16 4 32q0 37 -21 63q-5 4 -10.5 8t-10.5 9l-18 -31q-5 5 -9 8.5t-7 5.5q-19 13 -34 13q-37 0 -58.5 -23.5
t-21.5 -56.5q0 -6 1 -13.5t3 -12.5q7 -20 25.5 -33.5t42.5 -13.5q11 0 23 4t23 10q-4 -10 -7 -14q-8 -17 -15 -21l-10.5 -6t-32.5 -18t-22 -26v-179h284zM123 294q-14 0 -21.5 9t-7.5 20q0 12 7.5 21t21.5 9t21.5 -9t7.5 -21t-7.5 -20.5t-21.5 -8.5zM253 69h-75v114
q0 24 24 62q19 30 20 33h6q5 0 12 -4q10 -8 11 -20t2 -27v-158z" />
    <glyph glyph-name="afii59692" unicode="&#xe0c;" horiz-adv-x="592" 
d="M572 0v400h-105v-295q-4 4 -6.5 7t-4.5 5q-14 14 -33 25l-9 4.5t-10 4.5q-2 1 -4.5 2t-4.5 2v150q0 39 -24 65q-29 30 -63 30h-170q-29 0 -51 -31q-10 -13 -28 -21q-8 -4 -16 -5v-117h31v-118q0 -46 13 -71q19 -39 70 -39q41 0 63 25q19 20 19 54q0 30 -16 52.5t-43 22.5
v145h-41v5q0 8 6 14q8 8 15 8h93q21 3 31 -12.5t7 -28.5v-131q-16 -9 -24.5 -27.5t-8.5 -39.5q0 -37 21 -62q24 -29 66 -29q49 0 70 32q13 19 13 51q0 5 -0.5 8t-0.5 5q5 -1 11.5 -12t9.5 -20l20 -58h104zM345 51q-13 0 -21 8.5t-8 20.5t7.5 20.5t21.5 8.5t22 -9t8 -20
q0 -12 -8 -20.5t-22 -8.5zM155 51q-14 0 -21.5 8.5t-7.5 20.5t8 20.5t21 8.5t20.5 -9t7.5 -20q0 -12 -7.5 -20.5t-20.5 -8.5z" />
    <glyph glyph-name="afii59693" unicode="&#xe0d;" horiz-adv-x="587" 
d="M332 -31q-10 0 -15.5 6t-5.5 13q0 20 21 20q10 0 15.5 -6t5.5 -14q0 -19 -21 -19zM155 51q-14 0 -21.5 8.5t-7.5 20.5t8 20.5t21 8.5t20.5 -9t7.5 -20q0 -12 -7.5 -20.5t-20.5 -8.5zM396 305q0 14 -6.5 32.5t-18.5 31.5q-14 16 -38 24q-18 7 -34 7h-161q-29 0 -51 -31
q-10 -13 -28 -21q-8 -4 -16 -5v-117h31v-118q0 -46 13 -71q19 -39 70 -39q41 0 63 25q19 20 19 55q0 30 -16.5 53.5t-43.5 23.5v142h-40v5q0 8 6 14q8 8 15 8h93q12 0 20 -7q4 -4 8.5 -9t7.5 -15q1 -2 1 -4t1 -6v-237h171v-14q0 -25 -6 -37q-9 -16 -35 -18q-5 -1 -16 -1
q-10 0 -17 2.5t-8 9.5q0 20 -12 34q-13 16 -37 16t-37.5 -15t-13.5 -35t12 -33q10 -12 33 -18q36 -11 98 -11q35 0 71 0.5t73 0.5v473h-105v-287h-67z" />
    <glyph glyph-name="afii59694" unicode="&#xe0e;" horiz-adv-x="435" 
d="M415 -81v395q-1 7 -1 11q0 5 -1 8q-4 22 -15 34q-14 15 -39 24q-20 6 -34 6h-160q-29 0 -51 -31q-11 -14 -28 -21q-8 -4 -16 -5v-117h31v-78q-29 -3 -46 -25t-17 -50q0 -30 20 -52q22 -24 64 -24q39 0 60 23q24 25 24 90v187h-40q0 7 0.5 11t5.5 8q8 8 15 8h89q8 0 16 -5
q6 -4 13 -11q4 -5 4.5 -12t0.5 -14v-277q-2 -1 -9 -1q-29 0 -53 28q-8 9 -18 27q4 -1 -10 -24q-13 -18 -40 -41q-8 -6 -22.5 -8.5t-33.5 -2.5q-7 0 -14.5 0.5t-9.5 0.5v-81q0 -3 10 -3q3 0 13.5 1t17.5 2q17 1 42 20q46 33 47 32q11 -5 20 -9.5t15 -6.5q36 -17 38 -17h112z
M121 101q14 0 21.5 -8.5t7.5 -19.5q0 -12 -8 -21t-22 -9t-21.5 8.5t-7.5 19.5q0 12 8 21t22 9z" />
    <glyph glyph-name="afii59695" unicode="&#xe0f;" horiz-adv-x="435" 
d="M415 -81v395q-1 7 -1 11q0 5 -1 8q-4 22 -15 34q-14 15 -39 24q-20 6 -34 6h-160q-29 0 -51 -31q-11 -14 -28 -21q-8 -4 -16 -5v-117h31v-74q-29 -3 -46 -25t-17 -52q0 -31 20 -53q22 -25 64 -25q39 0 60 23q24 25 24 90v187h-40q0 7 0.5 11t5.5 8q8 8 15 8h89q8 0 16 -5
q6 -4 13 -11q4 -5 4.5 -12t0.5 -14v-196v-92q-7 1 -12.5 2.5t-12.5 2.5q-17 5 -28 23q-2 4 -4 7.5t-4 7.5l-47 -51q-6 -8 -14 -8q-3 0 -19.5 7.5t-31.5 7.5q-18 0 -38 -7q-15 -5 -29 -12q-2 -1 -4.5 -2t-5.5 -3l11 -79q11 8 20 13q23 16 40 16q14 0 32.5 -8t35.5 -16
q5 7 9.5 11.5l7.5 7.5q20 20 34 22q8 2 17 -2.5t18 -11.5h130zM121 101q14 0 21.5 -8.5t7.5 -19.5q0 -12 -8 -21t-22 -9t-21.5 8.5t-7.5 19.5q0 12 8 21t22 9z" />
    <glyph glyph-name="afii59696" unicode="&#xe10;" horiz-adv-x="375" 
d="M364 372l-37 57l-23 -22q-10 -7 -63 -7h-33h-16q-10 0 -26 -1q-31 -1 -46 -6q-22 -8 -50 -27q-27 -18 -27 -24v-77q0 12 45 38q34 18 75 18q40 0 65 -13q31 -15 37 -46q7 -29 7 -51q0 -25 -9 -44.5t-30 -34.5l2 70q-5 32 -26 51q-22 22 -60 22q-39 0 -60 -25
q-19 -22 -19 -55q0 -36 21 -61q22 -28 60 -28v-78h68v-61l-41 37l-43 -35q-1 1 -1 2l-1 1v20q0 15 -1 34t-4 31q-4 13 -16 25q-12 14 -16 13l-60 -42l10 -7q3 -2 6 -3.5t3 -3.5v-141h82l41 34l41 -34h89v139h-43v17q0 21 21 50q49 67 54 88q6 28 6 51q0 43 -23 72
q-16 19 -51 38q5 -2 9.5 -3t7.5 -2q22 -5 35 -5t20 3.5t12 9.5q10 11 8 16zM151 218q14 0 21 -8.5t7 -19.5q0 -12 -8 -21t-22 -9t-21 8.5t-7 19.5q0 12 8 21t22 9z" />
    <glyph glyph-name="afii59697" unicode="&#xe11;" horiz-adv-x="442" 
d="M422 0v302v15q0 58 -20 73q-13 10 -32 10h-71q-18 0 -28 -7t-21 -24l-49 -94q0 35 10 57.5t27 39.5l-41 32q-3 -3 -6 -5.5t-6 -3.5q-7 -3 -11 -7q-1 0 -6 3t-12 6t-15.5 6t-16.5 3q-39 0 -62 -26q-21 -24 -21 -59q0 -12 3 -25q17 -56 72 -56q12 -1 28.5 6t19.5 14
q1 -1 1 -2q-2 -14 -4 -17q-5 -9 -36 -19q-27 -9 -27 -29v-193h105v124q4 11 7.5 19t5.5 15q9 23 17.5 41.5t16.5 33.5q7 14 13 28t13 28q16 30 27 33q10 3 11.5 -9t2.5 -26v-287h105zM121 294q-14 0 -21.5 9t-7.5 20q0 12 7.5 21t21.5 9t21.5 -9t7.5 -21t-7.5 -20.5
t-21.5 -8.5z" />
    <glyph glyph-name="afii59698" unicode="&#xe12;" horiz-adv-x="592" 
d="M572 0v400h-104v-263q-14 8 -22 9q-27 10 -53 10v149l-6 42q-14 43 -56 50q-14 2 -26.5 3.5t-23.5 1.5q-30 0 -51 -9q-17 -8 -25 -14l-39 40q-8 -4 -16.5 -8t-16.5 -8q-37 -25 -59 -58q-32 -47 -32 -108q0 -25 20 -56q9 -14 20 -31.5t24 -37.5q0 -4 1 -7v-6v-9
q0 -11 -1.5 -29t-5.5 -43v-9t-1 -9h111v6v30q0 14 0.5 29t2.5 23q2 13 7 28t13 33q7 17 15 35.5t18 38.5q0 3 1 6v6q0 26 -17 46q-20 20 -51 20q-33 0 -52 -21q-16 -19 -16 -46q0 -26 16 -45t43 -19l-21 -51q-7 10 -13 20t-12 21q-25 46 -36 77q-3 9 -3 17q0 28 30 58
q10 10 30 24l24 -29q10 6 18 9q22 8 40 8q31 0 39 -17q2 -6 2 -11v-137q-25 -3 -39.5 -25t-14.5 -51q0 -36 21 -61q22 -28 63 -28q40 0 63 26q22 23 22 58q0 10 -1 15q-1 7 5 7q7 0 19.5 -8.5t17.5 -22.5l24 -69h104zM199 211q-11 0 -17 7t-6 17t6 17t17 7t17.5 -7.5
t6.5 -16.5q0 -10 -6.5 -17t-17.5 -7zM318 51q-14 0 -21.5 8.5t-7.5 20.5t7.5 20.5t21.5 8.5t21.5 -9t7.5 -20q0 -12 -7.5 -20.5t-21.5 -8.5z" />
    <glyph glyph-name="afii59699" unicode="&#xe13;" horiz-adv-x="608" 
d="M558 147v253h-105v-240q-3 1 -13 1q-10 -2 -21.5 -1.5t-19.5 -7.5q-2 -2 -4 -11v167q-2 8 -3 14t-2 10q-8 26 -18 38q-14 15 -39 24q-20 6 -34 6h-161q-29 0 -51 -31q-10 -13 -28 -21q-8 -4 -16 -5v-117h31v-118q0 -46 13 -71q19 -39 70 -39q41 0 63 25q19 20 19 55
q0 30 -16.5 53.5t-43.5 23.5v142h-40v5q0 8 6 14q8 8 15 8h93q12 0 20 -7q4 -4 8.5 -9t7.5 -15q1 -2 1 -4t1 -6v-283h97q2 4 9 31q10 34 31 45q5 -28 12 -41q23 -41 72 -41q40 0 62 28q21 25 21 60q0 21 -9.5 38.5t-27.5 26.5zM512 51q-13 0 -21 8.5t-8 20.5t7.5 20.5
t21.5 8.5t22 -9t8 -20q0 -12 -8 -20.5t-22 -8.5zM155 51q-14 0 -21.5 8.5t-7.5 20.5t8 20.5t21 8.5t20.5 -9t7.5 -20q0 -12 -7.5 -20.5t-20.5 -8.5z" />
    <glyph glyph-name="afii59700" unicode="&#xe14;" horiz-adv-x="443" 
d="M423 0v284q-2 3 -6 31q-7 29 -22 46q-36 39 -84 39h-125q-53 0 -95 -42q-40 -40 -48 -97q0 -4 -1 -7v-7q0 -28 16 -61q39 -85 42 -103q1 -5 1 -12q0 -18 -8 -48q-1 -4 -3 -9.5t-4 -13.5h107l108 186q7 18 7 39q0 34 -22.5 57.5t-62.5 23.5t-63 -26q-21 -24 -21 -58
q0 -32 18 -54q19 -25 54 -31l-20 -34q-10 11 -20 22.5t-20 22.5q-39 55 -39 96q0 13 6 27q14 31 42.5 46.5t63.5 15.5q36 0 67 -16q15 -7 23 -27q1 -3 2 -7.5t2 -9.5v-273h105zM223 192q-14 0 -21.5 8.5t-7.5 19.5q0 12 7.5 20.5t21.5 8.5t21.5 -8.5t7.5 -20.5t-7.5 -20
t-21.5 -8z" />
    <glyph glyph-name="afii59701" unicode="&#xe15;" horiz-adv-x="444" 
d="M424 0v282q-1 7 -1 14t-1 15q-4 30 -19 53q-20 30 -58 35q-12 2 -16 2h-10q-23 0 -43.5 -7t-32.5 -14l-45 39q-6 2 -39 -14q-44 -21 -72 -51q-38 -40 -43 -93q0 -32 9 -68q5 -17 12.5 -44.5t18.5 -65.5q1 -5 1 -12q0 -18 -8 -48q-1 -4 -3 -9.5t-4 -13.5h107l125 193
q5 15 5 30q0 36 -22 59q-23 26 -64 26q-38 0 -60 -28q-19 -25 -19 -61q0 -31 16 -54t44 -23l-29 -41l-30 45q-30 52 -30 93q0 15 6 32q11 27 40 50q26 21 32 17l36 -26l6 6q16 13 35 13q5 0 13 -2t13 -4q15 -8 21 -30q1 -4 2 -9.5t2 -12.5v-273h105zM221 193q-13 0 -21 8.5
t-8 20.5t7.5 20.5t21.5 8.5t21.5 -9t7.5 -20q0 -12 -7.5 -20.5t-21.5 -8.5z" />
    <glyph glyph-name="afii59702" unicode="&#xe16;" horiz-adv-x="415" 
d="M395 0v308q-2 8 -3 14t-2 10q-8 26 -18 38q-14 16 -38 24q-20 6 -34 6h-160q-31 0 -53 -31q-10 -13 -28 -21q-8 -4 -16 -5v-117h31v-118q0 -46 13 -71q19 -39 70 -39q41 0 63 25q19 20 19 55q0 30 -16.5 53.5t-43.5 23.5v142h-40v5q0 8 6 14q8 8 15 8h93q12 0 20 -7
q4 -4 8.5 -9t7.5 -15q1 -2 1 -4t1 -6v-283h104zM155 51q-14 0 -21.5 8.5t-7.5 20.5t8 20.5t21 8.5t20.5 -9t7.5 -20q0 -12 -7.5 -20.5t-20.5 -8.5z" />
    <glyph glyph-name="afii59703" unicode="&#xe17;" horiz-adv-x="443" 
d="M423 0v292q-2 21 -3 33q-5 38 -17 53q-6 8 -18 15t-21 7h-47q-18 0 -35 -14q-16 -14 -27 -35q-8 -14 -16 -31t-18 -36q-3 -5 -6 -11.5t-7 -13.5v68q0 32 -21 55q-23 24 -62 24q-41 0 -63 -27q-21 -24 -21 -57q0 -30 17 -54t48 -29v-239h103v132q7 17 11 27.5t6 15.5
q2 7 8.5 20t17.5 33q25 49 30 57q16 28 26 33q11 5 11 -21q0 -2 -0.5 -10t-0.5 -11v-276h105zM125 292q-14 0 -21.5 8.5t-7.5 19.5q0 12 7.5 20.5t21.5 8.5t21.5 -8.5t7.5 -20.5q0 -11 -7.5 -19.5t-21.5 -8.5z" />
    <glyph glyph-name="afii59704" unicode="&#xe18;" horiz-adv-x="377" 
d="M360 308v87l-6 -2q-12 -3 -20 -3h-6q-20 6 -51.5 10t-67.5 4q-42 0 -78.5 -8t-58.5 -26q-16 -12 -21 -22q-8 -14 -8 -29v-124h209v-85q0 -14 -7 -22.5t-27 -8.5h-44v104h-104v-183h219q35 0 54 25q8 11 12 31q1 4 1 8q0 5 1 11v199h-209v12q0 20 12 28.5t42 8.5
q9 0 24.5 0.5t22.5 0.5q21 0 38 -4.5t38 -17.5q4 -3 12 -3q9 0 16 3t7 6z" />
    <glyph glyph-name="afii59705" unicode="&#xe19;" horiz-adv-x="462" 
d="M412 154v246h-105v-238h-8h-11t-18 -1q-21 0 -30.5 -2.5t-16.5 -11.5q-5 -5 -12 -20v202q-3 33 -24 54q-23 23 -61 23q-41 0 -63 -27q-21 -23 -21 -58q0 -30 17 -54t48 -31v-236h104q2 5 5 14t5 22q8 39 27 43q1 0 5.5 0.5t10.5 1.5t11.5 2t8.5 2q0 -36 20 -62
q23 -29 62 -29t62 27q21 22 21 58q0 22 -9.5 42.5t-27.5 32.5zM126 292q-14 0 -21.5 8.5t-7.5 19.5q0 12 7.5 20.5t21.5 8.5t21.5 -8.5t7.5 -20.5q0 -11 -7.5 -19.5t-21.5 -8.5zM366 51q-13 0 -21 8.5t-8 20.5t7.5 20.5t21.5 8.5t22 -9t8 -20q0 -12 -8 -20.5t-22 -8.5z" />
    <glyph glyph-name="afii59706" unicode="&#xe1a;" horiz-adv-x="454" 
d="M434 0v400h-105v-325h-116v254q-5 33 -24 54q-23 23 -61 23q-43 0 -66 -29q-22 -25 -22 -63q0 -32 18.5 -55.5t50.5 -23.5v-235h325zM128 292q-14 0 -21.5 8.5t-7.5 19.5q0 12 7.5 20.5t21.5 8.5t21.5 -8.5t7.5 -20.5q0 -11 -7.5 -19.5t-21.5 -8.5z" />
    <glyph glyph-name="afii59707" unicode="&#xe1b;" horiz-adv-x="454" 
d="M434 0v478h-105v-403h-116v254q-5 33 -24 54q-23 23 -61 23q-43 0 -66 -29q-22 -25 -22 -63q0 -32 18.5 -55.5t50.5 -23.5v-235h325zM128 292q-14 0 -21.5 8.5t-7.5 19.5q0 12 7.5 20.5t21.5 8.5t21.5 -8.5t7.5 -20.5q0 -11 -7.5 -19.5t-21.5 -8.5z" />
    <glyph glyph-name="afii59708" unicode="&#xe1c;" horiz-adv-x="402" 
d="M382 0v400h-105v-276l-61 93l-56 -99l-4 12l-4 12q-2 13 -4 25.5t-3 25.5l-4 40q42 4 67 32q22 25 22 57q0 34 -22 56q-26 26 -67 26q-37 0 -63 -32q-15 -18 -25 -47q-5 -15 -6 -28q-6 -38 -6 -93q0 -45 11 -100q4 -20 9 -39t11 -36q11 -29 13 -29h75l57 96l60 -96h105z
M143 347q14 0 21 -8t7 -20t-8 -21t-22 -9t-21 8.5t-7 19.5q0 12 8 21t22 9z" />
    <glyph glyph-name="afii59709" unicode="&#xe1d;" horiz-adv-x="402" 
d="M382 0v478h-105v-354l-61 93l-56 -99l-4 12l-4 12q-2 13 -4 25.5t-3 25.5l-4 40q42 4 67 32q22 25 22 57q0 34 -22 56q-26 26 -67 26q-37 0 -63 -32q-15 -18 -25 -47q-5 -15 -6 -28q-6 -38 -6 -93q0 -45 11 -100q4 -20 9 -39t11 -36q11 -29 13 -29h75l57 96l60 -96h105z
M141 289q-14 0 -21.5 9t-7.5 20q0 12 7.5 20.5t21.5 8.5t21.5 -8.5t7.5 -20.5t-7.5 -20.5t-21.5 -8.5z" />
    <glyph glyph-name="afii59710" unicode="&#xe1e;" horiz-adv-x="474" 
d="M454 0v400h-105v-210l-73 210l-62 -191v118q0 33 -22 55q-24 24 -63 24q-41 0 -66 -28q-21 -24 -21 -59q0 -29 18 -53t50 -29v-237h104l62 226l73 -226h105zM130 348q13 0 20.5 -8t7.5 -20q0 -11 -8 -20t-22 -9t-21 8t-7 19q0 12 8 21t22 9z" />
    <glyph glyph-name="afii59711" unicode="&#xe1f;" horiz-adv-x="474" 
d="M454 0v476h-105v-286l-73 210l-62 -191v118q0 33 -22 55q-24 24 -63 24q-41 0 -66 -28q-21 -24 -21 -59q0 -29 18 -53t50 -29v-237h104l62 226l73 -226h105zM128 291q-14 0 -21.5 8.5t-7.5 19.5q0 12 7.5 20.5t21.5 8.5t21.5 -8.5t7.5 -20.5q0 -11 -7.5 -19.5t-21.5 -8.5
z" />
    <glyph glyph-name="afii59712" unicode="&#xe20;" horiz-adv-x="439" 
d="M419 0v317q-1 7 -1.5 11.5t-0.5 7.5q-4 22 -15 34q-14 15 -39 24q-20 6 -34 6h-160q-29 0 -51 -31q-10 -13 -28 -21q-8 -4 -16 -5v-117h31v-74q-29 -3 -46 -25.5t-17 -51.5q0 -32 21 -54q22 -24 63 -24q39 0 60 23q24 25 24 90v187h-40v5q0 8 6 14q10 8 15 8h89
q12 0 20 -7q8 -8 11 -15t3 -20v-282h105zM125 102q14 0 21.5 -8.5t7.5 -19.5q0 -12 -7.5 -20.5t-22.5 -8.5q-14 0 -21.5 8.5t-7.5 19.5q0 12 7.5 20.5t22.5 8.5z" />
    <glyph glyph-name="afii59713" unicode="&#xe21;" horiz-adv-x="444" 
d="M424 0v400h-105v-268q-11 11 -40 18q-30 9 -50 9q-12 0 -16 -3v166q0 33 -21 57q-24 27 -64 27t-63 -29q-20 -25 -20 -60q0 -31 17 -53.5t47 -22.5v-77q-33 -6 -50 -29.5t-17 -53.5q0 -36 21 -60q25 -27 66 -27q40 0 64 28q22 25 22 61v9q3 0 7 1t10 1q7 0 15.5 -2
t16.5 -7q12 -6 18 -18l38 -67h104zM128 292q-14 0 -21.5 8.5t-7.5 19.5q0 12 7.5 20.5t21.5 8.5t21.5 -8.5t7.5 -20.5q0 -11 -7.5 -19.5t-21.5 -8.5zM129 51q-14 0 -21.5 8.5t-7.5 20.5t7.5 20.5t21.5 8.5t21.5 -9t7.5 -20q0 -12 -7.5 -20.5t-21.5 -8.5z" />
    <glyph glyph-name="afii59714" unicode="&#xe22;" horiz-adv-x="378" 
d="M358 0v400h-105v-324h-105v73h82v71h-61q-4 0 -12 6.5t-8 9.5q32 8 49 32q16 22 16 53q0 34 -21 58q-23 27 -63 27q-39 0 -64 -27q-23 -25 -23 -57v-105q0 -13 27 -28q4 -2 8 -5t9 -5q-22 -3 -38 -34q-6 -12 -6 -15v-130h315zM130 292q-14 0 -21.5 8.5t-7.5 19.5
q0 12 7.5 20.5t21.5 8.5t21.5 -8.5t7.5 -20.5q0 -11 -7.5 -19.5t-21.5 -8.5z" />
    <glyph glyph-name="afii59715" unicode="&#xe23;" horiz-adv-x="301" 
d="M281 304v93q-2 -1 -3 -1t-3 -1q-15 -8 -21 -7q-54 15 -84 15q-6 0 -14 0.5t-19 -2t-26 -9.5t-35 -22q-15 -10 -33 -28v-139h111v-38q-35 -5 -54 -29q-17 -22 -17 -53q0 -35 22 -60q25 -28 65 -28q39 0 63 26q22 22 22 58v198h-102l-7 10q-3 4 -3 9q0 12 15 22.5t28 10.5
q3 0 5 -1q72 -26 85 -26q5 0 5 2zM170 53q-14 0 -21.5 8.5t-7.5 20.5q0 11 7.5 19.5t21.5 8.5t21.5 -8.5t7.5 -19.5q0 -12 -7.5 -20.5t-21.5 -8.5z" />
    <glyph glyph-name="afii59716" unicode="&#xe24;" horiz-adv-x="415" 
d="M395 -79v387q-2 8 -3 14t-2 10q-8 26 -18 38q-14 15 -39 24q-20 6 -34 6h-161q-29 0 -51 -31q-10 -13 -28 -21q-8 -4 -16 -5v-117h31v-118q0 -46 13 -71q19 -39 70 -39q41 0 63 25q19 20 19 55q0 30 -16.5 53.5t-43.5 23.5v142h-40v5q0 8 6 14q8 8 15 8h93q12 0 20 -7
q4 -4 8.5 -9t7.5 -15q1 -2 1 -4t1 -6v-362h104zM155 51q-14 0 -21.5 8.5t-7.5 20.5t8 20.5t21 8.5t20.5 -9t7.5 -20q0 -12 -7.5 -20.5t-20.5 -8.5z" />
    <glyph glyph-name="afii59717" unicode="&#xe25;" horiz-adv-x="387" 
d="M367 0v297q0 21 -5.5 40t-17.5 31q-11 13 -36.5 22.5t-51.5 9.5h-147q-7 0 -17 -3.5t-21 -11.5l-28 -22v-75q2 3 4 5q10 13 14.5 16t11.5 9q8 5 13 5h120q13 -2 23 -2q11 0 18 -2t11 -7t5 -16v-15v-26q-2 2 -3.5 4t-2.5 3q-3 4 -4.5 5.5l-2.5 2.5q-9 5 -14.5 5.5
t-11.5 0.5h-111q-13 0 -26 -5q-8 -4 -21.5 -14.5t-19.5 -30.5q-2 -8 -3 -19v-140q0 -29 22.5 -51t58.5 -22q39 0 61 25q19 22 19 55q0 28 -15 49q-17 23 -43 29v31q0 4 5 9t10 5h73q28 0 28 -27v-170h105zM126 48q-14 0 -21.5 8t-7.5 19t7.5 19t21.5 8t21.5 -8.5t7.5 -18.5
q0 -11 -7.5 -19t-21.5 -8z" />
    <glyph glyph-name="afii59718" unicode="&#xe26;" horiz-adv-x="435" 
d="M415 -79v396q-1 7 -1 11q0 5 -1 8q-4 22 -15 34q-14 15 -39 24q-20 6 -34 6h-160q-29 0 -51 -31q-11 -14 -28 -21q-8 -4 -16 -5v-117h31v-74q-29 -3 -46 -25.5t-17 -51.5q0 -31 20 -54q22 -24 64 -24q39 0 60 23q24 25 24 90v187h-40v5q0 8 6 14q8 8 15 8h89q12 0 20 -7
q8 -8 11 -15t3 -20v-361h105zM121 104q14 0 21.5 -8.5t7.5 -19.5q0 -13 -8 -21.5t-22 -8.5t-21.5 8.5t-7.5 19.5q0 12 8 21t22 9z" />
    <glyph glyph-name="afii59719" unicode="&#xe27;" horiz-adv-x="293" 
d="M273 74v224v8q0 15 -3 32q-4 22 -16 35q-10 13 -38 21.5t-60 8.5q-26 0 -49.5 -5t-42.5 -16q-6 -4 -13.5 -11.5t-7.5 -9.5v-70q7 6 12.5 10.5t9.5 7.5q26 17 44 17q43 0 55 -17q2 -4 4 -10v-138q-33 0 -52 -22q-16 -19 -16 -51q0 -37 22 -63q26 -29 65 -29q38 0 62 24
q19 21 24 54zM187 53q-14 0 -21.5 8.5t-7.5 20.5t7.5 20.5t21.5 8.5t21.5 -9t7.5 -20q0 -12 -7.5 -20.5t-21.5 -8.5z" />
    <glyph glyph-name="afii59720" unicode="&#xe28;" horiz-adv-x="456" 
d="M452 463h-104q-2 0 -2 -6v-12q0 -1 -0.5 -10t-2.5 -13q-3 -5 -5 -8.5t-3 -5.5q-6 -8 -14 -8h-39h-94q-61 0 -99 -25q-47 -32 -47 -95q-1 -10 1 -23.5t6.5 -28.5t10.5 -29.5t14 -26.5q5 -8 9.5 -17.5t6.5 -20.5q3 -14 3 -28v-6v-100h105v143q5 -2 9 -2.5t7 -1.5
q15 -4 24 -4q40 0 62 25q20 23 20 56q0 35 -22 60q-25 28 -65 28q-33 0 -56 -20q-28 -25 -28 -74q0 -12 3 -31v-40q-6 6 -10.5 20t-8.5 30.5t-5.5 32.5t-1.5 25q0 51 33 69q25 14 77 14q48 0 74 -23q15 -13 21 -49v-258h105v297v10q-2 24 -12 39q-2 2 -4 5t-4 8
q-8 12 -15 17q7 3 13.5 7t10.5 9q13 13 22 44q1 7 2 13.5t3 13.5zM237 190q-14 0 -21.5 9t-7.5 20q0 12 8 21t21 9q14 0 21.5 -9t7.5 -21t-8 -20.5t-21 -8.5z" />
    <glyph glyph-name="afii59721" unicode="&#xe29;" horiz-adv-x="484" 
d="M457 199v80h-23v121h-105v-121h-20q-1 9 -12.5 15.5t-23.5 6.5q-24 0 -39 -16q-12 -14 -12 -35t13.5 -36t37.5 -15h56v-124h-116v254q-5 33 -24 54q-23 23 -61 23q-43 0 -66 -29q-22 -25 -22 -63q0 -32 18.5 -55.5t50.5 -23.5v-235h325v199h23zM273 233q-9 0 -13.5 5
t-4.5 12q0 6 5 11.5t13 5.5q9 0 13.5 -5t4.5 -12q0 -10 -7 -14q-5 -3 -11 -3zM125 289q-14 0 -21.5 8.5t-7.5 19.5q0 12 7.5 20.5t21.5 8.5t21.5 -8.5t7.5 -20.5q0 -11 -7.5 -19.5t-21.5 -8.5z" />
    <glyph glyph-name="afii59722" unicode="&#xe2a;" horiz-adv-x="387" 
d="M383 407h-99l-7 -17q-8 6 -18 8t-18 2h-132q-7 0 -17 -3.5t-21 -11.5l-28 -22v-75q2 3 4 5q10 13 14.5 16t11.5 9q8 5 13 5h120q13 -2 23 -2q11 0 18 -2t11 -7t5 -16v-15v-26q-2 2 -3.5 4t-2.5 3q-3 4 -4.5 5.5l-2.5 2.5q-9 5 -14.5 5.5t-11.5 0.5h-111q-13 0 -26 -5
q-8 -4 -21.5 -14.5t-19.5 -30.5q-2 -8 -3 -19v-140q0 -29 22.5 -51t58.5 -22q39 0 61 25q19 22 19 55q0 28 -15 49q-17 23 -43 29v31q0 4 5 9t10 5h73q28 0 28 -27v-170h105v308v12q-1 14 -11 32q-3 0 -1.5 1t5 4.5t9.5 11t12 21.5q1 4 1 8t1 9zM126 48q-14 0 -21.5 8
t-7.5 19t7.5 19t21.5 8t21.5 -8.5t7.5 -18.5q0 -11 -7.5 -19t-21.5 -8z" />
    <glyph glyph-name="afii59723" unicode="&#xe2b;" horiz-adv-x="467" 
d="M413 0v237l-9 16q21 10 32.5 28.5t11.5 40.5q0 34 -22 57q-26 27 -64 27q-40 0 -63 -26q-20 -23 -20 -57q0 -29 15 -54q-3 1 -14 1q-4 0 -8.5 -0.5t-7.5 -0.5q-23 -2 -40 -26q-2 -4 -5 -9.5t-7 -13.5v113q0 35 -23 54t-63 19t-63 -26q-21 -23 -21 -58q0 -30 17 -53.5
t48 -30.5v-238h102v95q11 28 16 42l5 14q18 37 36 43q6 2 10.5 2.5t10.5 0.5q7 0 13 -1.5t8 -2.5v-193h105zM362 293q-13 0 -21 8.5t-8 18.5q0 12 7.5 20t21.5 8t21.5 -8t7.5 -20q0 -11 -8 -19t-21 -8zM126 292q-14 0 -21.5 8.5t-7.5 19.5q0 12 7.5 20.5t21.5 8.5t21.5 -8.5
t7.5 -20.5q0 -11 -7.5 -19.5t-21.5 -8.5z" />
    <glyph glyph-name="afii59724" unicode="&#xe2c;" horiz-adv-x="450" 
d="M433 400h-96v-21q-2 1 -3.5 2t-3.5 2q-6 5 -12 7q-15 6 -27.5 8.5t-28.5 2.5h-99q-18 0 -37 -9q-8 -5 -16.5 -9.5t-16.5 -9.5q-10 -5 -13.5 -10t-3.5 -12v-34q0 -8 7 -14q2 -2 5.5 -5t8.5 -5q10 -5 14.5 -6t18.5 -1h24h101q23 0 41 7q14 5 21 11q4 -4 7 -5q1 -3 1 -21
v-120l-58 120l-57 -123v44q0 37 -22 59q-24 25 -64 25q-39 0 -62 -26q-21 -23 -21 -56q0 -30 17 -53.5t47 -30.5v-117h105l57 141l59 -141h104v278q0 2 -3 22q-6 19 -22 29q-4 1 -7 2l-6 2l-1 1q0 1 -1 2q9 4 16 9q22 14 24.5 29t2.5 26zM288 335l-16 -6l-16 -6
q-14 -2 -31 -3t-37 -1q-25 0 -42.5 3t-17.5 9q0 2 2 4q6 9 26 12.5t47 3.5q31 0 57.5 -5t27.5 -11zM122 173q-14 0 -21 8t-7 20t7.5 20.5t20.5 8.5q14 0 21.5 -8.5t7.5 -20.5t-8 -20t-21 -8z" />
    <glyph glyph-name="afii59725" unicode="&#xe2d;" horiz-adv-x="377" 
d="M357 0v278q0 8 -0.5 17t-1.5 17q-5 38 -17 54q-9 13 -32.5 23.5t-49.5 10.5h-146q-9 0 -18 -3t-21 -12l-28 -22v-75q2 3 4 5q10 13 14.5 16t12.5 9q8 5 13 5h119q21 0 37 -11q5 -5 8 -20q1 -2 1 -6q0 -3 1 -8v-206h-105v40q30 7 45.5 29t15.5 50q0 35 -21 59
q-24 27 -65 27q-35 0 -57.5 -23.5t-22.5 -53.5v-200h314zM127 164q-14 0 -21.5 8.5t-7.5 19.5q0 12 7.5 20.5t21.5 8.5t21.5 -8.5t7.5 -20.5q0 -11 -7.5 -19.5t-21.5 -8.5z" />
    <glyph glyph-name="afii59726" unicode="&#xe2e;" horiz-adv-x="377" 
d="M361 400h-96v-18q-3 1 -7 3q-10 5 -16 7.5t-9 3.5q-15 4 -36 4h-88q-8 0 -17.5 -3t-22.5 -12q-10 -7 -17 -18t-7 -18l-1 -18q0 -11 6 -18q4 -5 14.5 -13l10.5 -8q7 -4 16 -4h74q23 0 57 10q6 2 13.5 4t17.5 5v-29v-206h-105v40q30 7 45.5 29t15.5 50q0 35 -21 59
q-24 27 -65 27q-35 0 -57.5 -23.5t-22.5 -53.5v-200h314v278q0 20 -6 32t-18 19q-4 1 -7 2t-7 2q-1 1 -1 3q3 2 5.5 3t4.5 2q19 12 27 24q5 7 5.5 16.5t0.5 18.5zM205 348q0 -8 -19 -13t-42 -5q-20 0 -33.5 3.5t-13.5 11.5q0 9 16.5 14t39.5 5q22 0 37 -4.5t15 -11.5z
M127 164q-14 0 -21.5 8.5t-7.5 19.5q0 12 7.5 20.5t21.5 8.5t21.5 -8.5t7.5 -20.5q0 -11 -7.5 -19.5t-21.5 -8.5z" />
    <glyph glyph-name="afii59727" unicode="&#xe2f;" horiz-adv-x="343" 
d="M322 400h-81q-1 0 -4 -12.5t-4 -15.5q-8 -16 -24 -17h-6q-7 24 -27 37.5t-52 13.5q-38 0 -60 -24q-19 -19 -19 -51q0 -31 21 -54t59 -23l42 9q12 4 22.5 9.5t20.5 12.5q5 4 11.5 8.5t14.5 10.5q5 2 10 5q-43 -48 -58.5 -72.5t-15.5 -42.5v-194h104v196q2 13 3.5 22.5
t3.5 16.5q10 41 21 61q9 15 14 37t5 52q0 15 -1 15zM127 304q-14 0 -21.5 8.5t-7.5 20.5q0 11 7.5 19.5t21.5 8.5t21.5 -8.5t7.5 -19.5q0 -12 -7.5 -20.5t-21.5 -8.5z" />
    <glyph glyph-name="afii59728" unicode="&#xe30;" horiz-adv-x="351" 
d="M329 332l-83 30q-1 -11 -3 -19q-4 -21 -11 -31.5t-20 -19.5q-2 -2 -4.5 -3.5t-6.5 -3.5q5 20 5 34q0 36 -21.5 57.5t-63.5 21.5q-38 0 -60 -25q-21 -23 -21 -57q0 -32 20 -58q22 -28 62 -34q3 0 11 -0.5t18 -0.5q14 0 26.5 1t24.5 3q17 2 31 6.5t27 9.5q33 14 59 65
q2 6 5 12t5 12zM331 104l-83 30q-1 -11 -3 -19q-4 -21 -11 -31.5t-20 -19.5q-2 -2 -4.5 -3.5t-6.5 -3.5q5 18 5 34q0 36 -22.5 57.5t-62.5 21.5q-38 0 -60 -25q-21 -23 -21 -57q0 -33 21 -58q22 -28 61 -34q7 0 13 -0.5t15 -0.5q28 0 51 4q16 3 30.5 6t28 10t26 19t25.5 32
q5 10 9 19t9 19zM126 284q-15 0 -22.5 9t-7.5 21q0 11 7 19.5t21 8.5q15 0 22.5 -9t7.5 -21q0 -11 -7 -19.5t-21 -8.5zM128 56q-14 0 -21.5 8.5t-7.5 20.5t7.5 20.5t21.5 8.5t21.5 -9t7.5 -20q0 -12 -7.5 -20.5t-21.5 -8.5z" />
    <glyph glyph-name="afii59729" unicode="&#xe31;" 
d="M125 584h-81q-8 -9 -15 -18t-15 -17q-44 -39 -117 -44h-15q22 18 22 42t-22 41t-55 17q-28 0 -46 -21t-18 -49q0 -15 6 -28q13 -29 45 -39q40 -15 113 -15q56 0 109 34q42 27 70 63q5 8 9.5 17t9.5 17zM-169 515q-25 0 -25 25q0 10 6.5 17t18.5 7t19 -7.5t7 -16.5
q0 -25 -26 -25z" />
    <glyph glyph-name="afii59730" unicode="&#xe32;" horiz-adv-x="261" 
d="M241 0v308q-1 15 -3 25q-6 26 -15 38q-14 17 -31.5 23t-42.5 6h-44q-9 1 -21 -2.5t-23 -9t-19 -12t-9 -12.5v-74q4 6 5 8q7 9 11 10q5 2 10 5t10 5q7 3 10 3h29q16 0 24 -21q5 -15 5 -36q-1 -6 -1 -10v-5v-249h105z" />
    <glyph glyph-name="afii59731" unicode="&#xe33;" horiz-adv-x="261" 
d="M-75 465q34 0 54 18q16 16 16 42q0 28 -19.5 49t-51.5 21q-31 0 -52 -22q-18 -20 -18 -47q0 -25 17 -42q19 -19 54 -19zM241 0v308q-1 15 -3 25q-6 26 -15 38q-14 17 -31.5 23t-42.5 6h-44q-9 1 -21 -2.5t-23 -9t-19 -12t-9 -12.5v-74q4 6 5 8q7 9 11 10q5 2 10 5t10 5
q7 3 10 3h29q16 0 24 -21q5 -15 5 -36q-1 -6 -1 -10v-5v-249h105zM-73 505q-11 0 -17 7.5t-6 16.5q0 10 6 17t17 7t17 -7t6 -17t-6.5 -17t-16.5 -7z" />
    <glyph glyph-name="afii59732" unicode="&#xe34;" 
d="M-20 469v40q-8 4 -17 8t-17 8q-42 18 -78 30q-50 15 -87 15h-10q-6 0 -11 -1q-27 -5 -61 -21q-13 -7 -25.5 -14t-25.5 -15l-21 -15l12 -35h341zM-121 505h-159q4 2 7 4.5t7 4.5q18 10 28 11q10 2 20 2q25 0 67 -11q8 -3 15 -6t15 -5z" />
    <glyph glyph-name="afii59733" unicode="&#xe35;" 
d="M-20 469v112h-105v-29q-54 18 -95 18h-10t-10 -1q-27 -5 -61 -21q-13 -7 -25.5 -14t-25.5 -15l-21 -15l12 -35h341zM-121 505h-159q4 2 7 4.5t7 4.5q18 10 28 11q5 1 10 1.5t12 0.5q25 0 66 -11q8 -3 15 -6t14 -5z" />
    <glyph glyph-name="afii59734" unicode="&#xe36;" 
d="M-8 557q0 22 -17 37.5t-40 15.5q-22 0 -37.5 -17t-15.5 -40q0 -6 1 -7q-9 5 -18.5 9t-19.5 8q-30 8 -57 8q-8 0 -15 -0.5t-14 -1.5q-36 -4 -90 -35q-8 -5 -19 -12.5t-24 -17.5l12 -35h341v40l-9 3q10 8 16 20t6 25zM-63 530q-11 0 -17 7t-6 16q0 10 6 17t17 7t17 -7
t6 -17q0 -9 -6 -16t-17 -7zM-122 505h-159q4 2 7 4.5t7 4.5q18 10 28 11q5 1 10 1.5t12 0.5q25 0 66 -11q8 -3 15 -6t14 -5z" />
    <glyph glyph-name="afii59735" unicode="&#xe37;" 
d="M-20 469v116h-52v-54l-21 10v44h-57v-26q-44 11 -71 11h-9q-5 0 -10 -1q-27 -5 -61 -21q-13 -7 -25.5 -14t-25.5 -15l-21 -15l12 -35h341zM-121 505h-159q4 2 7 4.5t7 4.5q18 10 28 11q5 1 10 1.5t12 0.5q25 0 66 -11q8 -3 15 -6t14 -5z" />
    <glyph glyph-name="afii59736" unicode="&#xe38;" 
d="M-19 -200v112q0 27 -18.5 42t-50.5 15t-51 -22q-18 -20 -18 -48q0 -23 14 -40q17 -17 45 -17v-42h79zM-83 -122q-12 0 -18.5 7.5t-6.5 17.5t6.5 17.5t18.5 7.5q25 0 25 -25q0 -10 -6.5 -17.5t-18.5 -7.5z" />
    <glyph glyph-name="afii59737" unicode="&#xe39;" 
d="M-19 -200v172h-84v-111h-33v51q0 24 -19 40.5t-50 16.5q-30 0 -48 -21q-16 -17 -16 -45q0 -24 15 -41t43 -17v-45h192zM-200 -122q-12 0 -19 7.5t-7 17.5q0 25 26 25q25 0 25 -25q0 -10 -6.5 -17.5t-18.5 -7.5z" />
    <glyph glyph-name="afii59738" unicode="&#xe3a;" 
d="M-74 -168q26 0 41 18q13 14 13 38q0 22 -13 38q-15 17 -41 17q-27 0 -42 -17q-13 -14 -13 -38q0 -23 14.5 -39.5t40.5 -16.5z" />
    <glyph glyph-name="afii59743" unicode="&#xe3f;" horiz-adv-x="468" 
d="M437 137q0 40 -21.5 70t-58.5 42q26 12 43.5 39t17.5 57q0 31 -14 57t-40 40q-16 9 -42 14t-51 5v103h-64v-101h-194v-56l14 -2q25 -5 32 -18q5 -10 5 -33v-13v-219q0 -40 -7 -50q-7 -9 -44 -16v-56l194 -1v-88h64v89q41 0 58 3q47 8 77.5 45t30.5 89zM310 336
q0 -24 -10 -38.5t-29 -14.5v111q14 0 26.5 -16.5t12.5 -41.5zM207 279h-32v76v10q0 12 2 18t5 8q7 6 18 6h7v-118zM319 141q0 -67 -48 -71v143q22 0 35 -18.5t13 -53.5zM207 66q-6 0 -12 1.5t-12 6.5q-6 6 -7 11.5t-1 23.5v107h32v-150z" />
    <glyph glyph-name="afii59744" unicode="&#xe40;" horiz-adv-x="226" 
d="M148 155v245h-105v-292q0 -46 13 -71q19 -39 70 -39q41 0 62 25q20 22 20 55q0 30 -17 53.5t-43 23.5zM133 48q-13 0 -21 8.5t-8 20.5t7.5 20.5t21.5 8.5t21.5 -8.5t7.5 -20.5t-8 -20.5t-21 -8.5z" />
    <glyph glyph-name="afii59745" unicode="&#xe41;" horiz-adv-x="428" 
d="M350 155v245h-105v-292q0 -46 13 -71q19 -39 70 -39q41 0 63 25q19 20 19 55q0 30 -17 53.5t-43 23.5zM148 155v245h-105v-292q0 -46 13 -71q19 -39 70 -39q41 0 62 25q20 22 20 55q0 30 -17 53.5t-43 23.5zM326 51q-13 0 -20.5 8.5t-7.5 20.5t7.5 20.5t20.5 8.5
q14 0 21.5 -9t7.5 -20q0 -12 -7.5 -20.5t-21.5 -8.5zM133 48q-14 0 -21.5 8.5t-7.5 20.5t8 20.5t21 8.5t20.5 -9t7.5 -20q0 -12 -7.5 -20.5t-20.5 -8.5z" />
    <glyph glyph-name="afii59746" unicode="&#xe42;" horiz-adv-x="262" 
d="M255 442v66v2q-5 -9 -25 -9q-7 -1 -18.5 2t-25.5 6.5t-29.5 7.5t-31.5 4q-19 0 -37 -4.5t-32 -10.5q-7 -3 -16 -7.5t-16.5 -8.5t-12.5 -7.5t-5 -4.5v-22q16 -7 29 -11q20 -10 25.5 -21.5t5.5 -40.5q0 -6 -0.5 -9.5t-0.5 -6.5v-260q0 -46 13 -71q19 -39 70 -39q40 0 62 25
q19 20 19 55q0 30 -16.5 53.5t-42.5 23.5v213q0 24 -23 56q-17 25 -42 36q-4 1 -4 3q0 3 11.5 6t24.5 3q12 0 20 -3q16 -8 29.5 -13.5t25.5 -9.5q18 -5 31 -5q6 0 12 2zM146 50q-14 0 -21 8.5t-7 20.5t7.5 21t20.5 9q14 0 21.5 -9t7.5 -21t-7.5 -20.5t-21.5 -8.5z" />
    <glyph glyph-name="afii59747" unicode="&#xe43;" horiz-adv-x="276" 
d="M216 471q3 7 3 13q0 24 -45 38q-33 10 -75 10q-36 0 -63.5 -16t-27.5 -41q0 -3 2 -11q6 -21 24 -31.5t42 -10.5q10 0 13 1q18 1 32 12t14 28q0 13 -7 26q-1 4 2 4q4 0 14 -3.5t12 -3.5q13 -4 13 -14q0 -13 -26 -39q-19 -17 -37 -28q-6 -4 -10 -17q-2 -5 -3 -12v-270
q0 -46 12 -71q19 -39 71 -39q40 0 62 25q19 20 19 55q0 30 -15 53q-17 24 -44 24v223q0 5 6 43q6 39 12 52zM74 445q-18 0 -28 8.5t-10 20.5t10 21t28 9q19 0 29 -9t10 -21t-10 -20.5t-29 -8.5zM176 109q13 0 20.5 -8.5t7.5 -20.5q0 -13 -8 -22t-22 -9t-21 8t-7 21
q0 12 8 21.5t22 9.5z" />
    <glyph glyph-name="afii59748" unicode="&#xe44;" horiz-adv-x="246" 
d="M221 467l-40 45h-83q-8 0 -16 -11q-17 -20 -18 -18q-17 12 -33.5 19t-25.5 7q-5 0 -5 -2v-60q4 0 7 1q10 3 18 3q23 0 34 -28q4 5 8 9.5t9 9.5q19 25 33 25h18q2 0 2 -8q0 -9 -4 -16q-3 -5 -9 -8.5t-12.5 -8t-14.5 -11t-15 -18.5l-4.5 -9t-6.5 -12v-271q0 -46 13 -71
q19 -39 70 -39q41 0 62 25q20 23 20 55q0 30 -17 53.5t-43 23.5v216q1 11 3 19q5 21 10 31t19 24q22 22 21 25zM144 49q-14 0 -21 8t-7 20t7.5 20.5t20.5 8.5q14 0 21.5 -8.5t7.5 -20.5t-8 -20t-21 -8z" />
    <glyph glyph-name="afii59749" unicode="&#xe45;" horiz-adv-x="261" 
d="M241 -82v392v13q0 6 -1 10q-5 28 -17 40q-14 16 -31.5 22.5t-42.5 6.5h-35q-9 0 -24 -3t-26 -8q-11 -4 -21 -12.5t-10 -12.5v-74q2 2 3.5 4t2.5 3q7 9 10 11q18 13 30 13h29q16 0 24 -21q5 -15 5 -36q-1 -6 -1 -10v-5v-333h105z" />
    <glyph glyph-name="afii59750" unicode="&#xe46;" horiz-adv-x="352" 
d="M332 306v39q0 56 -49 56h-8q-26 0 -45 -17q-8 -8 -13.5 -15t-9.5 -14q-20 33 -45 44q-14 7 -40 7q-35 0 -56 -24q-18 -21 -18 -51q0 -31 18 -52q19 -24 55 -27q3 -1 10 -1q24 0 41 12t21 32l13 -18l20 44q2 -1 3 -1t3 -1q5 -13 5 -34q0 -18 -5 -23q-42 -35 -55 -74
q-1 -3 -2 -7t-2 -9v-252h105v228q0 24 5 49l2 8t3 9l24 39q20 37 20 53zM126 295q-16 0 -25 10.5t-9 24.5t9 24.5t25 10.5t25.5 -10.5t9.5 -24.5q0 -15 -9.5 -25t-25.5 -10z" />
    <glyph glyph-name="afii59751" unicode="&#xe47;" 
d="M10 590l-33 56q-4 -2 -7.5 -4t-5.5 -4q-14 -7 -28.5 -10t-39.5 -3h-6h-35q-29 0 -52 -2t-46 -10q-24 -7 -42 -27.5t-24 -48.5q-1 -1 -1 -7q0 -28 39 -46q31 -15 65 -15q16 0 20 4q3 1 -2 9q-13 16 -11 21q1 6 12 6t26 -6.5t17 -10.5q7 -13 32 -19q7 -2 21 -3q23 0 36 16
q12 13 12 36q0 24 -13 38q-15 17 -40 17q-19 0 -33.5 -9t-15.5 -22q-4 2 -7 3t-5 2q-15 6 -27 6q-5 0 -9 -0.5t-8.5 -3.5t-10 -11t-12.5 -23q-4 -12 -9 -10q-21 7 -21 25q0 19 23.5 36t57.5 17h13q34 -4 57.5 -5.5t43.5 -1.5q38 0 61 6l4 2zM-96 500q-11 0 -17 6.5t-6 15.5
q0 10 6.5 16.5t16.5 6.5q11 0 16.5 -6.5t5.5 -16.5q0 -8 -5.5 -15t-16.5 -7z" />
    <glyph glyph-name="afii59752" unicode="&#xe48;" 
d="M-20 623v97h-105v-97h105z" />
    <glyph glyph-name="afii59753" unicode="&#xe49;" 
d="M28 723h-56q-2 -7 -3 -12t-2 -9q-8 -25 -19 -34t-35 -15l-21 -3q14 13 18.5 25.5t4.5 32.5q0 21 -13.5 31.5t-35.5 10.5t-34 -14t-12 -32q0 -17 10 -28.5t29 -11.5h7q3 0 3 -5q0 -6 -6 -10q-18 -14 -18 -20q0 -12 42 -12q8 0 18.5 0.5t20 1.5t17.5 2.5t11 2.5
q39 13 61 47q15 24 15 45q0 7 -2 7zM-134 688q-19 0 -19 19q0 7 5 12.5t14 5.5t14 -5.5t5 -12.5q0 -19 -19 -19z" />
    <glyph glyph-name="afii59754" unicode="&#xe4a;" 
d="M32 740h-36q-1 -6 -1 -11q0 -4 -1 -8q-3 -21 -6 -33q-7 -22 -16 -31l-1 1q5 9 7 17t2 17q0 15 -7 28q-5 8 -23 20q-17 10 -19 8q1 0 -9 -15q-11 -15 -21 -15q-11 0 -23 15q-3 3 -10 15q-3 3 -30 -25q-29 -31 -29 -55q0 -38 27 -51q9 -5 28 -6q17 0 26 11t9 26
q0 13 -8.5 23t-23.5 10q-8 0 -18 -5q-2 -1 -3.5 -2t-3.5 -3q2 5 3 9t2 6q8 15 20 17q8 2 18.5 -8t16.5 -11q15 -2 28 16q2 1 3 1t3 1q0 -1 2 -5v-8q0 -16 -9 -29q-4 -6 -11 -13q-1 -1 -3 -2.5t-4 -3.5v-22h52q35 0 55 55q2 8 5 18t5 23q1 5 2 11t2 14zM-133 662
q8 0 11.5 -4.5t3.5 -10.5t-4 -10.5t-12 -4.5q-14 0 -14 14q0 6 4 11t11 5z" />
    <glyph glyph-name="afii59755" unicode="&#xe4b;" 
d="M15 651v57h-35v34h-72v-34h-37v-57h37v-33h72v33h35z" />
    <glyph glyph-name="afii59756" unicode="&#xe4c;" 
d="M108 639v73q-9 -4 -17 -6q-23 -6 -57 -6q-9 0 -27 2t-44 6q-23 3 -39 3h-16q-31 -3 -51 -23.5t-20 -51.5q0 -7 1 -9q3 -29 33 -42q12 -3 29 -6q24 0 37 16q12 13 12 33q0 13 -6.5 25t-18.5 17q-3 1 -0.5 3.5t11.5 2.5h5q13 -3 29 -11q30 -17 37 -19q21 -6 37 -9t34 -3
q6 0 20 3q2 0 4.5 0.5t6.5 1.5zM-103 604q-10 0 -16 7.5t-6 16.5q0 25 22 25q12 0 17.5 -7.5t5.5 -17.5q0 -9 -6 -16.5t-17 -7.5z" />
    <glyph glyph-name="afii59757" unicode="&#xe4d;" 
d="M-75 465q34 0 54 18q16 16 16 42q0 28 -19.5 49t-51.5 21q-31 0 -52 -22q-18 -20 -18 -47q0 -25 17 -42q19 -19 54 -19zM-73 505q-11 0 -17 7.5t-6 16.5q0 10 6 17t17 7t17 -7t6 -17t-6.5 -17t-16.5 -7z" />
    <glyph glyph-name="afii59758" unicode="&#xe4e;" 
d="M101 628l-3 37q-11 2 -19.5 2.5t-15.5 1.5q-20 2 -35.5 3t-26.5 1q-36 0 -67 -4t-53.5 -11.5t-36 -18t-14.5 -22.5q-2 -14 25 -27q15 -8 25 -12q-13 4 -62 -9q-35 -11 -48 -33q-5 -8 -5 -16q0 -23 37 -36q33 -12 78 -12q33 0 66 11l22 12l22 12l-25 24q1 -1 2.5 -2
t1.5 -3q0 -5 -12.5 -10.5t-43.5 -10.5q-17 -3 -32 -3q-19 0 -31.5 4.5t-12.5 12.5q0 6 4 10q13 16 27 19q11 1 21 2l20 2q11 2 23 3t26 2q28 1 28 4l-5 27l-20 4l-20 4q-19 4 -21 10q-1 3 -1 7q0 17 32 22q7 1 22 1.5t38 0.5q8 0 25.5 -2t45.5 -6q5 -1 9 -1h10z" />
    <glyph glyph-name="afii59759" unicode="&#xe4f;" horiz-adv-x="345" 
d="M278 107q36 45 36 101q0 37 -14.5 69t-43.5 55q-43 37 -101 37q-35 0 -68 -15.5t-56 -44.5q-37 -43 -37 -100q0 -35 15.5 -68t44.5 -56q22 -19 47.5 -27.5t53.5 -8.5q35 0 67.5 15t55.5 43zM239 124q-35 -36 -84 -36q-23 -2 -44.5 7.5t-38 26t-26 38.5t-8.5 46
q0 46 32 81q36 36 85 36q46 0 81 -33q37 -36 37 -84q0 -22 -9 -43.5t-25 -38.5zM200 242q-15 18 -40 18q-20 0 -37 -14q-17 -15 -17 -40q0 -23 14 -37q16 -18 41 -18q20 0 36 14q16 16 16 40q0 23 -13 37z" />
    <glyph glyph-name="afii59760" unicode="&#xe50;" horiz-adv-x="412" 
d="M388 169q0 74 -49 120q-51 48 -135 48q-88 0 -138.5 -45t-50.5 -123q0 -75 55 -123q56 -47 137 -47q80 0 130 46q51 46 51 124zM304 169q0 -41 -33 -68q-28 -25 -67 -25q-46 0 -74 24q-30 25 -30 66q0 45 28 70t73 25q43 0 73 -25t30 -67z" />
    <glyph glyph-name="afii59761" unicode="&#xe51;" horiz-adv-x="470" 
d="M450 165q0 39 -16 70t-45.5 52.5t-71.5 33.5t-93 12q-80 0 -129 -40q-55 -43 -55 -128q0 -82 48 -128q43 -43 110 -43q3 0 7.5 0.5t10.5 0.5q42 5 70 41q25 34 25 80q0 36 -20.5 64.5t-57.5 28.5q-33 0 -54 -22q-19 -20 -23 -48q-1 -3 -1 -15q0 -30 15 -52q4 -7 16 -17
q-38 12 -57 36q-22 26 -22 72q0 55 39 84q33 24 81 24q62 0 103 -33q42 -35 42 -93q0 -42 -19 -80q-7 -13 -16 -25.5t-20 -23.5q-17 -17 -19 -17l63 1q6 0 23 12q27 18 43 49q23 44 23 104zM233 86q-14 0 -22 11t-8 26t8 25.5t22 10.5q15 0 22.5 -10.5t7.5 -25.5t-8 -26
t-22 -11z" />
    <glyph glyph-name="afii59762" unicode="&#xe52;" horiz-adv-x="436" 
d="M411 0v231q0 38 -7 56q-15 42 -62 42q-29 0 -51 -16l-8 -8q-12 8 -17 11q-19 12 -25.5 13t-12.5 1q-18 0 -33 -9q-12 -7 -22 -19q-17 -21 -24 -46t-7 -55q0 -58 29 -93q27 -32 67 -32h8q31 3 51 27q18 21 18 51q0 31 -17 54q-20 24 -52 24q-8 0 -15 -1.5t-18 -8.5
q-1 1 -1 7q0 15 5 28q6 17 21 23q10 4 26 -15q6 -8 14 -20q4 5 6.5 9.5t4.5 7.5q13 16 24 16q10 1 16 -9.5t6 -38.5q0 -6 -0.5 -11.5t-0.5 -8.5v-166h-176q-21 0 -33 20q-1 4 -4 4v6v300v14t-1 8.5t-2 8t-4 12.5q-2 6 -8.5 17t-9.5 11h-78q4 -6 6 -8q16 -20 17 -30
q3 -20 3 -33v-5v-56v-226q0 -28 3 -37q4 -9 21 -25q15 -13 26.5 -19t27.5 -6h289zM248 186q13 0 20 -9.5t7 -22.5t-8 -23.5t-21 -10.5t-20 9.5t-7 22.5q0 14 8 24t21 10z" />
    <glyph glyph-name="afii59763" unicode="&#xe53;" horiz-adv-x="396" 
d="M374 0v240q0 45 -25.5 65t-74.5 20q-15 0 -38 -17q-4 -2 -8.5 -6.5l-10.5 -10.5q-8 13 -13 18q-17 17 -44 17q-5 0 -9 -1q-21 0 -39.5 -9t-32.5 -25.5t-23 -39t-12 -49.5q-1 -11 -1.5 -21.5t-0.5 -18.5q0 -78 38 -125q32 -38 76 -44q7 -1 13 -1h11q52 0 77 34
q14 18 18 52v12q0 31 -11 53q-16 31 -56 31q-34 0 -53 -25q-17 -22 -17 -52q0 -11 3 -20t9 -22q-14 10 -21 21q-20 32 -20 86q0 37 14 63.5t38 34.5q2 1 8 1q15 0 33 -15q2 -2 5.5 -6t8.5 -9q4 5 7 8.5t5 5.5q15 15 26 18q4 1 8 1q17 0 26 -13t9 -30v-221h77zM208 62
q-13 0 -20 10.5t-7 23.5q0 14 7 24t20 10q14 0 20.5 -9.5t6.5 -24.5q0 -14 -7 -24t-20 -10z" />
    <glyph glyph-name="afii59764" unicode="&#xe54;" horiz-adv-x="428" 
d="M423 451h-89q3 -4 5 -7.5t4 -5.5q9 -18 9 -33q0 -34 -38 -54q-48 -27 -160 -27q-49 0 -77 -36q-21 -27 -32 -80q-5 -25 -5 -48q0 -27 6.5 -52.5t17.5 -46t27 -35.5t35 -22q16 -6 36 -6q51 0 77 39q5 -4 9.5 -6.5t8.5 -4.5q16 -9 30 -15q19 -7 32.5 -9t28.5 -2q18 0 18 2
v54q-10 0 -23 1t-28 6q-17 8 -29 17l-6 9q20 8 31 27.5t11 42.5q0 28 -17 50q-18 22 -51 22q-41 0 -61 -32q-13 -22 -13 -53q0 -36 17 -59l4 -4l4 -4q-11 -9 -15 -11q-10 -5 -18 -5t-18 6t-19 17.5t-15 28.5t-6 38q0 45 23 80q24 36 61 36q92 0 150 26q47 23 66 59
q14 26 14 61q0 11 -3 26q0 2 -2 10zM254 119q-13 0 -19.5 10t-6.5 24t6.5 24t19.5 10t19.5 -10t6.5 -23q0 -14 -7 -24.5t-19 -10.5z" />
    <glyph glyph-name="afii59765" unicode="&#xe55;" horiz-adv-x="414" 
d="M412 448h-89q3 -4 5 -10q7 -24 7 -48t-11 -40q-15 -18 -47 -18q2 4 2.5 7.5t1.5 5.5q4 15 4 31q0 25 -12 42q-15 21 -50 24q-31 0 -51 -23q-18 -20 -18 -46q0 -14 6 -26t16 -20q-5 -4 -11 -7t-11 -6q-42 -14 -63 -31q-38 -32 -48 -81q-6 -32 -6 -56q0 -53 23 -90
q20 -33 59 -52q11 -5 21.5 -7t20.5 -2q27 0 55 17q5 2 10 6.5t11 9.5q9 -7 23 -12l28 -8q32 -8 56 -8q15 0 15 2v54h-6q-14 0 -32.5 3.5t-32.5 12.5q-6 3 -11 8q18 9 28 28.5t10 42.5q0 31 -17 53q-20 24 -52 24t-52 -20q-21 -23 -21 -56q-1 -3 -1 -12q0 -23 11 -47
q4 -9 10 -18q-9 -7 -14 -9q-9 -3 -16 -3q-9 0 -17.5 5t-17.5 17q-21 25 -21 64q0 46 25 80q27 37 67 37q86 0 141 29q42 22 62 62q14 30 14 63q0 12 -1 17.5t-3 10.5zM223 336q-13 0 -20 10t-7 24t7 24t20 10t20 -10t7 -24t-7.5 -24t-19.5 -10zM246 122q-13 0 -20 9.5
t-7 21.5q0 13 7 22t20 9t20 -9t7 -22q0 -12 -7.5 -21.5t-19.5 -9.5z" />
    <glyph glyph-name="afii59766" unicode="&#xe56;" horiz-adv-x="390" 
d="M374 180q0 88 -42 126q-32 28 -91 28q-24 0 -72 -9q-18 -3 -26 -3q-7 0 -7 3q1 5 1.5 11t0.5 13q0 38 -19 80q-4 7 -8.5 15.5t-11.5 19.5h-90l15 -30q21 -39 33 -78q18 -57 18 -110q12 5 22 8t18 5q45 13 83 13q37 0 59 -13q15 -9 27.5 -39t12.5 -63q0 -32 -14 -57
q-17 -30 -51 -43q-17 -7 -36 -7q-18 0 -30 6l-6 6q18 1 28.5 17t10.5 56q0 32 -17 52q-18 21 -52 21q-33 0 -52 -21q-17 -20 -21 -48q0 -3 -1 -6v-8q0 -48 28 -82q36 -46 108 -46q80 0 130 47q52 49 52 136zM133 167q13 0 19.5 -9t6.5 -22q0 -14 -7.5 -24t-21.5 -10
q-13 0 -19.5 9t-6.5 22q0 14 7.5 24t21.5 10z" />
    <glyph glyph-name="afii59767" unicode="&#xe57;" horiz-adv-x="482" 
d="M511 467h-83q-13 -18 -18 -29q-18 -42 -18 -105q0 -16 1.5 -37.5t3.5 -39.5q3 -18 4 -26.5t1 -27.5q0 -82 -38 -114q-4 -1 -12 -1q1 2 4.5 8.5t8.5 17.5q5 18 5 47q0 10 -0.5 21t-1.5 22q-6 63 -32.5 94.5t-77.5 31.5q-20 0 -41 -18q-4 -3 -8 -7.5t-9 -10.5q-2 6 -5 10.5
l-5 7.5q-15 17 -42 17q-51 0 -79 -37q-27 -34 -31 -90q-1 -11 -1.5 -21t-0.5 -18q0 -77 36 -122q34 -45 92 -45q49 0 78 45q23 38 23 86q0 28 -17 51q-19 25 -52 25q-34 0 -50 -24q-14 -20 -14 -52q0 -28 14.5 -46t37.5 -21q-1 -2 -2 -2.5t-2 -1.5q-5 -3 -13 -3q-7 0 -12 1
q-27 7 -42 37.5t-15 69.5q0 30 10 56t29 40q7 4 14 4q15 0 32 -18q2 -3 5.5 -7.5t8.5 -10.5q4 5 7.5 9.5t5.5 7.5q16 16 31 16h6q30 -10 41 -33q7 -15 7 -60q0 -4 1 -8v-12q0 -52 -30 -121q-4 -13 -5 -22q49 0 69 4q59 12 95 51q48 52 48 151q0 1 -0.5 19.5t-2.5 31.5
q-3 28 -3 52q0 49 12 91q8 29 21 50q9 16 11 16zM200 100q-13 0 -21 11.5t-8 25.5q0 13 6.5 22t18.5 9q13 0 21 -11t8 -26q0 -13 -6.5 -22t-18.5 -9z" />
    <glyph glyph-name="afii59768" unicode="&#xe58;" horiz-adv-x="436" 
d="M427 439h-81q2 -4 4 -7.5t3 -5.5q6 -17 6 -31q0 -31 -25 -49q-33 -24 -110 -24h-7q-6 0 -14.5 0.5t-18.5 1t-17 0.5q-49 0 -86 -31q-41 -35 -41 -86q-1 -10 -1 -20v-17q0 -61 23 -105q16 -33 46 -52q22 -13 38 -13q7 0 7 2q0 17 9 38q10 21 19 21q4 0 5 -4
q7 -12 19.5 -23.5t26.5 -20t29.5 -13.5t30.5 -5q10 0 15 1q39 7 60 45q17 31 17 70q0 38 -11 62q-20 36 -65 36q-32 0 -51 -22q-16 -19 -19 -52q0 -21 7 -40t21 -30q-1 -1 -2 -1t-2 -1q-26 6 -33 16q-16 17 -21 26q-12 22 -12 57q0 11 -6 11q-8 0 -23 -17q-11 -13 -16.5 -20
t-8 -13t-4.5 -12l-6 -18q-1 -7 -5 -7q-6 0 -11.5 23t-5.5 51q0 17 2.5 31.5t8.5 23.5q12 19 26 30q19 15 49 15q96 0 155 21q47 16 71 49q17 25 17 56q0 15 -4 31q-1 5 -3 10t-5 12zM308 97q-13 0 -20 10.5t-7 23.5q0 14 7 24t20 10t20 -9.5t7 -24.5q0 -13 -7.5 -23.5
t-19.5 -10.5z" />
    <glyph glyph-name="afii59769" unicode="&#xe59;" horiz-adv-x="464" 
d="M465 362q0 17 -8 44q-4 11 -9 23l-78 2q7 -6 13 -14q12 -18 12 -33t-12 -27q-7 -7 -19 -7q-6 0 -22.5 4.5t-26.5 4.5q-16 0 -26 -21q-4 -7 -7 -17.5l-7 -24.5q-1 -2 1 -6l-5 5q-8 6 -21 13t-32 15q-21 8 -39 8q-53 0 -97 -47q-42 -47 -42 -111q0 -39 9 -72t25 -57
t39 -37.5t51 -13.5q11 0 25 3q39 7 59 40q18 28 18 76q0 13 -2 32.5t-19 36.5q-20 18 -50 18q-31 0 -50 -24q-18 -21 -18 -51t17.5 -51t50.5 -21q6 0 9 1t7 2l-4 -6q-6 -6 -14 -6q-52 0 -74 33q-16 23 -16 67q0 11 1 22t2 19q3 35 27 55t55 20q7 0 13 -1l12 -2
q36 -11 52 -47l10 -32l10 -32q10 -32 19.5 -59t17.5 -49q5 -12 9 -21t8 -16h76l-3 5.5t-8 16.5q-6 14 -12.5 29.5t-13.5 33.5q-9 23 -17.5 48.5t-16.5 52.5q-3 10 -5.5 19t-4.5 17q-7 27 -7 45t9 27t30 9t56 -9q16 -3 29 21q14 25 14 47zM195 93q-13 0 -20 9t-7 22t7.5 22
t19.5 9q13 0 19.5 -9t6.5 -22q0 -12 -7 -21.5t-19 -9.5z" />
    <glyph glyph-name="afii59770" unicode="&#xe5a;" horiz-adv-x="514" 
d="M492 400h-90q1 -13 3 -26t2 -23q0 -24 -11 -45q-4 -8 -11 -19t-18 -27q-27 -39 -27 -66v-194h104v196q2 13 3.5 22.5t3.5 16.5q10 41 21 61q12 21 17 50q4 23 4 45q0 6 -1 9zM322 400h-81q-1 0 -4 -12.5t-4 -15.5q-8 -16 -24 -17h-6q-7 24 -27 37.5t-52 13.5
q-38 0 -60 -24q-19 -19 -19 -51q0 -31 21 -54t59 -23l42 9q12 4 22.5 9.5t20.5 12.5q5 4 11.5 8.5t14.5 10.5q5 2 10 5q-43 -48 -58.5 -72.5t-15.5 -42.5v-194h104v196q2 13 3.5 22.5t3.5 16.5q10 41 21 61q9 15 14 37t5 52q0 15 -1 15zM127 304q-14 0 -21.5 8.5t-7.5 20.5
q0 11 7.5 19.5t21.5 8.5t21.5 -8.5t7.5 -19.5q0 -12 -7.5 -20.5t-21.5 -8.5z" />
    <glyph glyph-name="afii59771" unicode="&#xe5b;" horiz-adv-x="1014" 
d="M988 178l-30 63q-9 -14 -15.5 -20t-21.5 -11q-10 -2 -14 -2q-15 0 -43 20q-27 21 -44 21q-6 0 -7 -1q-29 -5 -52 -41q-49 -79 -53 -79q-16 -3 -32 33q-1 1 -25 67q-13 37 -23 37q-9 0 -37 -63q-27 -62 -29 -62q-9 22 -18 43.5t-17 41.5q-17 42 -25 42q-10 0 -34 -62
q-23 -62 -30 -62q-11 0 -39 61q-29 62 -32 62q-5 0 -24 -46q-22 -55 -51 -85q-43 -46 -103 -46q-66 0 -104 35q-31 31 -31 79t30 86q31 40 82 45q14 2 18 2h12q35 0 61 -13q25 -11 32 -19l2 79q-8 5 -15.5 8.5t-13.5 5.5q-35 15 -69 15q-5 0 -12 -0.5t-12 -1.5
q-79 -13 -123 -70q-40 -52 -40 -134q0 -15 1.5 -31t3.5 -30q12 -64 71 -105q53 -38 118 -38q66 0 113 42q16 14 29 33.5t24 43.5q4 8 8 16.5t9 16.5q9 -14 14 -23t7 -11q18 -25 31 -31q6 -2 37 38q5 7 12.5 16.5t17.5 23.5q13 -24 21 -37.5t10 -17.5q20 -29 30 -25
q12 4 41 43q5 6 11 15l14 21q0 -3 18 -37q24 -42 46 -42q27 0 52 23q51 51 61 53q5 1 9 1.5t6 0.5q16 0 60 -26q19 -12 35 -12q8 0 16 3q21 8 33.5 18.5t22.5 29.5z" />
    <glyph glyph-name="endash" unicode="&#x2013;" horiz-adv-x="378" 
d="M350 195v79h-318v-79h318z" />
    <glyph glyph-name="emdash" unicode="&#x2014;" horiz-adv-x="601" 
d="M568 195v79h-536v-79h536z" />
    <glyph glyph-name="quoteleft" unicode="&#x2018;" horiz-adv-x="138" 
d="M108 414l-27 31q-5 -3 -8.5 -5t-5.5 -4q-16 -11 -21 -19q-12 -18 -16.5 -35.5t-4.5 -35.5q0 -7 1 -15.5t2 -10.5q14 -42 47 -42q22 0 34 15.5t12 36.5q0 15 -6.5 27.5t-17.5 19.5q-5 2 -12 2.5t-13 0.5q-2 0 -2 4q0 8 5 13q8 9 25 15q2 1 4 1t4 1zM75 311q-9 0 -13.5 6
t-4.5 14t4.5 14t13.5 6t14 -6t5 -14t-5 -14t-14 -6z" />
    <glyph glyph-name="quoteright" unicode="&#x2019;" horiz-adv-x="138" 
d="M116 402q-8 21 -17 30q-14 12 -30 12q-22 0 -34 -15.5t-12 -36.5q0 -29 24 -47q5 -3 11 -3h14q2 0 2 -5q0 -4 -5 -12q-8 -9 -25 -15q-2 -1 -4 -1t-4 -1l27 -31q10 5 14 9q16 11 21 19q12 18 16.5 35.5t4.5 35.5q0 7 -1 14.5t-2 11.5zM69 371q-8 0 -12.5 6t-4.5 14t4.5 14
t12.5 6q9 0 13 -6t4 -14t-4.5 -14t-12.5 -6z" />
    <glyph glyph-name="quotedblleft" unicode="&#x201c;" horiz-adv-x="260" 
d="M238 340q-3 18 -17 29t-36 11q1 4 1.5 9.5t4.5 11.5q8 12 27 16q2 1 4 1t4 1l-30 34q-12 -7 -15 -10q-16 -10 -22 -21q-14 -20 -19.5 -42t-5.5 -42q0 -6 1 -13.5t1 -9.5q6 -21 19 -33.5t33 -12.5q24 0 37.5 17t13.5 39q0 10 -1 15zM106 419l-30 34q-12 -7 -15 -10
q-17 -11 -23 -21q-13 -19 -18 -38.5t-5 -38.5q0 -3 1 -13.5t2 -16.5q7 -21 20 -33.5t32 -12.5q23 0 36.5 17.5t13.5 40.5q0 16 -6.5 30t-19.5 21q-6 2 -13.5 2.5t-14.5 0.5q-2 0 -2 4q0 6 5 16q5 8 22 14q2 1 6 2t9 2zM188 305q-9 0 -14.5 6.5t-5.5 15.5t5.5 15.5t14.5 6.5
q10 0 15 -6.5t5 -15.5t-5.5 -15.5t-14.5 -6.5zM70 305q-10 0 -15 6.5t-5 15.5t5.5 15.5t14.5 6.5q10 0 15 -6.5t5 -15.5t-5 -15.5t-15 -6.5z" />
    <glyph glyph-name="quotedblright" unicode="&#x201d;" horiz-adv-x="260" 
d="M230 405q-8 22 -19 33q-13 13 -33 13q-23 0 -36.5 -17t-13.5 -40q0 -35 26 -52q6 -3 13 -3h15q2 0 2 -5q0 -9 -7 -15q-10 -8 -28 -16q-2 -1 -4 -1q-1 0 -3 -1l30 -34q11 6 16 10q16 10 22 21q13 17 19 40q4 15 4 37q0 3 -1 13.5t-2 16.5zM112 405q-6 21 -19 33.5
t-33 12.5q-24 0 -39 -18q-12 -17 -12 -40q0 -9 1 -12q4 -19 17.5 -30t35.5 -11q1 -3 1 -8q0 -3 -0.5 -6t-3.5 -6q-9 -9 -23 -14q-3 -1 -6.5 -2t-8.5 -3l30 -34q12 7 15 10q18 13 22 21q14 20 20 44q5 22 5 39q0 16 -2 24zM178 371q-9 0 -14 6.5t-5 15.5t5 15.5t14 6.5
q10 0 14.5 -6.5t4.5 -15.5t-5 -15.5t-14 -6.5zM60 371q-10 0 -15 6.5t-5 15.5t5.5 15.5t14.5 6.5q10 0 15 -6.5t5 -15.5t-5 -15.5t-15 -6.5z" />
    <glyph glyph-name="bullet" unicode="&#x2022;" horiz-adv-x="189" 
d="M89 275q-40 0 -62 -22q-20 -20 -20 -49q0 -28 20 -48q22 -22 60 -22t61 23q21 19 21 49q0 27 -20 47q-22 22 -60 22z" />
    <glyph glyph-name="ellipsis" unicode="&#x2026;" horiz-adv-x="601" 
d="M163 55q0 28 -17 45t-42 17q-24 0 -40 -18t-16 -43q0 -27 17 -44t41 -17q23 0 40 18t17 42zM361 54q0 28 -17 45t-42 17q-24 0 -40 -18t-16 -43q0 -27 17 -44t41 -17q23 0 40 18t17 42zM561 53q0 28 -17 45t-42 17q-24 0 -40 -18t-16 -43q0 -27 17 -44t41 -17q23 0 40 18
t17 42z" />
    <glyph glyph-name="f700;" unicode="&#xf700;" horiz-adv-x="375" 
d="M365 372l-37 57l-23 -22q-10 -7 -63 -7h-33h-16q-10 0 -26 -1q-31 -1 -46 -6q-22 -8 -50 -27q-27 -18 -27 -24v-77q0 12 45 38q34 18 75 18q40 0 65 -13q31 -15 37 -46q7 -29 7 -51q0 -25 -9 -44.5t-30 -34.5l2 70q-5 32 -26 51q-22 22 -60 22q-39 0 -60 -25
q-19 -22 -19 -55q0 -36 21 -61q22 -28 60 -28v-106h114v54q0 21 21 50q49 67 54 88q6 28 6 51q0 43 -23 72q-16 19 -51 38q4 -1 10 -3q22 -7 42 -7q10 0 17.5 2.5t15.5 10.5q10 11 7 16zM152 218q14 0 21 -8.5t7 -19.5q0 -12 -8 -21t-22 -9t-21 8.5t-7 19.5q0 12 8 21t22 9z
" />
    <glyph glyph-name="f701;" unicode="&#xf701;" 
d="M-144 469v40q-8 4 -17 8t-17 8q-44 19 -78 30q-50 15 -86 15h-11q-6 0 -11 -1q-27 -5 -61 -21q-13 -6 -25.5 -13.5t-25.5 -15.5l-21 -15l12 -35h341zM-245 505h-159q4 2 7.5 4.5t6.5 4.5q18 10 28 11q10 2 20 2q25 0 67 -11q8 -3 15 -6t15 -5z" />
    <glyph glyph-name="f702;" unicode="&#xf702;" 
d="M-144 469v112h-105v-29q-27 9 -49.5 13.5t-44.5 4.5h-10q-6 0 -11 -1q-27 -5 -61 -21q-13 -6 -25.5 -13.5t-25.5 -15.5l-21 -15l12 -35h341zM-245 505h-159q4 2 7.5 4.5t6.5 4.5q16 9 26 11t24 2q25 0 66 -11q8 -3 15 -6t14 -5z" />
    <glyph glyph-name="f703;" unicode="&#xf703;" 
d="M-131 557q0 22 -17.5 37.5t-39.5 15.5t-37.5 -17t-15.5 -40q0 -6 1 -7q-9 5 -18.5 9t-19.5 8q-30 8 -57 8q-7 0 -15 -0.5t-14 -1.5q-26 -3 -62 -20q-24 -11 -50 -30l-21 -15l12 -35h341v40l-9 3q22 16 22 45zM-186 530q-11 0 -17 7t-6 16q0 10 6 17t17 7t17 -7t6 -17
q0 -9 -6 -16t-17 -7zM-245 505h-159q4 2 7.5 4.5t6.5 4.5q16 9 26 11t24 2q25 0 66 -11q8 -3 15 -6t14 -5z" />
    <glyph glyph-name="f704;" unicode="&#xf704;" 
d="M-144 469v116h-52v-54l-21 10v44h-57v-26q-44 11 -71 11h-9q-5 0 -10 -1q-27 -5 -61 -21q-13 -6 -25.5 -13.5t-25.5 -15.5l-21 -15l12 -35h341zM-245 505h-159q4 2 7.5 4.5t6.5 4.5q16 9 26 11t24 2q25 0 66 -11q8 -3 15 -6t14 -5z" />
    <glyph glyph-name="f705;" unicode="&#xf705;" 
d="M-144 469v97h-105v-97h105z" />
    <glyph glyph-name="f706;" unicode="&#xf706;" 
d="M-97 575h-56q-2 -7 -3 -12t-2 -9q-8 -25 -19 -34t-35 -15l-21 -3q14 13 18.5 25.5t4.5 32.5q0 22 -13.5 32t-35.5 10t-34 -14t-12 -32q0 -17 10 -28.5t29 -11.5h7q3 0 3 -5q0 -6 -6 -10q-18 -14 -18 -20q0 -12 42 -12q8 0 18.5 0.5t20 1.5t17.5 2.5t11 2.5q39 13 61 47
q15 24 15 45q0 7 -2 7zM-259 540q-19 0 -19 19q0 7 5 12.5t14 5.5t14 -5.5t5 -12.5q0 -19 -19 -19z" />
    <glyph glyph-name="f707;" unicode="&#xf707;" 
d="M-87 595h-36q-1 -4 -1 -7t-1 -5q-3 -29 -6 -40q-7 -22 -16 -31l-1 1q5 8 7 16.5t2 17.5q0 11 -3.5 22t-20.5 22q-22 15 -25 12q-2 -4 -5 -7.5t-5 -7.5q-11 -15 -20 -15q-10 0 -23 15q-3 3 -10 15q-3 3 -30 -25q-29 -31 -29 -55q0 -38 28 -51q9 -5 27 -6q16 0 25.5 11
t9.5 25q0 15 -8 24.5t-24 9.5q-8 0 -18 -5q-1 -1 -7 -5q2 5 3 9t2 6q8 16 20 17q7 1 14 -4q16 -14 21 -15q15 -2 28 16q2 1 3 1t3 1q0 1 2 -5v-8q0 -16 -9 -29q-5 -9 -14 -15q-1 -1 -1.5 -2t-2.5 -2v-22h52q36 0 55 55q2 7 5 17t5 24q1 5 2 11t2 14zM-252 517q7 0 11 -4.5
t4 -10.5t-4 -10.5t-12 -4.5q-15 0 -15 14q0 6 4.5 11t11.5 5z" />
    <glyph glyph-name="f708;" unicode="&#xf708;" 
d="M-144 502v57h-35v34h-72v-34h-37v-57h37v-33h72v33h35z" />
    <glyph glyph-name="f709;" unicode="&#xf709;" 
d="M-15 529v73q-9 -4 -17 -6q-23 -6 -57 -6q-24 0 -58 6q-35 6 -53 6h-6q-5 0 -9 -1q-31 -2 -51 -23.5t-20 -52.5q0 -6 1 -8q3 -30 33 -42q11 -5 29 -6q24 0 37 16q12 13 12 33q0 13 -6.5 25t-18.5 17q-8 6 11 6h5q13 -3 29 -11t25 -13t12 -6q21 -6 36 -9t35 -3q4 0 9 0.5
t11 1.5q6 2 11 3zM-226 493q-10 0 -16.5 7.5t-6.5 16.5q0 10 6.5 17.5t16.5 7.5q12 0 17.5 -7.5t5.5 -17.5t-6 -17t-17 -7z" />
    <glyph glyph-name="f70a;" unicode="&#xf70a;" 
d="M-20 469v97h-105v-97h105z" />
    <glyph glyph-name="f70b;" unicode="&#xf70b;" 
d="M3 575h-56q-2 -7 -3 -12t-2 -9q-6 -23 -18.5 -34t-44.5 -18h-12q14 13 18.5 25.5t4.5 32.5q0 21 -14 31.5t-35 10.5q-22 0 -34.5 -14t-12.5 -32q0 -17 10.5 -28.5t28.5 -11.5h8q3 0 3 -6q0 -5 -6 -9q-18 -14 -18 -20q0 -12 42 -12q8 0 18.5 0.5t20 1.5t17.5 2.5t11 2.5
q39 13 61 47q15 24 15 45q0 7 -2 7zM-159 540q-19 0 -19 19q0 7 5.5 12.5t13.5 5.5q9 0 13.5 -5.5t4.5 -12.5q0 -19 -18 -19z" />
    <glyph glyph-name="f70c;" unicode="&#xf70c;" 
d="M22 595h-36q-1 -4 -1 -7t-1 -5q-2 -15 -3.5 -25t-2.5 -15q-5 -20 -17 -31v1q5 8 7 16.5t2 17.5q0 11 -3.5 22t-20.5 22q-22 15 -25 12q-2 -4 -5 -7.5t-5 -7.5q-11 -15 -20 -15q-10 0 -23 15q-3 3 -10 15q-5 3 -30 -25q-29 -31 -29 -55q0 -38 28 -51q7 -5 27 -6
q16 0 25.5 11t9.5 25q0 15 -8 24.5t-24 9.5q-8 0 -18 -5q-2 -1 -3.5 -2t-3.5 -3q1 10 5 15q8 16 20 17q7 1 14 -4q16 -14 21 -15q15 -2 28 16q2 1 3 1t3 1q1 -4 1.5 -7t0.5 -7q0 -15 -9 -28q-5 -9 -14 -15q-1 -1 -1.5 -2t-2.5 -2v-22h52q36 0 55 55q2 7 5 17t5 24q1 5 2 11
t2 14zM-143 517q7 0 11 -4.5t4 -10.5t-4 -10.5t-12 -4.5q-15 0 -15 14q0 6 4.5 11t11.5 5z" />
    <glyph glyph-name="f70d;" unicode="&#xf70d;" 
d="M6 502v57h-35v34h-72v-34h-37v-57h37v-33h72v33h35z" />
    <glyph glyph-name="f70e;" unicode="&#xf70e;" 
d="M108 529v73q-9 -4 -17 -6q-23 -6 -57 -6q-24 0 -58 6q-35 6 -53 6h-6q-5 0 -9 -1q-31 -2 -51 -22.5t-20 -50.5q0 -8 1 -11q5 -29 34 -41q8 -4 28 -7q24 0 37 16q12 13 12 33q0 13 -6.5 25t-18.5 17q-8 6 11 6h5q13 -3 29 -11t25 -13t12 -6q21 -6 36 -9t35 -3q4 0 9 0.5
t11 1.5q6 2 11 3zM-103 495q-11 0 -17 7t-6 17t6 17t17 7t17 -7.5t6 -16.5q0 -10 -6 -17t-17 -7z" />
    <glyph glyph-name="f70f;" unicode="&#xf70f;" horiz-adv-x="587" 
d="M567 0v400h-105v-324h-67v232q-2 8 -3 14t-2 10q-8 26 -18 38q-14 15 -39 24q-20 6 -34 6h-161q-29 0 -51 -31q-10 -13 -28 -21q-8 -4 -16 -5v-117h31v-118q0 -46 13 -71q19 -39 70 -39q41 0 63 25q19 20 19 55q0 30 -16.5 53.5t-43.5 23.5v142h-40v5q0 8 6 14q8 8 15 8
h93q12 0 20 -7q4 -4 8.5 -9t7.5 -15q1 -2 1 -4t1 -6v-284h62h38q26 0 64 1h112zM155 51q-14 0 -21.5 8.5t-7.5 20.5t8 20.5t21 8.5t20.5 -9t7.5 -20q0 -12 -7.5 -20.5t-20.5 -8.5z" />
    <glyph glyph-name="f710;" unicode="&#xf710;" 
d="M-20 600h-81q-8 -8 -15 -17t-15 -18q-44 -39 -117 -44h-15q22 18 22 42t-22 41t-55 17q-28 0 -46 -21t-18 -49q0 -15 6 -28q13 -27 45 -39q40 -15 113 -15q57 0 110 34q39 25 70 63q5 8 9 17t9 17zM-314 531q-13 0 -19 7t-6 17q0 25 25 25q12 0 19 -7.5t7 -17.5
q0 -24 -26 -24z" />
    <glyph glyph-name="f711;" unicode="&#xf711;" 
d="M-204 464q34 0 54 18q16 16 16 42q0 28 -19.5 49t-51.5 21q-31 0 -52 -22q-18 -20 -18 -47q0 -25 17 -42q19 -19 54 -19zM-202 504q-11 0 -17 7t-6 17t6 17t17 7t17 -7t6 -17t-6 -17t-17 -7z" />
    <glyph glyph-name="f712;" unicode="&#xf712;" 
d="M-81 589l-33 56q-4 -2 -7.5 -4t-5.5 -4q-14 -7 -28 -9.5t-40 -2.5h-7h-34q-29 0 -52 -2.5t-47 -10.5q-24 -7 -41.5 -27t-23.5 -49q-1 -4 -1 -8q0 -27 39 -45q31 -15 65 -15q16 0 20 4q4 1 -2 9q-13 16 -11 21q1 6 12 6t26 -6.5t17 -10.5q7 -13 31 -19q6 -1 22 -3
q22 0 35 15.5t13 36.5q0 24 -13 38q-15 17 -40 17q-19 0 -33 -9t-16 -22q-4 2 -7 3t-5 2q-15 6 -26 6q-9 0 -18.5 -4.5t-22.5 -33.5q-4 -12 -9 -10q-21 7 -21 25q0 19 23.5 36t56.5 17h14q35 -4 57.5 -5.5t43.5 -1.5q25 0 46 3q5 2 11 3.5t12 3.5zM-187 499q-11 0 -16.5 6.5
t-5.5 15.5q0 10 6 16.5t16 6.5q11 0 16.5 -6.5t5.5 -16.5q0 -8 -5.5 -15t-16.5 -7z" />
    <glyph glyph-name="f713;" unicode="&#xf713;" 
d="M-144 623v97h-105v-97h105z" />
    <glyph glyph-name="f714;" unicode="&#xf714;" 
d="M-98 725h-56q-1 -4 -1 -8q0 -3 -1 -5q-8 -29 -22 -42q-11 -9 -35 -15l-21 -3q14 13 18.5 25.5t4.5 32.5q0 42 -49 42q-22 0 -34 -14t-12 -32t10 -29t29 -11h7q3 0 3 -5q0 -6 -6 -10q-18 -14 -18 -20q0 -12 42 -12q8 0 18.5 0.5t20 1.5t17.5 2.5t11 2.5q39 13 61 47
q15 24 15 45q0 7 -2 7zM-260 690q-9 0 -14 5.5t-5 12.5q0 19 19 19t19 -19q0 -7 -5 -12.5t-14 -5.5z" />
    <glyph glyph-name="f715;" unicode="&#xf715;" 
d="M-81 740h-36q-1 -4 -1 -7q0 -2 -1 -4q-2 -16 -3.5 -26t-2.5 -15q-5 -20 -17 -31v1q5 9 7 17t2 17q0 11 -3.5 22t-20.5 22q-22 15 -25 12q-2 -4 -5 -7.5t-5 -7.5q-11 -15 -20 -15q-11 0 -23 15q-3 3 -10 15q-5 3 -30 -25q-29 -31 -29 -55q0 -38 28 -51q7 -5 27 -6
q16 0 25.5 11t9.5 25q0 15 -8 24.5t-24 9.5q-8 0 -18 -5q-2 -1 -3.5 -2t-3.5 -3q1 10 5 15q8 16 20 17q7 1 14 -4q16 -14 21 -15q13 -1 28 16q2 1 3 1t3 1q0 -1 2 -5v-8q0 -16 -9 -29q-5 -9 -14 -15q-1 -1 -1.5 -2t-2.5 -2v-22h52q36 0 55 55q2 7 5 17t5 24q1 5 2 11t2 14z
M-246 662q7 0 11 -4.5t4 -10.5t-4 -10.5t-12 -4.5q-15 0 -15 14q0 6 4.5 11t11.5 5z" />
    <glyph glyph-name="f716;" unicode="&#xf716;" 
d="M-109 657v57h-35v34h-72v-34h-37v-57h37v-33h72v33h35z" />
    <glyph glyph-name="f717;" unicode="&#xf717;" 
d="M8 630v73q-9 -4 -17 -6q-23 -6 -57 -6q-24 0 -58 6q-35 6 -53 6h-6q-5 0 -9 -1q-31 -2 -51 -23.5t-20 -52.5q0 -6 1 -8q1 -23 22 -37q13 -8 40 -11q23 0 37 15q12 13 12 35q0 28 -25 41q-8 6 10 6h6q17 -5 37 -16q22 -13 29 -14q21 -6 36 -9t35 -3q4 0 9 0.5t11 1.5
q6 2 11 3zM-202 596q-11 0 -17 7t-6 17t6 17t17 7t17 -7.5t6 -16.5q0 -10 -6 -17t-17 -7z" />
    <glyph glyph-name="f718;" unicode="&#xf718;" 
d="M-14 -261v114q0 27 -18.5 42t-50.5 15t-51 -22q-18 -20 -18 -48q0 -23 15.5 -40t43.5 -17v-44h79zM-78 -181q-25 0 -25 25q0 10 7 17.5t18 7.5q12 0 18 -7.5t6 -17.5q0 -25 -24 -25z" />
    <glyph glyph-name="f719;" unicode="&#xf719;" 
d="M-16 -261v160h-84v-117h-33v71q0 24 -19 40.5t-50 16.5q-30 0 -48 -21q-16 -17 -16 -45q0 -24 15 -41t43 -17v-47h192zM-197 -181q-25 0 -25 25q0 10 6.5 17.5t18.5 7.5q13 0 19.5 -7.5t6.5 -17.5q0 -25 -26 -25z" />
    <glyph glyph-name="f71a;" unicode="&#xf71a;" 
d="M-80 -219q26 0 41 17q14 17 14 38q0 22 -14 39q-15 17 -41 17q-25 0 -42 -17q-13 -14 -13 -38q0 -23 14.5 -39.5t40.5 -16.5z" />
    <glyph glyph-name="f71c;" unicode="&#xf71c;" horiz-adv-x="760" 
d="M47 0h665v760h-665v-760zM665 47h-570v665h570v-665z" />
    <glyph glyph-name="f71d;" unicode="&#xf71d;" 
 />
    <glyph glyph-name="uniE000" horiz-adv-x="293" 
 />
  </font>
</defs>
</svg>
