<?xml version="1.0" standalone="no"?>
<!DOCTYPE svg PUBLIC "-//W3C//DTD SVG 1.1//EN" "http://www.w3.org/Graphics/SVG/1.1/DTD/svg11.dtd" >
<svg xmlns="http://www.w3.org/2000/svg" xmlns:xlink="http://www.w3.org/1999/xlink" version="1.1">
<metadata>
Created by FontForge 20170731 at Wed Jul 26 08:30:05 2023
 By Aleksey,,,
Copyright (c)Matichon Public Company Limited 2011. All rights reserved.
</metadata>
<defs>
<font id="MyFont" horiz-adv-x="40" >
  <font-face 
    font-family="My Font"
    font-weight="500"
    font-stretch="normal"
    units-per-em="2048"
    panose-1="0 0 0 0 0 0 0 0 0 0"
    ascent="1638"
    descent="-410"
    x-height="1049"
    cap-height="1427"
    bbox="-1185.6 -557 3195 2318"
    underline-thickness="102"
    underline-position="-307"
    unicode-range="U+0020-F789"
  />
<missing-glyph horiz-adv-x="935" 
d="M41 1382h854v-1382h-854v1382zM139 98h656v1186h-656v-1186z" />
    <glyph glyph-name=".notdef" horiz-adv-x="935" 
d="M41 1382h854v-1382h-854v1382zM139 98h656v1186h-656v-1186z" />
    <glyph glyph-name=".notdef" horiz-adv-x="935" 
d="M41 1382h854v-1382h-854v1382zM139 98h656v1186h-656v-1186z" />
    <glyph glyph-name=".null" horiz-adv-x="0" 
 />
    <glyph glyph-name="nonmarkingreturn" horiz-adv-x="682" 
 />
    <glyph glyph-name="space" unicode=" " horiz-adv-x="675" 
 />
    <glyph glyph-name="exclam" unicode="!" horiz-adv-x="557" 
d="M119 635l-84 792h481l-96 -792q-1 -2 -2 -6.5t-2 -7.5t-6.5 -13.5t-8.5 -17.5q-15 -30 -26 -43q-16 -19 -41 -33t-64 -14q-38 0 -63 14q-31 16 -45 35q-21 25 -27 39q-9 21 -12 33zM274 477q67 0 123 -33q52 -32 88 -90q33 -56 33 -123q0 -96 -72 -165q-70 -70 -172 -70
q-67 0 -120 33q-56 30 -86 86q-33 50 -33 116q0 101 71 175q71 71 168 71z" />
    <glyph glyph-name="quotedbl" unicode="&#x22;" horiz-adv-x="686" 
d="M489 1257q-4 4 -16 9q-10 4 -22 10q-14 5 -23 10q-12 8 -22 17q-12 8 -19 20q-12 12 -18 27q-10 24 -11 34q-4 28 -4 43q0 67 45 109q46 43 107 43q68 0 115 -47t47 -105q0 -36 -19 -79q-24 -47 -39 -64l-20 -20q-81 -103 -180 -125q3 3 10 13t12 15q5 6 12.5 15.5
t10.5 11.5q6 9 16 29q6 10 18 34zM152 1257q-2 2 -19 9q-5 2 -12.5 4.5t-9.5 3.5q-14 5 -23 10q-19 11 -22 16q-11 7 -19 21q-13 13 -16 27q-10 24 -11 34q-4 24 -4 43q0 66 45 111q43 43 103 43q68 0 115 -47q47 -50 47 -107q0 -39 -19 -82q-16 -37 -37 -61l-18 -20
q-81 -100 -184 -127q7 11 28 36q17 19 31 41q15 23 25 45z" />
    <glyph glyph-name="numbersign" unicode="#" horiz-adv-x="1107" 
d="M117 1016h192l66 411h186l-65 -411h213l65 411h180l-57 -411h190l-26 -170h-193l-32 -230h192l-29 -178h-192l-68 -438h-184l68 438h-213l-66 -438h-186l65 438h-190l24 178h191l37 230h-191zM647 616l33 230h-209l-35 -230h211z" />
    <glyph glyph-name="dollar" unicode="$" horiz-adv-x="1017" 
d="M426 1413v152h164v-152q265 -35 348 -303l-221 -94q-67 186 -201 186q-69 0 -113 -41q-43 -40 -43 -100q0 -59 41 -94q40 -34 170 -84q222 -72 308 -158q89 -89 98 -258q0 -176 -100 -285q-101 -110 -287 -131v-192h-164v192q-159 15 -254 107q-95 88 -137 262l250 63
q35 -209 231 -209q85 0 131 43q43 40 43 111q0 66 -43 100t-188 84q-197 65 -283 154q-87 87 -96 254q0 153 88 260q84 106 258 133z" />
    <glyph glyph-name="percent" unicode="%" horiz-adv-x="899" 
d="M63 4l539 1423h272l-536 -1423h-275zM262 1415q82 0 144 -59q59 -59 59 -144q0 -84 -59 -143q-62 -59 -144 -59q-86 0 -145 59q-60 60 -60 143q0 86 60 146q57 57 145 57zM662 426q84 0 143 -59q59 -62 59 -144t-59 -141t-143 -59q-83 0 -142 59t-59 141t59 144
q59 59 142 59z" />
    <glyph glyph-name="ampersand" unicode="&#x26;" horiz-adv-x="1310" 
d="M1049 807l231 -39q-52 -252 -197 -461q84 -78 148 -78q31 0 49 2v-243q-52 -15 -106 -15q-149 0 -281 138q-181 -144 -389 -144q-223 0 -338 121q-117 120 -117 303q0 277 326 412q-133 189 -133 319q0 135 106 228q109 92 270 92q163 0 267 -96q102 -99 102 -246
q0 -215 -248 -346l197 -260q60 91 113 313zM616 920q129 77 129 196q0 52 -28 88q-27 35 -84 35q-37 0 -62 -14q-26 -14 -39 -41q-14 -25 -14 -60q0 -79 98 -204zM752 287l-258 352q-146 -84 -146 -229q0 -92 55 -150q54 -57 148 -57q117 0 201 84z" />
    <glyph glyph-name="quotesingle" unicode="'" horiz-adv-x="350" 
d="M156 1262q-7 0 -11 2q-21 9 -30 12q-12 3 -33 18q-21 12 -31 29q-14 18 -22 41q-11 29 -11 57q0 72 45 117t107 45q69 0 115 -49q47 -53 47 -113q0 -29 -17 -75q-15 -39 -34 -62l-17 -20q-111 -111 -190 -125q14 14 24 26q4 5 12 15.5t11 13.5q6 9 16 29q16 32 19 39z
" />
    <glyph glyph-name="parenleft" unicode="(" horiz-adv-x="466" 
d="M422 16v-141q-51 0 -117 29q-58 24 -121 84q-59 56 -96 149q-39 91 -39 207v739q0 104 31 195q28 81 78 137q47 53 100 86q53 35 94 47q44 13 70 13v-140q-1 -1 -21 -26q-15 -15 -36 -62q-23 -51 -23 -82v-1028q0 -42 33 -121q35 -86 47 -86z" />
    <glyph glyph-name="parenright" unicode=")" horiz-adv-x="485" 
d="M63 1425v140q52 0 121 -29q58 -25 121 -82q54 -51 96 -149q37 -93 37 -209v-736q0 -106 -30 -192q-35 -91 -78 -139q-44 -50 -99 -86q-51 -36 -94 -49q-47 -13 -69 -13v135q77 95 77 177v1024q0 16 -6 43q-5 21 -16 55q-3 10 -11 29t-10 24q-13 26 -22 41q-10 16 -17 16z
" />
    <glyph glyph-name="asterisk" unicode="*" horiz-adv-x="1040" 
d="M258 1026l219 -145l-28 260h180l-27 -260l217 145l90 -158l-235 -106l235 -105l-90 -157l-217 145l27 -262h-180l28 262l-219 -145l-88 157l236 105l-236 106z" />
    <glyph glyph-name="plus" unicode="+" horiz-adv-x="968" 
d="M39 883h299v297h291v-297h297v-289h-297v-297h-291v297h-299v289z" />
    <glyph glyph-name="comma" unicode="," horiz-adv-x="356" 
d="M162 0q-1 1 -19 8l-24 8q-11 4 -23 11q-15 9 -22 16q-11 7 -19 18q-12 12 -18 27q-7 15 -10 33q-4 24 -4 41q0 67 47 114q46 46 104 46q70 0 117 -50t47 -110q0 -33 -19 -76q-18 -39 -36 -61l-19 -21q-87 -106 -186 -127q9 14 28 37q7 8 18 22t15 19q16 24 23 45z" />
    <glyph glyph-name="hyphen" unicode="-" horiz-adv-x="643" 
d="M72 612v293h499v-293h-499z" />
    <glyph glyph-name="period" unicode="." horiz-adv-x="415" 
d="M215 -10q-87 0 -137 59q-51 57 -51 129t51 129q49 58 137 58t137 -58q47 -59 47 -129q0 -71 -49 -129q-50 -59 -135 -59z" />
    <glyph glyph-name="slash" unicode="/" horiz-adv-x="866" 
d="M33 4l534 1423h275l-535 -1423h-274z" />
    <glyph glyph-name="zero" unicode="0" horiz-adv-x="1036" 
d="M545 1466q20 0 86 -4q42 -3 121 -22q70 -21 129 -51q52 -27 100 -91q41 -62 41 -141v-850q0 -79 -41 -141q-43 -60 -100 -94q-55 -32 -131 -54q-77 -21 -127 -24q-53 -6 -97 -6q-15 0 -65 4q-10 1 -96 14q-59 9 -109 29t-100 49q-48 28 -76 76q-29 50 -29 104v926
q0 51 23 102q21 45 57 74q35 27 84 47q55 23 92 31q49 11 96 16q53 6 82 6h60zM543 1190q-41 0 -86 -10q-40 -12 -70 -35q-29 -26 -29 -55v-730q0 -31 27 -55q29 -26 66 -37q35 -14 75 -14q174 0 174 111v718q0 40 -51 74q-50 33 -106 33z" />
    <glyph glyph-name="one" unicode="1" horiz-adv-x="643" 
d="M248 1438h264v-1176h123v-262h-567v262h118v709l-129 -51v282l136 51q20 10 38 35q16 22 19 49q1 8 2 24t2 23q0 19 -4 39z" />
    <glyph glyph-name="two" unicode="2" horiz-adv-x="1034" 
d="M848 657l-422 -241q-23 -13 -31 -27q-10 -13 -14 -24v-11v-96h631v-262h-949v356q0 73 41 135q44 66 97 91l372 213q1 1 11 6q42 28 63 43q23 16 47 51q23 38 23 74v22v60q-3 13 -6 40q-6 22 -15 31q-18 12 -28 17q-21 9 -47 12q-18 2 -72 2q-39 0 -53 -2q-32 -5 -39 -6
q-18 -3 -31 -13q-20 -12 -23 -14q-8 -8 -14 -20q-2 -5 -8 -23q-2 -6 -2 -29q-2 -14 -2 -32v-37v-41h-322v196q0 56 33 109t92 100t148 74t194 27q94 0 187 -17q73 -13 135 -45q46 -24 90 -61q39 -36 55 -72q19 -44 27 -69q6 -34 6 -64v-82v-59q-3 -23 -6 -62q-4 -27 -17 -65
q-11 -28 -30 -64t-49 -63q-30 -30 -72 -58z" />
    <glyph glyph-name="three" unicode="3" horiz-adv-x="1105" 
d="M633 610h-240v258h277q84 0 84 142q0 31 -4 67q-2 19 -21 49q-19 26 -55 37q-49 11 -101 11q-180 0 -180 -74v0v0v2v0v2v0v2v0v0v2v0v-2v0v0v-2v0v-2v-2v-2v-2v-2v-2v-2v-3v-2v-2v-2v-2v-2v-2v-2v-2v-2v-2v-2v-2v-2v-2v-2v-2v-2v-2v-2v-2v-3v-2v-2v-2v-2v-2v-2v-2v-2v-2
v-2v-2v-2v-2v-2v-2v-2v-2v-2v-2v-2v-3v-2v-2v-2v-2v-2v-2v-2v-2v-2v-2v-2v-2v-2v-2v-2v-2v-2v-2v-2v-2v-3v-2v-2v-18h-336v188q0 30 29 86q28 51 72 101q46 49 116 86q72 35 146 35h366q100 0 205 -91q99 -89 99 -184v-147q0 -72 -41 -152q-43 -79 -105 -106
q76 -57 109 -125q34 -69 34 -183v-151q0 -122 -94 -207q-95 -86 -184 -86h-477q-98 0 -178 74q-82 73 -82 174v235h321q0 -137 35 -184t152 -47q172 0 172 113v151q0 94 -119 94z" />
    <glyph glyph-name="four" unicode="4" horiz-adv-x="983" 
d="M45 725l422 702h393v-714h121v-264h-113v-195h93v-254h-496v254h90v195h-510v276zM307 713h283v471z" />
    <glyph glyph-name="five" unicode="5" horiz-adv-x="1091" 
d="M383 494v-146q0 -34 53 -55q57 -23 131 -23q41 0 76 9q35 6 68 32q30 24 30 66v258q0 46 -43 86q-46 37 -143 37q-45 0 -82 -13q-38 -16 -51 -40q-18 -27 -25 -48q-5 -11 -16 -55h-330v842h1022v-248h-696v-252q121 68 278 68q87 0 187 -23q91 -24 162 -80
q67 -58 67 -133v-438q0 -119 -158 -234q-156 -114 -368 -114q-113 0 -223 45q-115 44 -189 115q-76 70 -76 147v197h326z" />
    <glyph glyph-name="six" unicode="6" horiz-adv-x="1097" 
d="M377 1128v-231q35 28 39 31q25 18 102 47q82 29 160 29q159 0 272 -58q111 -58 111 -170v-473q0 -56 -25 -108q-25 -49 -69 -84q-45 -36 -93 -56q-59 -27 -108 -37q-59 -15 -104 -18q-46 -6 -89 -6q-215 0 -366 92q-150 91 -150 256v692q0 205 150 316q150 108 377 108
q53 0 125 -10q59 -8 129 -31q46 -15 116 -51q48 -27 84 -76q33 -44 33 -100v-117h-323v55q0 17 -13 33q-13 13 -28 19t-37 6h-189q-48 0 -75 -15q-29 -16 -29 -43zM391 545v-174q0 -50 41 -80q39 -33 100 -33h62q154 0 154 119v207q0 129 -119 129q-66 0 -121 -19t-84 -55
q-33 -39 -33 -94z" />
    <glyph glyph-name="seven" unicode="7" horiz-adv-x="817" 
d="M397 903q0 2 17 39q3 9 10.5 25t9.5 20q15 35 19 47q2 6 8 22.5t8 24.5q1 6 3 18.5t3 18.5q3 16 -4 27q-10 10 -22 10h-394v281h758v-195q0 -95 -27 -178q-33 -99 -63 -164q-35 -78 -74 -186q-37 -98 -65 -291q-27 -185 -27 -426h-379v72q0 312 219 835z" />
    <glyph glyph-name="eight" unicode="8" horiz-adv-x="1075" 
d="M1020 1208v-153q0 -62 -31 -107q-37 -47 -96 -84q37 -19 72 -41q15 -9 53 -39q30 -26 41 -49q12 -27 12 -57v-463q0 -75 -82 -145t-147 -70h-572q-45 0 -129 84t-84 170v397q0 102 189 191q-146 78 -146 207v157q0 80 93 152q88 67 188 67h367q62 0 126 -34
q64 -35 105 -84q41 -53 41 -99zM477 977h162q37 0 55 24q19 25 19 82q0 113 -74 113h-156q-33 0 -55 -31t-22 -82q0 -106 71 -106zM633 690h-168q-35 0 -59 -35q-25 -36 -25 -77v-220q0 -63 29 -92q27 -30 77 -30h158q31 0 47 8q21 11 29 26q8 14 12 39q2 14 2 56v219
q0 53 -24 80q-23 26 -78 26z" />
    <glyph glyph-name="nine" unicode="9" horiz-adv-x="1091" 
d="M1071 1122v-823q0 -110 -92 -205q-94 -94 -195 -94h-401q-116 0 -213 72q-98 70 -98 141v164h342v-51q0 -32 18 -50q15 -18 68 -18h139q41 0 76 27q33 23 33 51v137q0 55 -7 59l-16 -16q-56 -62 -119 -65h-297q-75 0 -162 81q-90 84 -90 175v432q0 105 99 200
q96 93 198 93h430q113 0 201 -97q86 -95 86 -213zM651 1167h-162q-30 0 -51 -12q-26 -16 -37 -41q-14 -25 -14 -65v-236q0 -38 27 -65q29 -29 73 -29h148q53 0 80 37q26 36 26 75v234q0 43 -20 72q-21 30 -70 30z" />
    <glyph glyph-name="colon" unicode=":" horiz-adv-x="401" 
d="M209 1100q65 0 110 -45q46 -46 46 -111q0 -67 -46 -113q-47 -47 -110 -47q-39 0 -80 23q-38 20 -59 57q-21 38 -21 80q0 33 12 60q13 29 35 51q19 19 51 32q29 13 62 13zM209 391q65 0 110 -45q46 -46 46 -110q0 -67 -46 -113q-46 -49 -110 -49q-41 0 -80 22
q-36 19 -59 60q-21 38 -21 80q0 40 21 77q24 40 59 58q36 20 80 20z" />
    <glyph glyph-name="semicolon" unicode=";" horiz-adv-x="428" 
d="M193 74q-7 2 -21 8q-26 11 -27 12l-24 12q-17 8 -25 21q-5 5 -18 27q-14 18 -17 36q-4 28 -4 46q0 71 45 116q42 45 105 45q44 0 86 -22q35 -22 57 -62q21 -38 21 -77q0 -33 -19 -76q-17 -39 -37 -62l-18 -20q-87 -106 -186 -127q9 14 28 37q14 16 33 43q11 17 21 43z
M219 1106q66 0 111 -45t45 -111q0 -65 -45 -110q-46 -49 -111 -49q-43 0 -82 22q-37 20 -57 57q-23 41 -23 80q0 35 15 62q12 27 34 49q20 20 52 33q27 12 61 12z" />
    <glyph glyph-name="less" unicode="&#x3c;" horiz-adv-x="1089" 
d="M39 535v294l1016 529v-346l-645 -332l641 -336l4 -344z" />
    <glyph glyph-name="equal" unicode="=" horiz-adv-x="817" 
d="M27 635v293h764v-293h-764zM27 135v293h764v-293h-764z" />
    <glyph glyph-name="greater" unicode="&#x3e;" horiz-adv-x="1089" 
d="M1051 829v-294l-1016 -531v348l645 332l-641 332l-4 344z" />
    <glyph glyph-name="question" unicode="?" horiz-adv-x="995" 
d="M707 506h-353v178q0 32 15 59q19 35 39 52q6 6 51 41q9 7 27.5 21.5t27.5 21.5q17 13 51 43q23 23 37 55q14 28 14 67v111q0 19 -16 45q-17 24 -43 41q-29 16 -53 16q-35 0 -64 -16q-27 -15 -43 -41t-16 -51v-145q19 -57 41 -82l-303 -177q-25 29 -35 46q-15 21 -23 40
q-6 11 -10 37q-2 12 -2 45v177q0 134 96 227q95 92 209 92h346q89 0 177 -94q90 -96 90 -213v-189q0 -55 -27 -96q-29 -43 -63 -65q-64 -43 -78 -50q-35 -21 -66 -55q-26 -33 -26 -74v-67zM379 397q71 68 166 68q96 0 164 -68q67 -67 67 -166q0 -62 -31 -116t-83 -84
q-54 -31 -117 -31q-95 0 -166 68q-70 67 -70 163t70 166z" />
    <glyph glyph-name="at" unicode="@" horiz-adv-x="1415" 
d="M883 1004l14 96h147l-63 -453q-10 -95 -10 -129q0 -74 49 -74q42 0 82 52q36 45 65 135q27 86 27 184q0 246 -115 385q-116 137 -327 137q-224 0 -361 -168q-139 -171 -139 -452t137 -449t385 -168q206 0 383 115l60 -141q-216 -137 -449 -137q-318 0 -514 208
q-193 205 -193 564q0 351 187 565q194 225 504 225q286 0 456 -182q166 -184 166 -479q0 -245 -121 -402q-121 -160 -264 -160q-125 0 -160 127q-71 -129 -194 -129q-95 0 -160 103t-65 262q0 99 24 188t68 154q39 62 98 100q58 37 123 37q107 0 160 -114zM809 770
q0 145 -74 145q-54 0 -88 -73q-35 -78 -35 -201q0 -168 82 -168q115 0 115 297z" />
    <glyph glyph-name="A" unicode="A" horiz-adv-x="1198" 
d="M322 0h-289l432 1427h315l406 -1427h-318l-71 297h-404zM594 1124l-139 -585h280z" />
    <glyph glyph-name="B" unicode="B" horiz-adv-x="1040" 
d="M522 0h-489v1427h489q166 0 258 -24q61 -22 107 -68q47 -47 74 -118q26 -68 26 -160q0 -244 -203 -309q244 -89 244 -355q0 -127 -67 -231q-62 -91 -160 -127q-96 -35 -279 -35zM461 1200h-125v-348h100q77 0 123 14q49 16 70 43q20 25 30 56q9 27 9 67q0 78 -45 123
t-162 45zM489 623h-153v-375h153q220 0 220 184q0 47 -13 88q-16 41 -41 60q-30 23 -69 32q-50 11 -97 11z" />
    <glyph glyph-name="C" unicode="C" horiz-adv-x="1079" 
d="M780 506l291 -12q-9 -96 -33 -175q-27 -83 -69 -145q-49 -68 -103 -111q-59 -47 -133 -71q-80 -25 -162 -25q-260 0 -399 195t-139 545q0 347 139 542q138 193 408 193q445 0 485 -555l-289 -19q-9 318 -196 318q-68 0 -115 -41q-45 -42 -72 -156q-28 -118 -28 -305
q0 -259 51 -358q53 -103 164 -103q165 0 200 283z" />
    <glyph glyph-name="D" unicode="D" horiz-adv-x="1046" 
d="M410 0h-377v1427h334q172 3 284 -30q119 -35 203 -113q86 -83 129 -219t49 -346q0 -186 -49 -334q-52 -149 -135 -244q-53 -56 -117 -86q-63 -34 -139 -43q-76 -12 -182 -12zM399 1186h-51v-938h51q110 0 172 39q64 42 97 149q34 106 34 303q0 140 -20 224
q-21 88 -61 137q-43 49 -95 67q-55 19 -127 19z" />
    <glyph glyph-name="E" unicode="E" horiz-adv-x="933" 
d="M920 0h-871v1427h871v-241h-555v-334h428v-242h-428v-356h555v-254z" />
    <glyph glyph-name="F" unicode="F" horiz-adv-x="911" 
d="M365 0h-316v1427h848v-241h-532v-373h409v-246h-409v-567z" />
    <glyph glyph-name="G" unicode="G" horiz-adv-x="1107" 
d="M807 504h-213v248h493v-764h-133l-39 164q-117 -185 -344 -185q-245 0 -389 193q-143 189 -143 518q0 362 143 563q145 201 414 201q442 0 491 -494l-280 -43q-24 281 -205 281q-74 0 -121 -41q-51 -45 -80 -156q-30 -114 -30 -303q0 -247 61 -354q59 -109 180 -109
q195 0 195 281z" />
    <glyph glyph-name="H" unicode="H" horiz-adv-x="1024" 
d="M348 0h-315v1427h315v-575h342v575h314v-1427h-314v584h-342v-584z" />
    <glyph glyph-name="I" unicode="I" horiz-adv-x="399" 
d="M365 0h-316v1427h316v-1427z" />
    <glyph glyph-name="J" unicode="J" horiz-adv-x="618" 
d="M287 471v948h313v-948q0 -123 -8 -188q-9 -70 -31 -136q-20 -63 -65 -98q-46 -34 -113 -55q-68 -21 -168 -27q-72 0 -192 21v264q91 -16 124 -16q63 0 89 20q28 19 40 68q11 60 11 147z" />
    <glyph glyph-name="K" unicode="K" horiz-adv-x="1060" 
d="M352 0h-317v1427h317v-591l344 591h316l-355 -524l387 -903h-325l-248 657l-119 -170v-487z" />
    <glyph glyph-name="L" unicode="L" horiz-adv-x="833" 
d="M815 0h-774v1427h313v-1159h461v-268z" />
    <glyph glyph-name="M" unicode="M" horiz-adv-x="1392" 
d="M287 0h-254v1427h461l202 -878l226 878h448v-1427h-297v1200l-289 -1200h-229l-268 1200v-1200z" />
    <glyph glyph-name="N" unicode="N" horiz-adv-x="1011" 
d="M276 0h-243v1427h348l367 -882v882h245v-1427h-280l-437 1034v-1034z" />
    <glyph glyph-name="O" unicode="O" horiz-adv-x="1095" 
d="M1077 707q0 -740 -516 -740q-254 0 -387 189t-133 551q0 735 520 735q253 0 385 -187q131 -186 131 -548zM748 707q0 285 -48 383q-47 96 -139 96q-101 0 -145 -96q-45 -86 -45 -383q0 -193 20 -293q21 -107 62 -148q40 -43 108 -43q95 0 139 92q48 105 48 392z" />
    <glyph glyph-name="P" unicode="P" horiz-adv-x="995" 
d="M348 0h-315v1427h409q187 0 293 -28q108 -35 176 -146q70 -113 70 -270t-59 -260q-57 -102 -162 -150q-99 -45 -301 -45h-111v-528zM442 1200h-94v-424h94q121 0 164 55q41 56 41 162q0 119 -51 164q-52 43 -154 43z" />
    <glyph glyph-name="Q" unicode="Q" horiz-adv-x="1079" 
d="M1016 -33v-229q-71 -14 -139 -14q-268 0 -283 272h-59q-243 0 -375 182q-133 183 -133 557q0 735 518 735q257 0 389 -184q131 -186 131 -541q0 -260 -59 -428q-61 -168 -203 -260q0 -59 26 -82q24 -24 76 -24q36 0 111 16zM735 735q0 289 -49 383q-43 99 -141 99
q-99 0 -142 -99q-45 -86 -45 -383q0 -187 21 -295q18 -106 59 -147t107 -41q97 0 141 96q49 94 49 387z" />
    <glyph glyph-name="R" unicode="R" horiz-adv-x="1062" 
d="M348 0h-315v1427h448q141 0 209 -12q70 -16 131 -63q75 -54 115 -144q41 -93 41 -204q0 -271 -203 -379l264 -625h-344l-194 567h-152v-567zM471 1200h-123v-401h135q185 0 185 205q0 104 -50 151q-51 45 -147 45z" />
    <glyph glyph-name="S" unicode="S" horiz-adv-x="1034" 
d="M989 1110l-258 -104q-52 180 -203 180q-66 0 -106 -37q-41 -41 -41 -94q0 -62 47 -97q46 -37 201 -98q208 -71 295 -164q89 -95 98 -270q0 -207 -137 -332q-139 -127 -369 -127q-392 0 -500 391l275 78q53 -213 231 -213q81 0 133 43q52 40 52 109q0 59 -39 98
q-37 37 -162 84q-172 63 -244 109q-85 49 -137 137q-51 86 -51 196q0 196 127 320q126 123 327 123q372 0 461 -332z" />
    <glyph glyph-name="T" unicode="T" horiz-adv-x="923" 
d="M299 1161h-283v266h893v-266h-293v-1161h-317v1161z" />
    <glyph glyph-name="U" unicode="U" horiz-adv-x="1030" 
d="M35 612v820h317v-820q0 -178 13 -241q41 -140 186 -140q82 0 127 39q43 40 55 103q12 65 12 239v820h261v-807q0 -229 -25 -357q-30 -130 -147 -209q-116 -82 -308 -82q-194 0 -297 62q-104 65 -149 176q-45 102 -45 397z" />
    <glyph glyph-name="V" unicode="V" horiz-adv-x="1075" 
d="M709 -10l-355 6l-342 1431h330l223 -1091l226 1091h266z" />
    <glyph glyph-name="W" unicode="W" horiz-adv-x="1601" 
d="M606 -10h-276l-314 1437h322l149 -991l191 991h287l176 -991l174 991h268l-309 -1437h-285l-190 997z" />
    <glyph glyph-name="X" unicode="X" horiz-adv-x="1128" 
d="M12 0l394 735l-349 692h349l172 -366l184 366h295l-334 -643l379 -784h-340l-213 467l-234 -467h-303z" />
    <glyph glyph-name="Y" unicode="Y" horiz-adv-x="1089" 
d="M375 0v602l-363 825h346l207 -518l211 518h307l-397 -825v-602h-311z" />
    <glyph glyph-name="Z" unicode="Z" horiz-adv-x="1034" 
d="M641 1174h-553v253h916v-221l-598 -952h614v-254h-981v215z" />
    <glyph glyph-name="bracketleft" unicode="[" horiz-adv-x="491" 
d="M471 -174h-442v1790h442v-135h-184v-1522h184v-133z" />
    <glyph glyph-name="backslash" unicode="\" horiz-adv-x="876" 
d="M590 4l-535 1423h275l538 -1423h-278z" />
    <glyph glyph-name="bracketright" unicode="]" horiz-adv-x="505" 
d="M33 1618h440v-1788h-440v131h180v1522h-180v135z" />
    <glyph glyph-name="asciicircum" unicode="^" horiz-adv-x="1075" 
d="M780 903l-225 479l-219 -479h-291l332 696h358l332 -696h-287z" />
    <glyph glyph-name="underscore" unicode="_" horiz-adv-x="1107" 
d="M1102 -207h-1073v191h1073v-191z" />
    <glyph glyph-name="grave" unicode="`" horiz-adv-x="714" 
d="M123 1548l117 176l354 -331l-88 -86z" />
    <glyph glyph-name="a" unicode="a" horiz-adv-x="892" 
d="M336 725l-279 27q15 155 133 241q115 86 293 86q154 0 240 -57q87 -54 111 -123q24 -71 24 -237v-426q0 -193 19 -236h-275q-12 44 -12 164q-95 -182 -293 -182q-126 0 -201 75q-78 75 -78 213q0 122 52 201q54 79 174 127q118 49 323 64v38q0 100 -22 146q-24 41 -84 41
q-110 0 -125 -162zM567 455v51q-132 -12 -184 -55q-53 -44 -53 -144q0 -133 92 -133q59 0 104 66q41 65 41 215z" />
    <glyph glyph-name="b" unicode="b" horiz-adv-x="899" 
d="M209 -12h-176v1431h289v-471q79 113 221 113q151 0 245 -137q95 -139 95 -398q0 -107 -15 -192q-14 -81 -47 -156q-31 -70 -76 -115q-48 -48 -104 -71q-64 -25 -135 -25q-178 0 -242 162q-29 -57 -55 -141zM322 670v-244q0 -99 12 -152q12 -55 39 -79q28 -25 76 -25
q72 0 102 82q29 85 29 266q0 177 -29 266q-27 80 -100 80q-129 0 -129 -194z" />
    <glyph glyph-name="c" unicode="c" horiz-adv-x="866" 
d="M854 657l-274 -10q-6 103 -31 152q-27 47 -84 47q-150 0 -150 -314q0 -176 35 -251q35 -74 109 -74q112 0 121 196l274 -16q-34 -420 -412 -420q-206 0 -315 139t-109 410q0 268 115 410q114 141 318 141q376 0 403 -410z" />
    <glyph glyph-name="d" unicode="d" horiz-adv-x="905" 
d="M590 950v475h291v-1431h-275v174q-68 -191 -241 -191q-166 0 -250 146q-86 145 -86 393q0 271 92 410t256 139q148 0 213 -115zM590 422v188q0 145 -31 205q-30 55 -94 55q-77 0 -103 -75q-26 -74 -26 -301q0 -168 29 -244q27 -70 96 -70q61 0 96 53q33 50 33 189z" />
    <glyph glyph-name="e" unicode="e" horiz-adv-x="892" 
d="M874 471h-552v-61q0 -65 10 -117q9 -50 30 -74q18 -27 44 -37q21 -12 55 -12q136 0 151 184l262 -18q-65 -369 -419 -369q-210 0 -324 144q-115 145 -115 389q0 275 117 422q118 145 322 145q179 0 299 -129q120 -123 120 -467zM322 641h274v27q0 206 -135 206
q-133 0 -139 -233z" />
    <glyph glyph-name="f" unicode="f" horiz-adv-x="641" 
d="M426 1061h186v-236h-186v-825h-281v825h-122v236h122q0 152 23 229q15 56 55 99q38 44 103 71q64 27 151 27q73 0 148 -10v-230q-28 4 -68 4q-57 0 -82 -14q-31 -17 -39 -55q-10 -45 -10 -121z" />
    <glyph glyph-name="g" unicode="g" horiz-adv-x="985" 
d="M983 1257v-192q-31 8 -63 8q-92 0 -113 -96q84 -84 84 -213q0 -142 -107 -227q-109 -86 -280 -86q-54 0 -139 16q-68 -41 -68 -90q0 -33 39 -47q36 -18 213 -27q152 -3 235 -29q58 -16 97 -49q41 -35 65 -90q25 -61 25 -129q0 -354 -516 -354q-437 0 -437 252
q0 138 175 196q-136 65 -136 185q0 132 179 231q-156 70 -156 264q0 161 106 242q110 84 291 84q123 0 230 -49q9 111 57 162q46 49 139 49q38 0 80 -11zM584 776q0 168 -95 168q-59 0 -79 -39q-23 -44 -23 -135q0 -164 100 -164q53 0 74 41q23 44 23 129zM487 57l-133 15
q-90 -44 -90 -127q0 -109 242 -109q211 0 211 113q0 37 -23 67q-20 20 -55 29q-34 6 -152 12z" />
    <glyph glyph-name="h" unicode="h" horiz-adv-x="876" 
d="M330 0h-297v1427h297v-479q76 131 260 131q162 -9 215 -96q52 -85 49 -303v-680h-297v680q0 100 -18 135q-17 33 -78 33q-71 0 -101 -35q-30 -37 -30 -143v-670z" />
    <glyph glyph-name="i" unicode="i" horiz-adv-x="393" 
d="M55 1438h299v-293h-299v293zM352 0h-295v1061h295v-1061z" />
    <glyph glyph-name="j" unicode="j" horiz-adv-x="499" 
d="M168 1466h299v-292h-299v292zM168 72v1015h297v-1024q0 -152 -16 -243q-22 -85 -89 -131q-67 -49 -167 -49q-45 0 -160 16v242q20 -4 39 -4q67 0 82 30q14 28 14 148z" />
    <glyph glyph-name="k" unicode="k" horiz-adv-x="933" 
d="M330 0h-297v1427h297v-780l295 414h272l-272 -359l295 -702h-320l-168 494l-102 -152v-342z" />
    <glyph glyph-name="l" unicode="l" horiz-adv-x="382" 
d="M352 0h-297v1427h297v-1427z" />
    <glyph glyph-name="m" unicode="m" horiz-adv-x="1347" 
d="M330 0h-297v1061h280v-148q76 166 254 166q196 0 230 -166q70 166 258 166q106 0 168 -41q63 -39 84 -102q22 -71 22 -242v-694h-295v662q0 114 -16 151q-15 35 -76 35q-68 0 -86 -43q-20 -41 -20 -187v-618h-297v670q0 108 -17 147q-16 31 -73 31q-37 0 -60 -10
q-22 -9 -37 -37q-15 -27 -18 -68q-4 -58 -4 -115v-618z" />
    <glyph glyph-name="n" unicode="n" horiz-adv-x="870" 
d="M330 0h-297v1061h276v-148q76 166 269 166q108 0 170 -47q68 -41 86 -108q18 -70 18 -230v-694h-295v694q0 99 -22 127q-24 27 -76 27q-82 0 -105 -45q-24 -47 -24 -180v-623z" />
    <glyph glyph-name="o" unicode="o" horiz-adv-x="892" 
d="M877 518q0 -551 -426 -551q-433 0 -433 551q0 549 433 549q426 0 426 -549zM573 518q0 202 -26 270q-28 72 -96 72q-39 0 -60 -12q-23 -17 -37 -51q-16 -44 -22 -105q-6 -67 -6 -174q0 -202 24 -272q25 -72 101 -72q69 0 96 76q26 71 26 268z" />
    <glyph glyph-name="p" unicode="p" horiz-adv-x="899" 
d="M322 -322h-293v1416h270v-156q85 172 246 172q151 0 243 -133q93 -137 93 -393q0 -274 -93 -420q-96 -146 -266 -146q-126 0 -200 99v-439zM322 670v-203q0 -147 24 -193q20 -45 98 -45q72 0 99 62q35 59 35 293q0 192 -27 262q-26 69 -96 69q-65 0 -99 -49t-34 -196z
" />
    <glyph glyph-name="q" unicode="q" horiz-adv-x="888" 
d="M717 1079h160q-9 -76 -9 -266v-1149h-288v471q-85 -125 -220 -125q-152 0 -241 144q-92 142 -92 385q0 288 94 422q95 135 266 135q158 0 248 -152q58 69 82 135zM580 506v156q0 136 -29 192q-27 49 -96 49q-77 0 -101 -55q-22 -55 -22 -270q0 -232 26 -297
q21 -66 97 -66q32 0 53 12q19 8 39 41q15 29 24 90q9 59 9 148z" />
    <glyph glyph-name="r" unicode="r" horiz-adv-x="608" 
d="M330 0h-297v1061h258v-258q73 270 252 270q17 0 51 -6v-291q-28 4 -51 4q-213 0 -213 -325v-455z" />
    <glyph glyph-name="s" unicode="s" horiz-adv-x="831" 
d="M780 793l-209 -64q-47 145 -155 145q-90 0 -90 -94q0 -51 34 -78q39 -30 144 -63q144 -61 174 -82q57 -25 100 -94q37 -67 37 -150q0 -155 -108 -250q-113 -96 -293 -96q-363 0 -398 318l236 37q27 -160 164 -160q119 0 119 100q0 52 -33 78q-38 27 -137 59
q-175 55 -246 138q-74 80 -74 194q0 152 109 244t268 92q281 0 358 -274z" />
    <glyph glyph-name="t" unicode="t" horiz-adv-x="651" 
d="M23 1049h118v325l285 6v-331h197v-236h-197v-387q0 -127 2 -141q21 -72 123 -72h84v-225q-95 -21 -176 -21q-144 0 -207 51q-69 48 -90 123q-21 73 -21 252v420h-118v236z" />
    <glyph glyph-name="u" unicode="u" horiz-adv-x="876" 
d="M33 358v691h297v-682q0 -74 8 -105q6 -32 29 -49q22 -16 61 -16q57 0 90 26q29 29 35 76q4 62 4 207v543h297v-1061h-276v147q-56 -98 -119 -135q-59 -33 -156 -33q-112 0 -170 49q-62 47 -80 117q-20 64 -20 225z" />
    <glyph glyph-name="v" unicode="v" horiz-adv-x="849" 
d="M549 0h-234l-299 1061h283l150 -629l145 629h248z" />
    <glyph glyph-name="w" unicode="w" horiz-adv-x="1310" 
d="M522 0h-241l-265 1061h283l127 -645l119 645h291l92 -645l145 645h230l-265 -1061h-247l-136 719z" />
    <glyph glyph-name="x" unicode="x" horiz-adv-x="933" 
d="M10 0l316 545l-271 516h320l108 -248l140 248h258l-279 -471l318 -590h-320l-156 315l-176 -315h-258z" />
    <glyph glyph-name="y" unicode="y" horiz-adv-x="862" 
d="M322 23l-306 1044h297l142 -651l135 651h258l-322 -1077q-46 -158 -77 -219q-33 -61 -99 -103q-65 -39 -164 -39q-45 0 -125 17v231q18 -2 80 -2q60 0 90 12q29 12 52 41q16 24 39 95z" />
    <glyph glyph-name="z" unicode="z" horiz-adv-x="737" 
d="M397 848h-346v213h658v-191l-390 -661h404v-209h-711v209z" />
    <glyph glyph-name="braceleft" unicode="{" horiz-adv-x="507" 
d="M504 1618v-137q-46 -3 -64 -6q-18 -5 -34 -27q-14 -19 -17 -53q-2 -23 -2 -103v-231q0 -198 -22 -240q-14 -41 -103 -82q84 -36 103 -82q22 -49 22 -237v-262q0 -122 19 -150q19 -32 98 -35v-141h-98q-104 0 -148 12q-129 34 -129 314v370q0 69 -23 99q-21 24 -83 24v178
q72 3 88 29q18 27 18 193v241q0 206 57 269q58 61 217 61q39 0 101 -4z" />
    <glyph glyph-name="bar" unicode="|" horiz-adv-x="415" 
d="M375 -178h-324v1788h324v-1788z" />
    <glyph glyph-name="braceright" unicode="}" horiz-adv-x="536" 
d="M141 -168h-102v141q42 3 63 9q20 3 35 24q16 23 19 53q2 23 2 99v262q0 181 16 237q21 47 111 82q-96 41 -111 82q-16 53 -16 240v231q0 124 -19 156q-23 30 -100 33v137q70 4 100 4q121 0 168 -27q55 -29 82 -92q27 -65 27 -211v-241v-97q0 -75 20 -98q18 -24 82 -27
v-178q-49 0 -76 -18q-19 -19 -22 -49q-4 -36 -4 -156v-270q0 -138 -27 -209t-80 -92q-58 -25 -168 -25z" />
    <glyph glyph-name="asciitilde" unicode="~" horiz-adv-x="1105" 
d="M207 702l-152 129q117 293 320 293q75 0 241 -75q127 -50 160 -50q91 0 160 134l154 -134q-108 -286 -336 -286q-61 0 -238 73q-109 50 -156 50q-78 0 -153 -134z" />
    <glyph glyph-name="nbsp" unicode="&#xa0;" horiz-adv-x="675" 
 />
    <glyph glyph-name="uni00AD" unicode="&#xad;" horiz-adv-x="643" 
d="M72 612v293h499v-293h-499z" />
    <glyph glyph-name="Thorn" unicode="&#xde;" horiz-adv-x="1409" 
d="M928 231v-51q0 -22 33 -22h133q11 0 34 10t23 22v0v0v0v0v0v0h2v0v0h2v0h2v0h2h2h2h2h2h2h2h3h2h2h2h2h2h2h2h2h2h2h2h2h2h2h2h2h2h2h2h2h3h2h2h2h2h2h2h2h2h2h2h2h2h2h2h2h2h2h2h2h2h3h2h2h2h2h2h2h2h2h2h2h2h2h2h2h2h2h2h2h2h2h3h2h2h2h2h2h2h2h2h2h2h2h2h2h2h2h2h2h2
h2h2h3h2h2h2h2h2h2h18q-15 -40 -55 -86t-102 -79q-64 -37 -125 -37h-340q-21 0 -41 10q-17 8 -35 25q-17 17 -25 36t-8 47q0 37 17 76q16 32 34 41l17 8q-41 0 -92 45q-54 45 -54 117v803q0 37 -18 55q-19 19 -45 19h-137q-31 0 -54 -13q-18 -13 -28 -36q-9 -24 -9 -60
q18 -15 37 -28q22 -16 78 -43q57 -28 92 -25v-117q-33 0 -69 -51q-39 -51 -39 -94v-377q102 -83 102 -203q0 -92 -71 -157q-72 -66 -175 -66q-102 0 -161 68q-60 66 -60 129v567q0 50 68 139q70 92 112 103q-81 84 -180 84q0 143 94 237q91 94 232 94h280q105 0 205 -100
q101 -101 101 -254v-676h120v1018h351v-1178h-465zM240 313q-34 0 -56 -22q-22 -25 -22 -60q0 -31 22 -53t56 -22q32 0 57 22q22 22 22 53q0 35 -22 60q-25 22 -57 22z" />
    <glyph glyph-name="ydieresis" unicode="&#xff;" horiz-adv-x="3055" 
d="M2077 1368q-5 -8 -13 -8v10q11 0 13 -2zM1919 1483q-4 -2 -33 -2q-31 6 -94 18q-38 10 -47 10h-21l-16 -10q26 29 43 29h33q16 -2 31 -2h30q34 -9 37 -17q29 -13 37 -26zM2134 1702q0 -41 -25 -166q-13 -56 -28 -133l-15 18q-20 -20 -61 -104q-39 -79 -39 -94v286
q-32 32 -68 181q-85 155 -294 155q-237 0 -295 -190l-97 -162v-326h-22q-24 281 -62 349q-8 -24 -12 -52l-14 52q-6 -27 -6 -39q0 -11 16 -80t16 -84q-79 107 -79 358v76l61 94h12q6 0 6 4v25q89 27 107 194q4 1 8 2.5t9.5 4.5t9.5 4q4 2 12.5 5.5t11.5 4.5q9 3 23 10
q9 3 16 10q5 2 12 13q4 8 4 14q23 0 39 16q28 -22 78 -22q0 18 45 47q13 -26 31 -47q1 3 6 14t8 17q8 19 17 28h18q8 0 33 31q81 0 276 -53q12 -18 39 -39q27 -24 51 -37q24 -18 29 -23q7 -41 66 -196q52 -140 57 -166zM1860 1421l14 -12h-100q-22 0 -74 10h-17l25 23
q21 18 37 18q39 0 63 -8q22 -7 39 -20zM1767 1391q-6 -9 -20 -9v11q20 0 20 -2zM1966 1200v-16q0 -21 -14 -27q3 32 14 43zM1157 1915v10q10 0 10 -6q0 -4 -10 -4zM1532 1425v27q12 0 12 -12q0 -15 -12 -15zM1499 1522q-8 -2 -29 -2h-34q-14 -2 -35 -2q-19 0 -31 2
q-13 0 -37 4q-14 2 -41 10q4 4 8 4l3 6q21 21 65 21q61 0 131 -43zM1673 1245l6 -4h-41l25 6q8 0 10 -2zM1483 1470l16 -16l6 -16q0 -17 -90 -35l55 16q4 4 7 17h-7q-3 0 -7.5 0.5l-13.5 1.5t-17 2q-9 1 -18.5 2t-14.5 1.5t-8 0.5q-52 0 -76 8q2 0 6 4q1 1 4 3t4 3q2 2 10 6
q7 7 11 9q2 1 6.5 2t7.5 2q2 1 7.5 2t8.5 2q6 2 19 2q60 0 84 -17zM1538 1247h-6h-10l-2 4q-15 0 -15 6q0 5 11 5q8 0 12 -2q1 -1 4 -3.5t4 -3.5q2 -2 2 -6zM1755 1141h2q0 -35 -78 -76q-74 -39 -102 -39q-8 0 -14 2q-13 0 -23 2q-19 0 -29 2q-35 0 -77 45q-43 46 -43 84
q2 0 7.5 0.5t17.5 1.5l24 2q29 2 57 2q18 0 49 -8l33 -8q3 0 8.5 0.5t16 1.5t20.5 2q25 2 49 2q14 0 45 -8t37 -8zM1112 1425v13q10 0 10 -6q0 -7 -10 -7zM1223 1157v10l8 -10l4 4q0 -4 -12 -4zM1245 1100v33q12 -3 12 -33h-12zM2617 -10h-2152v106v39q0 39 2 49
q64 377 219 478q95 56 152 79q115 64 317 150q6 0 12 2q15 0 23 2q4 1 27 6q6 1 36 14q7 3 20.5 11.5t18.5 11.5v43v12q0 15 -2 17q-33 56 -33 77v3q13 0 17 -11q2 -8 10 -24q4 -11 19 -29q11 -17 18 -25q19 -18 29 -26q6 -5 12 -10.5t9.5 -9t6.5 -5.5q1 -2 33 -26
q7 -6 15 -12.5t12 -10t6 -4.5q79 -29 129 -29q35 0 84 15q39 10 106 41q61 28 111 84q53 56 80 127q0 -36 -47 -119q-1 0 -9 -4q-6 -4 -10 -8q-6 -6 -8 -7q-2 -2 -4.5 -5.5t-3.5 -4.5l-4 -12q-1 -3 -3 -8.5t-3 -8.5q-2 -6 -2 -20q-2 -8 -2 -25q0 -16 2 -20h8q66 0 96 -12
q329 -122 528 -330q125 -152 125 -416l-2 -84v-24q0 -31 2 -37zM2019 2021q0 15 -20 29q-22 16 -41 16h-4l39 -61q26 0 26 16zM1767 2167q0 10 -22 10v-23q22 0 22 13zM1722 2177q-32 0 -32 -6q0 -8 18 -17q3 0 6 9t8 14zM1245 1974v-22q12 0 12 8q0 14 -12 14zM1860 1409
q-11 0 -21 10q-5 5 -29 17q-16 8 -53 8q-6 0 -10 -4q-2 -1 -14 -13l-21 -14h39q4 0 12 -2t21 -2q14 0 24 2l17 2h6q4 -4 29 -4zM1493 1436h4h-4h4l-8 12q-3 6 -23 12l-6 6l6 -12q0 -10 -24 -16q16 -2 51 -2zM1466 1454q0 4 -8 4q-6 0 -6 -4q0 -10 6 -10q8 0 8 10zM1432 1438
q-19 6 -19 16t14 16h-24q-1 0 -5 -2t-14 -8l-20 -12h10q1 0 4.5 -0.5t10 -1.5t12.5 -2q21 -6 31 -6zM1729 1124q0 9 -29 9l-6 -1q-5 -1 -15 -2t-22 -2q-10 -1 -23 -2l-19.5 -1.5t-10.5 -0.5q-12 0 -39 9q-24 8 -78 8q-9 0 -19 -2q-4 -1 -10 -2l-9 -1.5t-5 -0.5h-6
q21 -58 141 -58q3 0 8.5 0.5t16 1.5t20.5 2q23 2 49 2q1 0 13 4q2 1 14 9q2 1 7 4.5t7 5.5q8 8 10 12q5 5 5 6zM1612 1044l6 5l4 2v6h-12l-4 -2h-7h-12v-11h25zM1548 1038h17l2 6l-2 7h-21l-10 4l-2 -6h6l4 -5zM1976 809q-15 59 -80 59q-16 0 -16 -10q0 -31 23 -61
q-52 -120 -142 -179q3 6 6 21q1 6 5 14t4 9q4 8 8 12q6 6 16 6q1 3 3.5 14.5t6 29t7.5 36.5q12 64 12 88q0 47 -14 61q-143 -88 -242 -88q-51 0 -107 29q-37 19 -151 108q6 -32 8 -32q0 -14 -23 -17q0 -11 3 -45q1 -9 1.5 -20.5t1 -19t1.5 -11.5q-23 19 -68 33l-72 18
q24 -227 320 -377q85 0 153 9q38 17 97 55q74 50 75 51q5 31 84 88q80 53 80 119zM1751 1425q0 17 29 17q28 0 28 -17q0 -12 -28 -12q-29 0 -29 12zM1761 1419q8 0 8 6q-7 7 -8 7q-6 0 -6 -7q0 -6 6 -6z" />
    <glyph glyph-name="OE" unicode="&#x152;" horiz-adv-x="237" 
d="M-27 1915h224q-9 -89 -50 -160q-46 -74 -96 -113q-54 -45 -114 -71q-72 -33 -111 -41q-52 -10 -78 -10h-194v63q13 0 30 10q10 6 23 19l8 10q-30 17 -49 41q-26 29 -33 49q-10 27 -10 49q0 61 47 105q46 43 111 43q52 0 96 -47q41 -50 41 -107q0 -28 -6 -49
q-14 -32 -23 -47q-15 -23 -18 -37q20 0 41 8q29 11 55 29q35 25 55 53q26 33 41 84q13 47 10 119zM-324 1815q-26 0 -41 -15q-16 -16 -16 -39t16 -39t41 -16q22 0 41 16q17 17 17 39q0 7 -4 23q-3 9 -13 16q-12 8 -18 10q-20 5 -23 5z" />
    <glyph glyph-name="oe" unicode="&#x153;" 
d="M-346 2308h203q-3 -54 -25 -110q-18 -45 -51 -91q-30 -38 -68 -65q-50 -37 -75 -49q-54 -24 -76 -31q-41 -15 -66 -18q-32 -7 -49 -7h-180v62q9 0 26 10q20 15 21 16l8 9q-41 21 -61 57q-23 41 -23 70q0 37 21 71q24 34 53 49q36 19 72 19q51 0 90 -45q41 -47 41 -98
q0 -21 -7 -46q-9 -21 -24 -45q-4 -8 -9 -15t-8 -11.5t-4 -5.5q28 0 56 14q28 15 63 43q36 28 56 84q19 53 16 133zM-623 2216q-20 0 -36 -16q-17 -20 -17 -39q0 -18 17 -35q15 -15 36 -15q6 0 21 5q6 2 18 10q8 8 11 16q4 12 4 19q0 22 -17 39q-16 16 -37 16z" />
    <glyph glyph-name="Scaron" unicode="&#x160;" horiz-adv-x="49" 
d="M-145 1929l153 -143q-38 -17 -69 -19q-42 -3 -66 5q-15 3 -53 16q-24 8 -37 8q24 -93 -41 -158q-55 -49 -123 -43q-65 6 -113 54q-41 47 -32 114q6 68 49 111q35 35 90 47q52 12 98 6q39 -8 86 -8q42 -3 58 10zM-334 1786q-16 16 -37 16t-37 -16t-16 -39q0 -20 16 -33
q14 -14 37 -14t37 14q17 14 17 33q0 22 -17 39z" />
    <glyph glyph-name="scaron" unicode="&#x161;" 
d="M-1047 1696q0 101 70 159q67 58 182 58q37 0 105 -15q64 -15 108 -12q22 -3 70 6q28 5 80 19l35 10l39 -86q-136 -42 -203 -39q-43 5 -172 29q-43 9 -76 -33t-33 -86q0 -19 11 -45q9 -21 26 -21l105 99l86 -66q7 33 20 51q15 21 33 33q14 10 41 21q21 6 45 6q55 0 94 -45
q41 -47 41 -99q0 -59 -37 -96q-39 -39 -92 -39q-34 0 -55 8q-30 10 -37 17l-10 8l-117 78l-78 -82l-182 22q-36 0 -66 43q-33 42 -33 97zM-477 1694q-20 0 -37 -17q-16 -16 -16 -37q0 -13 16 -26q15 -15 37 -15q16 0 31 15q14 11 14 26q0 23 -14 37q-17 17 -31 17z" />
    <glyph glyph-name="Ydieresis" unicode="&#x178;" 
d="M-262 2171l156 -143q-29 -16 -54 -19q-29 -3 -51 0q-21 3 -43 10q-18 3 -35 13q-18 6 -24 6q31 -90 -43 -158q-52 -49 -119 -43q-66 6 -113 53q-41 47 -35 115q3 66 48 111q37 37 90 49q52 12 92 6q27 -6 80 -10q38 -3 51 10zM-428 2028q-16 16 -37 16q-23 0 -39 -16
t-16 -39q0 -15 8 -23q10 -13 20 -18q12 -6 27 -6q23 0 37 14q14 11 14 33q0 25 -14 39z" />
    <glyph glyph-name="Zcaron" unicode="&#x17d;" horiz-adv-x="94" 
d="M-285 1774v106h252v-113h86v-151h-100v-105h-238v105h-80v158h80z" />
    <glyph glyph-name="zcaron" unicode="&#x17e;" 
d="M-627 2157v98h252v-105h68v-141h-78v-94h-242v94h-78v148h78z" />
    <glyph glyph-name="florin" unicode="&#x192;" 
d="M-356 1487h-809q0 10 2 18q0 16 8 47q11 42 22 64q13 25 46 67q30 41 67 66q43 28 102 45q64 18 144 18q26 0 84 -10q49 -9 61 -18q2 0 11 6q6 4 10 8t10 8q9 6 12 9t13 6q8 4 10 6l12 4q2 1 7 2t7 2q2 2 13 2h14q19 0 49 -10q27 -12 49 -31q27 -27 39 -51q15 -30 15 -66
q0 -17 -7 -41q-13 -31 -14 -32l-6 -13q14 -33 23 -59q6 -27 6 -37v-10zM-739 1679h-84q-94 0 -117 -39h295q-12 39 -94 39zM-514 1729q-16 0 -31 -15q-14 -14 -14 -35q0 -18 14 -26q16 -13 31 -13q20 0 33 13q12 9 12 26q0 20 -12 35q-15 15 -33 15z" />
    <glyph glyph-name="circumflex" unicode="&#x2c6;" 
d="M-303 1796l74 -80q0 -22 -33 -55q-34 -37 -84 -70t-119 -49q-67 -15 -135 6l20 15q10 8 33 45q21 34 21 75q0 24 -11 50q-11 20 -28 30q-22 11 -39 11q-12 0 -29 -7q-25 -15 -26 -16l-9 -6q-6 6 -8 10q-1 1 -4 3.5t-7.5 7l-8.5 8.5q-11 11 -33 20q-12 5 -41 12
q-26 6 -53 -6q4 -2 18 -2q2 0 14.5 -3t22.5 -7q32 -10 49 -23q22 -16 37 -43q16 -32 16 -71v-15q0 -9 -6 -30q-11 -30 -20 -43q-14 -17 -43 -33q-28 -14 -72 -14q-82 0 -139 63q-58 64 -58 152q0 81 60 129q59 47 133 47q21 0 53 -4q17 -4 39 -13q5 -3 13.5 -7.5t11.5 -6.5
l14 -14l4 -4q45 45 146 45q32 0 65 -11q32 -10 45 -24q19 -19 25 -29q2 -4 7.5 -11.5t6.5 -10.5l2 -11q0 -34 -8 -67q-9 -42 -16 -53q67 42 100 110zM-768 1688q-14 14 -35 14q-23 0 -37 -14q-16 -16 -16 -35q0 -22 16 -35q14 -14 35 -14q18 0 27 6q10 3 16 16q6 9 6 25
q0 22 -12 37z" />
    <glyph glyph-name="tilde" unicode="&#x2dc;" 
d="M-762 1919q56 0 103 -21q39 -19 63 -53q18 -25 35 -65q13 -40 10 -66q-1 -7 -8 -43q70 15 141 86q69 69 66 103h213q6 -91 -45 -160q-54 -76 -131 -115q-76 -39 -160 -61q-83 -21 -148 -21q-323 0 -323 209q0 47 16 90q14 37 43 66q28 25 60 39q34 12 65 12zM-745 1786
q-30 0 -52 -19q-20 -20 -20 -49q0 -30 20 -47q20 -20 52 -20q29 0 49 20q18 18 18 47q0 28 -18 49q-22 19 -49 19z" />
    <glyph glyph-name="uni0E01" unicode="&#xe01;" horiz-adv-x="960" 
d="M504 1280h-127q-96 0 -96 -123q35 -15 57 -29l35 -22q2 -2 20 -14q7 -7 19 -11q10 -3 26 -6q5 -1 21 -2t24 -2v-113q-37 0 -67 -47q-33 -47 -33 -131v-780h-373v739q0 21 10 54q11 33 29 65q23 42 57 78q31 37 80 76q-64 82 -176 82q0 145 94 239t261 94h260
q122 0 223 -98q100 -97 100 -219v-1110h-346v1167q0 29 -12 56q-12 25 -35 41q-26 16 -51 16z" />
    <glyph glyph-name="uni0E02" unicode="&#xe02;" horiz-adv-x="927" 
d="M68 180v426q0 50 14 96q11 43 35 89q20 38 39 67q20 30 41 57q25 32 26 33q-72 0 -143 68q-70 64 -70 170q0 91 68 168q67 73 174 73q110 0 176 -75q66 -78 66 -158q0 -70 -15 -123q-16 -58 -30 -84q-17 -34 -17 -43v-774h41q66 0 66 106v1133h358v-1270q0 -42 -29 -71
q-31 -31 -77 -43q-50 -16 -89 -19q-40 -6 -79 -6h-613v180h58zM252 1264q-34 0 -57 -23q-25 -22 -25 -55q0 -31 25 -53q23 -23 57 -23q29 0 55 23q23 23 23 53q0 32 -23 55q-26 23 -55 23z" />
    <glyph glyph-name="uni0E03" unicode="&#xe03;" horiz-adv-x="978" 
d="M414 1110q10 57 2 102q-9 50 -51 72q-22 10 -46 -4q-24 -12 -34 -12q-11 0 -43 16q-42 18 -45 19q-13 0 -29 -19q-19 -23 -27 -49q25 17 68 20q40 0 72 -14q34 -15 57 -51q22 -42 22 -94q0 -62 -49 -99q-48 -39 -114 -39q-79 0 -138 74q-59 71 -59 135q0 45 25 97
q27 52 57 82q27 31 61 55q26 20 43 20q2 0 45 -18q38 -20 60 -27q12 5 37 19q25 10 37 18q13 8 22 8q7 -2 19 -6q7 -3 15 -6t9 -4t23 -12q6 -3 14 -9.5t10 -7.5q15 -10 25 -18q6 -5 13.5 -13.5t8.5 -9.5q9 -14 19 -26q8 -14 16 -33q1 -5 4 -18t4 -21q4 -28 4 -47
q0 -65 -30 -164q-31 -105 -31 -117v-745q100 9 100 59v1190h357v-1284q0 -57 -62 -92q-64 -37 -129 -37h-692v170h45v463q0 71 25 129q21 55 59 90q33 33 74 68q38 35 73 81q36 49 54 109zM213 1151q-21 0 -33 -12q-12 -15 -12 -33t14 -29q12 -12 31 -12q17 0 29 12t12 29
q0 18 -12 33q-12 12 -29 12z" />
    <glyph glyph-name="uni0E04" unicode="&#xe04;" horiz-adv-x="1095" 
d="M496 561v-555h-367v471q-35 27 -76 117q-43 87 -43 160v303q0 96 35 174q34 75 86 115q49 38 105 57q52 18 96 18h409q43 0 95 -10q30 -6 79 -27q28 -15 62 -41q30 -27 49 -51q15 -22 33 -55q12 -30 18 -57t6 -56v-1118h-354v1116q0 49 -49 95q-53 47 -109 47h-196
q-60 0 -105 -45q-50 -47 -47 -129q-15 -255 8 -320q3 12 6 23t6.5 21.5t4.5 14.5q3 17 24 64q21 44 45 68q25 25 66 45t98 20q47 0 99 -25q44 -23 86 -83q36 -56 36 -144q0 -21 -6 -45q-13 -35 -20 -47q-15 -24 -33 -45q-29 -29 -43 -39q-28 -20 -49 -27q-30 -10 -55 -10z
M471 877q-36 0 -61 -25q-27 -24 -27 -59q0 -36 27 -60q23 -26 61 -26q36 0 59 26q25 25 25 60q0 34 -25 59q-28 25 -59 25z" />
    <glyph glyph-name="uni0E05" unicode="&#xe05;" horiz-adv-x="1091" 
d="M696 780q0 -59 -26 -104q-29 -51 -64 -70q-50 -28 -65 -33q-30 -12 -47 -12v-557h-361v410q0 34 -31 88q-36 64 -61 119q-31 70 -31 141v250q0 81 19 155q14 65 43 111q27 45 63 72q57 38 66 43q25 11 65 20q40 6 49 6h27q21 -15 74 -86q56 -80 61 -86q10 9 60 66
q29 36 71 78q34 30 60 30q110 0 176 -14q75 -16 127 -51q56 -41 82 -109q24 -70 24 -176v-1067h-348v1098q0 21 -10 51q-7 21 -27 49q-17 24 -35 33q-8 -3 -28 -23q-15 -15 -43 -47q-7 -8 -16 -17.5t-21.5 -23t-20.5 -22.5q-34 -37 -57 -60q-40 45 -88 113q-52 65 -74 96
q-33 -22 -57 -61q-32 -49 -29 -94q-3 -292 8 -326q3 27 17 64q10 31 39 81q21 41 71 78q44 33 107 33q105 0 168 -63t63 -183zM471 870q-35 0 -59 -24q-25 -25 -25 -60q0 -31 25 -53q24 -24 59 -24q31 0 55 24q25 22 25 53q0 35 -25 60q-24 24 -55 24z" />
    <glyph glyph-name="uni0E06" unicode="&#xe06;" horiz-adv-x="1097" 
d="M1083 1419v-1419h-364q-27 41 -66 86q-79 69 -108 92q-15 -83 -84 -137q-66 -51 -162 -51q-89 0 -154 65q-67 64 -67 142q0 160 90 223q-2 4 -10 16q-2 3 -6.5 8.5t-6.5 8.5q-8 12 -10 22q-6 12 -6 29v164q0 66 27 116q25 47 67 82q37 28 80 64q37 31 72 88q30 56 39 131
q3 23 -2 47q-8 25 -21 47q-12 21 -24 27q-8 6 -27 10q-17 0 -23 -2t-22 -10q-15 -6 -19 -6q-3 3 -18 12q-5 3 -16.5 8t-16.5 8q-15 6 -28 6q-17 0 -31 -20q-19 -22 -19 -45q1 1 6.5 3.5t8.5 4.5q9 3 12 6q1 0 2 0.5t3.5 1.5t4.5 2q4 2 13 2h12q3 -1 8 -2t8 -2q55 0 94 -45
t39 -112q0 -49 -41 -93q-40 -43 -104 -43q-94 0 -152 64q-61 61 -61 139q3 147 170 262q13 -8 47 -18q40 -18 43 -19q18 -10 21 -14q6 11 102 53q1 -1 27 -12q7 -3 16 -8t12 -6q2 -1 10.5 -7t16.5 -10q21 -14 27 -20q2 -2 10 -11t14 -14q8 -8 23 -33q1 -3 6 -15.5t8 -20.5
q9 -21 12 -47q2 -18 2 -56q0 -63 -41 -178q-43 -113 -43 -152v-415q65 -33 105 -62t135 -108v1173h360zM215 1141q-15 0 -31 -13q-14 -11 -14 -28q0 -19 14 -27q15 -12 31 -12q12 0 21 6q9 3 16 14q6 9 6 19q0 16 -12 28q-16 13 -31 13zM315 309q-33 0 -55 -22
q-24 -24 -24 -58t24 -55q22 -22 55 -22q34 0 56 22t22 55t-22 58q-22 22 -56 22z" />
    <glyph glyph-name="uni0E07" unicode="&#xe07;" horiz-adv-x="798" 
d="M223 545q-55 171 -213 510h266q77 -141 130 -301q50 -140 100 -318q-9 91 -74 303v232q-10 10 -26 24q-31 27 -41 41q-19 23 -33 60q-17 46 -17 90q0 103 70 170q71 65 166 65q89 0 162 -67q71 -71 71 -135v-1045q0 -78 -53 -125q-52 -49 -119 -49h-264q-3 67 -41 233
q-51 204 -84 312zM598 1237q-20 20 -53 20q-31 0 -51 -20q-23 -23 -23 -53q0 -33 23 -56q22 -22 53 -22q29 0 51 22q20 20 20 56q0 33 -20 53z" />
    <glyph glyph-name="uni0E08" unicode="&#xe08;" horiz-adv-x="905" 
d="M291 1425h289q73 0 141 -36q69 -37 123 -115q53 -80 53 -180q0 -56 -20 -123q-13 -44 -50 -150q-25 -70 -61 -215q-34 -139 -49 -303v-303h-357q0 302 -6 379q-6 75 -45 104q-6 0 -12 2q-15 1 -55 7q-14 2 -66 20q-44 14 -72 39q-28 24 -49 72q-22 49 -22 108
q0 98 69 164q72 66 162 66q54 0 103 -17q44 -15 71 -53q19 -26 41 -66q10 -20 35 -86q14 -46 31 -84q-15 67 -33 158l53 248q18 104 -24 164q-43 61 -135 61q-93 0 -152 -59q-57 -57 -57 -127h-197q0 133 96 229t195 96zM268 807q-32 0 -55 -23q-23 -26 -23 -55
q0 -34 23 -57q22 -25 55 -25t58 25q22 22 22 57q0 30 -22 55q-26 23 -58 23z" />
    <glyph glyph-name="uni0E09" unicode="&#xe09;" horiz-adv-x="1052" 
d="M526 1268h-155q-56 0 -103 -56q-49 -55 -49 -125h-201q0 127 93 228q91 98 225 98h364q85 0 150 -33q69 -35 108 -86q39 -53 60 -118q20 -61 20 -134v-526q0 -16 -6 -31q-8 -20 -14 -30q-9 -15 -19 -25q-3 -4 -8.5 -10.5t-7.5 -9.5l-6 -7q0 -3 18 -24q20 -28 35 -62
q19 -43 19 -88q0 -17 -7 -45q-3 -12 -16 -51q-12 -27 -33 -51q-24 -27 -45 -43q-28 -22 -63 -33q-40 -12 -82 -12q-133 0 -209 125q-67 -67 -84 -119h-436v164h67v397q-4 4 -8 6q-2 1 -4.5 4t-7 8t-8.5 9q-19 20 -27 37q-10 15 -20 53q-11 42 -11 70q0 112 72 172
q69 57 166 57q93 0 156 -72q61 -70 61 -143v-498q24 35 49 64q5 7 45 47q21 21 64 51v696q0 38 -45 92q-48 54 -97 54zM807 313q-33 0 -55 -22q-23 -26 -23 -60q0 -30 23 -53q22 -22 55 -22q32 0 57 22q23 23 23 53q0 34 -23 60q-25 22 -57 22zM281 831q-19 0 -39 -10
t-29 -28q-10 -20 -10 -41q0 -22 12 -37q8 -17 29 -27q20 -10 41 -10q19 0 39 10q19 10 28 27q8 13 8 37q0 32 -22 57q-22 22 -57 22z" />
    <glyph glyph-name="uni0E0A" unicode="&#xe0a;" horiz-adv-x="937" 
d="M246 1415q84 0 141 -45q59 -47 80 -102q19 -51 16 -107q45 23 72 60q34 51 45 90q16 56 16 108h320q-15 -109 -62 -174q-46 -64 -122 -110q64 -40 116 -113q52 -76 52 -148v-751q0 -44 -39 -70q-46 -34 -78 -41q-41 -12 -72 -12h-713v170h115v571q0 109 82 191
q-29 3 -63 18q-30 12 -72 45q-36 28 -57 78q-23 51 -23 107q0 94 72 166q69 69 174 69zM246 1253q-36 0 -58 -22q-24 -21 -24 -57q0 -33 24 -54q21 -24 58 -24q32 0 53 24q23 23 23 54q0 34 -23 57q-22 22 -53 22zM571 231v705q0 50 -22 92q-18 32 -68 82v-940q42 -3 66 10
q24 15 24 51z" />
    <glyph glyph-name="uni0E0B" unicode="&#xe0b;" horiz-adv-x="966" 
d="M180 1415q22 -4 45 -14t45 -25l17 -12q88 55 100 55q202 -67 193 -248q98 82 98 244h276q0 -56 -10 -104q-8 -37 -35 -76q-26 -37 -45 -51q-33 -28 -63 -49q-1 -1 -3 -2.5t-3 -2.5l-4 -4q-1 -1 -3.5 -2t-3.5 -2q67 -46 101 -88q39 -51 57 -100q16 -56 16 -103v-714
q0 -37 -71 -78q-68 -39 -125 -39h-707v168h115v473q0 77 27 139q24 57 59 99q12 12 72 73q33 33 61 84q25 52 25 113q0 45 -2 59q-3 18 -17 43q-12 20 -37 33q-18 3 -24 0l-8 -3q-9 -3 -15 -7q-15 -9 -24 -12q-14 0 -37 10q-29 11 -41 18q-16 6 -33 -4q-15 -12 -24 -51
q88 34 151 -10q62 -44 62 -125q0 -75 -48 -111q-50 -35 -116 -35q-55 0 -99 33q-49 36 -71 82q-27 49 -27 98q0 39 23 90q20 44 53 82q27 31 59 56q26 20 41 20zM219 1139q-15 0 -26 -11q-13 -13 -13 -28q0 -12 6 -21q3 -8 15 -12q9 -6 18 -6q15 0 27 12q12 9 12 27
q0 16 -12 28q-15 11 -27 11zM610 236v677q0 135 -37 181q-13 -44 -20 -64q-21 -62 -25 -76q-10 -38 -10 -61v-725h39q21 0 37 22t16 46z" />
    <glyph glyph-name="uni0E0C" unicode="&#xe0c;" horiz-adv-x="1454" 
d="M575 477l-2 12v695q0 40 -26 69q-28 28 -74 31h-106q-58 0 -80 -31q-23 -33 -23 -90q1 -1 5 -3.5t12 -7t16 -9.5q23 -18 41 -27q3 -2 15.5 -8t21.5 -10q29 -14 47 -17q24 -7 43 -4v-110q-4 0 -25 -15t-34 -28t-25 -43q-14 -32 -14 -72v-373q8 -12 36 -41q26 -29 37 -43
q13 -17 25 -53q12 -37 12 -84q0 -91 -71 -156t-170 -65q-92 0 -158 72q-68 71 -68 149v537q0 67 58 149q59 80 112 119q-7 2 -35 24q-18 12 -43 27q-6 2 -21.5 7t-21.5 7q-27 9 -59 9q9 132 94 233q82 98 225 98h299q38 0 93 -22q46 -22 98 -68q46 -40 82 -114
q31 -73 31 -156v-649q27 -9 57 -29q48 -32 57 -39q22 -17 54 -33v1098h348v-1413h-281q-2 3 -16.5 19.5t-24.5 29.5t-24.5 28.5t-16.5 18.5q-12 15 -39 39q-41 37 -59 49q-12 -74 -80 -133q-69 -57 -152 -57q-76 0 -129 35t-77 88q-27 53 -27 119q0 58 23 106q22 46 65 86
q-9 6 -16 23t-9 26zM246 307q-36 0 -58 -22q-24 -24 -24 -60q0 -32 24 -53q22 -25 58 -25q31 0 53 25q23 23 23 53q0 34 -23 60q-22 22 -53 22zM803 295q-27 24 -58 24q-33 0 -57 -24q-24 -27 -24 -59q0 -34 26 -60q24 -27 55 -24q39 3 62 26q22 25 22 58t-26 59z" />
    <glyph glyph-name="uni0E0E" unicode="&#xe0e;" horiz-adv-x="1011" 
d="M600 518v-225l-35 -39q13 -7 39 -25q4 -4 11 -9t11 -8.5t7 -6.5l8 -8v974q0 44 -25 66q-26 23 -49 23l-24 2h-140q-94 0 -94 -123q20 0 47 -21q36 -28 74 -45q49 -22 109 -22v-109q-15 0 -33 -24q-19 -25 -19 -48v-252q0 -83 -63 -137q-64 -55 -176 -55q-102 0 -170 53
t-68 127q0 44 25 86q20 39 47 56q22 16 35 16q0 86 37 135q36 47 110 82q-27 7 -53 33q-32 29 -68 49q-39 20 -92 20q0 142 90 238q88 94 240 94h252q151 0 258 -104q106 -106 106 -269v-1042h-364q-4 4 -18 17t-23 22l-37 37q-30 24 -37 30q-24 21 -47 35q-2 -4 -12 -14
q-2 -2 -13 -14t-20 -21q-29 -29 -53 -45q-29 -23 -68 -37q-46 -16 -82 -16q-120 0 -178 55q-57 51 -57 129q0 84 67 148q67 61 197 61q44 0 90 -14q52 -17 74 -29l26 -14q19 19 27 30q9 13 51 62q41 48 58 70zM252 680q-38 0 -64 -16q-24 -18 -24 -48t26 -47q23 -20 58 -20
q32 0 59 18q25 19 25 49q0 13 -6 25q-6 8 -19 21q-10 8 -26 14q-20 4 -29 4zM340 195l18 24q-74 39 -116 39q-34 0 -58 -18q-25 -16 -28 -50q-3 -33 18 -51q20 -20 57 -20q31 0 60 26q29 23 49 50z" />
    <glyph glyph-name="uni0E0F" unicode="&#xe0f;" horiz-adv-x="1011" 
d="M997 1042v-1042h-352l-74 74l-90 -74l-71 80q-24 -27 -78 -55q-60 -31 -119 -31q-104 0 -168 55q-63 51 -63 129q0 76 69 139q70 64 174 64q49 0 113 -23q59 -25 84 -45l172 176v-208l-82 -72l23 -23l49 39l55 -45v991q0 44 -25 66q-26 23 -49 23l-22 2h-133
q-49 0 -70 -37q-25 -39 -25 -86q18 0 45 -21q38 -30 72 -45q49 -22 107 -22v-109q-15 0 -33 -24q-19 -25 -19 -48v-241q0 -99 -63 -150q-65 -53 -176 -53q-97 0 -168 53q-70 52 -70 127q0 44 29 94q27 46 78 68v8q-2 4 2 23q4 20 6 32q4 22 14 39q3 8 27 41q18 22 41 37
q26 20 57 33q-27 7 -53 33q-32 29 -68 49q-39 20 -92 20q0 141 92 236q93 96 244 96h246q151 0 258 -104q106 -106 106 -269zM332 618q0 12 -10 29q-9 16 -31 25q-19 8 -45 8q-37 0 -58 -18q-24 -18 -24 -44q0 -34 26 -51q24 -18 62 -18q21 0 37 8q17 8 30 25q13 16 13 36z
M332 182l12 19q-66 57 -119 57q-35 0 -63 -22q-30 -23 -27 -52q4 -20 10 -26q11 -14 23 -19q8 -3 27 -8q8 -2 24 -2q38 3 68 21q26 13 45 32z" />
    <glyph glyph-name="uni0E10" unicode="&#xe10;" horiz-adv-x="989" 
d="M502 825l8 -16l106 -266v205q0 103 -69 178q-73 76 -182 96q-103 16 -191 8q-96 -9 -145 -31v158q0 33 20 74q22 42 62 88q37 42 116 78q76 30 172 30q86 0 160 -26q73 -27 158 -27q45 0 98 15q56 16 84 30l62 -162q-64 -49 -197 -55q-41 -3 -150 31q-112 34 -200 31h-15
q-14 0 -28 -2t-41 -11q-20 -7 -37 -18q-20 -13 -29 -31q52 15 129 15q53 0 123 -15q81 -17 152 -47q86 -36 151 -76q74 -49 117 -114q45 -68 45 -150l-4 -567h-406q-4 10 -51 106q-32 63 -61 119l-27 49q-77 -45 -145 -45q-78 0 -133 43q-59 41 -80 90q-23 54 -23 92
q0 64 25 119q21 53 59 80q37 29 72 43t69 14q53 0 91 -14q32 -12 67 -39q25 -21 43 -43q19 -22 25 -37zM580 209h393q0 -130 -29 -170q-26 -39 -119 -39q-29 0 -92 14q-71 15 -127 15q-123 0 -196 -33l-52 49q-42 -45 -129 -45q-109 0 -168 86q-61 85 -55 178q2 31 21 90
q14 45 34 74q20 30 39 49q54 -36 90 -49q31 -11 91 -14q-111 -68 -111 -150q0 -38 27 -65q25 -31 67 -31q29 0 53 12q21 12 31 29l55 -51l52 49q18 -34 59 -37q40 -3 66 39zM344 774q-23 23 -53 23q-32 0 -55 -23q-23 -26 -23 -57q0 -32 23 -55t55 -23q30 0 53 23t23 55
q0 31 -23 57z" />
    <glyph glyph-name="uni0E11" unicode="&#xe11;" horiz-adv-x="1097" 
d="M528 729l179 698h163q99 -9 156 -84t57 -215v-1128h-360v793l57 309l-284 -1102h-363v612q0 57 23 121q18 49 57 94q46 50 74 78q14 14 38 38.5t35 35.5q33 33 54 80q21 46 18 96q-3 71 -37 105q-35 32 -104 -3l-66 29q-38 -20 -57 -57q60 40 131 -4q70 -43 76 -119
q0 -44 -21 -82q-18 -36 -57 -59q-37 -21 -78 -21q-91 0 -149 70q-60 69 -60 141q0 17 4 45q2 12 15 43q5 10 20 35q11 18 25 35q5 5 13.5 14.5t12.5 13.5q5 5 29 25q10 10 25 20q2 1 9.5 6.5t12.5 8.5q14 8 14 12l103 -53l104 55q7 -2 17 -6q5 -3 15 -8t15 -8q12 -7 37 -25
q21 -15 39 -33q20 -20 35 -41q11 -16 23 -51q5 -25 2 -59q-1 -8 -4.5 -33t-11.5 -79t-15 -105l-68 -416zM225 1135q-15 0 -28 -13t-13 -28q0 -17 13 -27q12 -12 30 -12q17 0 29 12q12 9 12 27q0 11 -6 20q-8 12 -14 16q-15 5 -23 5z" />
    <glyph glyph-name="uni0E12" unicode="&#xe12;" horiz-adv-x="1607" 
d="M891 1391q21 -12 53 -33q36 -27 62 -51q37 -37 57 -84t20 -107v-696q56 -24 74 -35q57 -41 72 -53v1089h364v-1421h-362q-12 81 -92 164q-17 -63 -78 -117q-62 -53 -152 -53q-45 0 -88 18q-45 19 -73 51q-34 34 -52 80q-18 47 -18 103q0 68 33 121q35 53 59 53
q-35 65 -35 69v627q0 58 -55 101l-176 -195l-168 229q-25 -11 -51 -37q-26 -29 -39 -59q-17 -39 -17 -61v-318q0 -157 93 -241l26 59l-20 20q-12 10 -27 25q-5 5 -20 31q-15 21 -21 47q-6 27 -6 59q0 89 65 160q65 68 164 68q98 0 162 -64t64 -164q0 -50 -31 -110
q-38 -68 -72 -107q-37 -43 -69 -108q-33 -62 -33 -119v-332h-363v332q0 70 -32 147q-54 125 -66 148q-33 65 -33 104v369q0 84 58 166q57 85 147 125q73 28 191 28l110 -151l152 151q162 0 223 -28zM528 834q-21 24 -51 24q-29 0 -53 -24q-25 -25 -25 -54q0 -14 9 -26
q5 -12 16 -23q10 -10 25 -16t28 -6q29 0 51 22q23 23 23 49q0 28 -23 54zM909 315q-35 0 -57 -22q-23 -26 -23 -62q0 -32 23 -55q21 -24 57 -24q38 0 62 24q22 22 22 55q0 37 -22 62q-25 22 -62 22z" />
    <glyph glyph-name="uni0E13" unicode="&#xe13;" horiz-adv-x="1437" 
d="M897 0h-324v1184q0 30 -32 55q-37 29 -54 29h-96q-31 0 -47 -8q-22 -11 -29 -23q-13 -16 -16 -37q-6 -21 -6 -49q2 -2 41 -27q15 -10 51 -32q18 -11 45 -19q32 -11 57 -8v-111q-15 -7 -28 -18q-20 -16 -35 -31q-21 -25 -31 -47q-12 -27 -12 -55v-389q16 -21 41 -43
q33 -38 43 -66q12 -35 12 -92q0 -96 -67 -160q-66 -63 -174 -63q-95 0 -160 65q-66 66 -66 158v518q0 67 68 156q69 87 125 123q-22 15 -35 26q-29 22 -41 29q-21 13 -43 20q-27 9 -57 9q0 126 98 227q93 100 227 100h258q22 0 60 -10q22 -7 65 -29q29 -15 68 -49
q43 -49 57 -69q30 -50 41 -90q14 -49 14 -109v-758q30 30 70 58q53 37 80 45v987h356v-865q0 -60 -14 -98q-16 -43 -29 -51l-14 -12q10 -15 20 -29q18 -25 19 -29q4 -12 12 -28q6 -12 10 -41q2 -14 2 -54q0 -91 -75 -151q-77 -62 -166 -62q-96 0 -152 50q-55 46 -67 92
q-1 -1 -3 -2t-3 -2q-4 -2 -19 -17q-8 -8 -20 -24q-14 -23 -17 -33q-8 -19 -8 -41zM246 303q-36 0 -58 -22q-24 -24 -24 -58t24 -55q23 -23 58 -23q30 0 53 23t23 55t-23 58q-22 22 -53 22zM1245 262q-26 23 -55 23q-32 0 -55 -23q-25 -25 -25 -55q0 -24 12 -39
q10 -19 29 -29q20 -10 39 -10q32 0 55 23t23 55q0 29 -23 55z" />
    <glyph glyph-name="uni0E14" unicode="&#xe14;" horiz-adv-x="1101" 
d="M496 326v-322h-367v393q0 30 -29 99q-41 89 -59 135q-31 73 -31 121v303q0 96 35 174q34 72 86 112q48 37 105 60q52 18 96 18h403q87 0 154 -33q70 -34 110 -86q46 -59 64 -110q20 -56 20 -113v-1073h-354v1114q0 20 -22 56q-19 32 -60 61q-41 27 -76 27h-196
q-55 0 -101 -52q-49 -52 -49 -123v-356q0 -35 27 -106q28 -74 63 -99l29 62q-19 0 -57 59q-39 56 -39 127q0 94 67 164q65 68 158 68q99 0 164 -62q65 -65 65 -164q0 -103 -92 -209q-1 -1 -7.5 -12.5t-12.5 -19.5q-5 -8 -15.5 -25t-15.5 -25q-6 -9 -16.5 -29t-12.5 -24
q-12 -23 -24 -57q-10 -30 -10 -53zM473 852q-19 0 -39 -10q-14 -7 -26 -27q-11 -18 -11 -37q0 -21 11 -39q11 -19 26 -26q22 -11 39 -11q32 0 55 23q21 21 21 53t-21 53t-55 21z" />
    <glyph glyph-name="uni0E15" unicode="&#xe15;" horiz-adv-x="1097" 
d="M674 1206l-185 -186l-163 225q-26 0 -66 -49q-41 -53 -41 -123v-354q0 -39 27 -103q24 -68 63 -94l27 68q-11 0 -33 22q-23 23 -43 64t-20 88q0 95 69 164q66 69 162 69q100 0 164 -61q61 -64 61 -166q0 -19 -4 -47q-6 -26 -18 -49q-15 -27 -21 -39q-11 -21 -26 -41
q-6 -8 -12.5 -17t-10 -13.5t-4.5 -6.5q-111 -156 -111 -242v-311h-366v393q0 27 -29 90q-33 69 -55 125q-29 76 -29 140v303q0 82 25 149q21 64 57 103q35 38 80 61q49 25 84 33q36 8 76 8h67l111 -156l147 152h136q111 0 200 -109q90 -113 90 -241v-1051h-354v1073
q0 24 -8 51q-7 25 -23 56q-16 22 -24 22zM465 848q-32 0 -53 -21t-21 -53q0 -17 6 -29q2 -11 15 -24q12 -11 24 -14q14 -7 29 -7q19 0 41 11q19 11 26 26q11 18 11 37q0 30 -23 53q-21 21 -55 21z" />
    <glyph glyph-name="uni0E16" unicode="&#xe16;" horiz-adv-x="962" 
d="M375 780v-360q98 -76 98 -201q0 -85 -74 -156q-75 -72 -168 -69q-83 0 -151 59q-70 58 -70 133v553q0 51 45 125q47 79 131 146q-71 80 -176 80q0 96 43 172q41 71 127 120q82 43 195 43h237q126 0 232 -100q104 -101 104 -229v-1096h-346v1163q0 31 -12 58
q-12 25 -35 41q-22 14 -51 14h-123q-100 0 -100 -121q42 -19 75 -41q31 -20 35 -27q6 -9 25 -12q14 -5 61 -8v-113q-31 0 -65 -51q-37 -52 -37 -123zM236 307q-34 0 -56 -22q-22 -25 -22 -60q0 -29 22 -51t56 -22q35 0 57 22t22 51q0 35 -22 60q-25 22 -57 22z" />
    <glyph glyph-name="uni0E17" unicode="&#xe17;" horiz-adv-x="1089" 
d="M686 1427h162q97 -9 162 -86q63 -75 63 -213v-1128h-356v819l53 314l-289 -1133h-364v616v361q0 8 -27 29q-26 20 -53 61t-27 88q0 118 70 188q69 72 172 72q63 0 119 -35q55 -40 80 -82q26 -45 26 -81v-537l-35 -215zM246 1262q-35 0 -58 -23q-24 -24 -24 -55
q0 -37 24 -58q21 -24 58 -24q32 0 53 24q23 23 23 58q0 29 -23 55q-23 23 -53 23z" />
    <glyph glyph-name="uni0E18" unicode="&#xe18;" horiz-adv-x="854" 
d="M354 922h-348v206q36 144 141 218q106 75 252 81q65 3 117 -6q46 -8 82 -26q37 -22 61 -39q46 -32 54 -39q24 -20 57 -29q40 -10 72 -8l-62 -170q-51 -3 -108 31q-78 46 -113 71q-53 38 -92 35q-52 0 -80 -22q-28 -24 -37 -56q-8 -27 -8 -75q225 15 365 -72
q135 -86 135 -277v-612q0 -55 -31 -94q-33 -39 -104 -39h-701v170h62v666h235h23q10 -5 20 -7q15 -6 23 -14q5 -8 12 -31q6 -21 6 -53v-561h86v639q0 39 -37 76t-82 37z" />
    <glyph glyph-name="uni0E19" unicode="&#xe19;" horiz-adv-x="1073" 
d="M248 1419q60 0 106 -24q48 -28 74 -64t41 -71q12 -37 12 -64v-926q44 47 80 74q43 34 82 57q47 29 53 35v983h361v-884q0 -32 -8 -56q-7 -21 -19 -41q-3 -4 -10 -13.5t-10 -12.5l-11 -15q0 -1 2 -3t6.5 -7t8.5 -10q19 -23 33 -60q16 -43 16 -98q0 -58 -25 -106
q-28 -52 -63 -74q-42 -28 -76 -39q-41 -12 -72 -12q-84 0 -143 53q-61 52 -76 104q-31 -14 -59 -49q-33 -35 -49 -65l-19 -31h-426v174h62v803q-113 70 -113 209q0 64 33 114q29 50 86 86q53 33 123 33zM246 1251q-20 0 -37 -10q-21 -10 -29 -24q-10 -17 -10 -37
q0 -29 23 -52q22 -22 53 -22q27 0 49 22q20 20 20 52q0 31 -20 51t-49 20zM829 307q-21 0 -41 -10q-19 -13 -28 -31q-12 -18 -12 -41q0 -32 24 -53q22 -25 57 -25q32 0 54 25q22 22 22 53q0 35 -22 60q-22 22 -54 22z" />
    <glyph glyph-name="uni0E1A" unicode="&#xe1a;" horiz-adv-x="1085" 
d="M248 1427q112 0 170 -67q59 -71 59 -154v-1042h158q82 0 82 65v1176h354v-1272v-18q-1 -2 -2 -7.5t-3 -12.5t-5 -13q-9 -21 -27 -39q-22 -19 -55 -29q-35 -14 -88 -14h-862v164h90v813q0 3 -17 20q-15 15 -36 33q-25 18 -39 62q-17 49 -17 104q0 114 64 172q62 59 174 59
zM246 1270q-19 0 -39 -10q-18 -9 -29 -27q-10 -20 -10 -37q0 -15 6 -27q4 -10 16 -22t25 -17q15 -6 31 -6q28 0 51 23q22 22 22 49q0 29 -22 51q-23 23 -51 23z" />
    <glyph glyph-name="uni0E1B" unicode="&#xe1b;" horiz-adv-x="1085" 
d="M248 1425q105 0 170 -65q63 -66 63 -154v-1048h154q82 0 82 65v1338h354v-1428v-18q-1 -2 -2 -7.5t-3 -12.5t-5 -13q-9 -21 -27 -39q-22 -19 -55 -29q-35 -14 -88 -14h-862v164h90v813q0 3 -17 20q-15 15 -36 33q-25 18 -39 62q-17 49 -17 104q0 100 78 166q75 63 160 63
zM303 1235q-22 22 -51 22q-31 0 -53 -22q-25 -22 -25 -51t25 -51q23 -23 53 -23q28 0 51 23t23 51t-23 51z" />
    <glyph glyph-name="uni0E1C" unicode="&#xe1c;" horiz-adv-x="991" 
d="M641 0l-129 473l-84 -328q-35 -126 4 -145h-332q-39 0 -63 41q-27 41 -27 94v1065q0 83 70 156q71 71 172 71q38 0 84 -16q36 -13 78 -47q37 -32 57 -80q23 -54 23 -110q0 -67 -37 -119q-43 -56 -80 -78v-332l-23 -162l140 529l153 -529l-29 162v774h359v-1419h-336z
M309 1241q-23 23 -53 23q-31 0 -57 -23q-25 -22 -25 -55q0 -34 25 -56q24 -24 55 -24q19 0 39 10t29 31q10 20 10 39q0 32 -23 55z" />
    <glyph glyph-name="uni0E1D" unicode="&#xe1d;" horiz-adv-x="991" 
d="M641 0l-129 473l-84 -328q-35 -126 4 -145h-332q-39 0 -63 41q-27 41 -27 94v1065q0 83 70 156q71 71 172 71q38 0 84 -16q36 -13 78 -47q37 -32 57 -80q23 -54 23 -110q0 -67 -37 -119q-43 -56 -80 -78v-332l-23 -162l140 529l153 -529l-29 162v922h359v-1567h-336z
M309 1241q-23 23 -53 23q-31 0 -57 -23q-25 -22 -25 -55q0 -34 25 -56q24 -24 55 -24q19 0 39 10t29 31q10 20 10 39q0 32 -23 55z" />
    <glyph glyph-name="uni0E1E" unicode="&#xe1e;" horiz-adv-x="1118" 
d="M264 1427q34 0 74 -12q38 -14 80 -45q36 -27 65 -92q27 -62 27 -143v-359l-39 -250l147 660l191 -660l-55 250v639h348v-1415h-350l-129 584l-97 -465q-1 -3 -2 -12t-2 -13q-4 -20 -4 -22q-1 -3 -2 -10t-2 -11q-3 -13 -6 -16t-6 -12q-2 -3 -10 -11q-2 -1 -6.5 -3t-6.5 -3
q-12 -4 -16 -4q-6 -2 -21 -2h-358v164h55v797q-7 2 -20 12q-14 7 -31 24q-20 17 -37 41q-15 21 -28 58t-13 75q0 102 74 179q71 77 180 77zM315 1233q-20 20 -53 20t-53 -20q-23 -23 -23 -53q0 -21 11 -39q10 -19 26 -29q17 -10 39 -10q14 0 29 6q13 5 24 16q8 8 15 25
q6 15 6 31q0 32 -21 53z" />
    <glyph glyph-name="uni0E1F" unicode="&#xe1f;" horiz-adv-x="1118" 
d="M264 1427q34 0 74 -12q38 -14 80 -45q36 -27 65 -92q27 -62 27 -143v-359l-39 -250l147 660l191 -660l-55 250v795h348v-1571h-350l-129 584l-97 -465q-1 -3 -2 -12t-2 -13q-4 -20 -4 -22q-1 -3 -2 -10t-2 -11q-3 -13 -6 -16t-6 -12q-2 -3 -10 -11q-2 -1 -6.5 -3t-6.5 -3
q-12 -4 -16 -4q-6 -2 -21 -2h-358v164h55v797q-7 2 -20 12q-14 7 -31 24q-20 17 -37 41q-15 21 -28 58t-13 75q0 102 74 179q71 77 180 77zM315 1233q-20 20 -53 20t-53 -20q-23 -23 -23 -53q0 -21 11 -39q10 -19 26 -29q17 -10 39 -10q14 0 29 6q13 5 24 16q8 8 15 25
q6 15 6 31q0 32 -21 53z" />
    <glyph glyph-name="uni0E20" unicode="&#xe20;" horiz-adv-x="1005" 
d="M487 842v-629q0 -76 -63 -145q-65 -74 -176 -74q-96 0 -168 72q-70 70 -70 141q0 33 6 67q5 27 17 54q8 18 24 41q12 18 25 28q19 19 24 23q14 11 17 16v273q0 58 37 133q39 80 110 139q-24 3 -59 27q-55 38 -72 47q-41 21 -88 18q0 151 92 246q91 94 256 94h252
q126 0 232 -100t106 -230v-1083h-354v1151q0 42 -25 78q-23 33 -67 33h-123q-58 0 -82 -35q-25 -39 -25 -88q24 -11 78 -39q29 -18 43 -27q11 -7 31 -10q17 -5 63 -8v-119q-41 0 -41 -94zM252 309q-35 0 -57 -22q-25 -25 -25 -58q0 -31 25 -53q20 -20 57 -20q19 0 39 10
q17 10 28 27q11 18 11 36q0 32 -23 58q-25 22 -55 22z" />
    <glyph glyph-name="uni0E21" unicode="&#xe21;" horiz-adv-x="1114" 
d="M326 -16q-96 0 -166 73q-72 72 -72 172q0 32 10 70q9 33 23 53q12 21 26 35l25 25q8 8 8 10q0 4 -18 22q-21 15 -21 37v492q-45 15 -88 78q-43 61 -43 123q0 107 72 176q71 65 172 65q114 0 178 -82t64 -194v-725q93 -48 149 -84q41 -27 96 -78v1169h359v-1421h-355
q-113 137 -188 178q-3 -64 -72 -127q-70 -67 -159 -67zM309 1233q-20 20 -53 20t-53 -20q-23 -23 -23 -53q0 -33 23 -56q22 -22 51 -22q16 0 31 6q12 6 22 16q12 12 17 25q6 15 6 31q0 32 -21 53zM385 283q-27 24 -57 24q-34 0 -58 -24q-24 -27 -24 -60q0 -34 24 -55
q26 -23 58 -23q29 0 57 25q25 22 25 53q0 32 -25 60z" />
    <glyph glyph-name="uni0E22" unicode="&#xe22;" horiz-adv-x="960" 
d="M375 973v-99q0 -52 51 -75q52 -25 117 -25v-149q-162 0 -162 -142v-313h158q21 0 30 12q10 10 13 23q2 8 2 35v1165h360v-1231q0 -54 -22 -96q-25 -42 -62 -60q-38 -18 -84 -18h-764v180h29v324q0 71 43 117q37 43 90 65q-43 20 -104 105q-58 82 -58 190v100
q-2 47 -2 115q0 32 15 70q12 36 38 73q24 37 72 62q47 24 107 24q121 0 184 -75t63 -164q0 -54 -18 -101q-21 -47 -45 -71q-28 -28 -51 -41zM252 1264q-32 0 -55 -23t-23 -55q0 -30 25 -58q20 -26 53 -26q34 0 57 26q23 30 23 58q0 32 -23 55q-26 23 -57 23z" />
    <glyph glyph-name="uni0E23" unicode="&#xe23;" horiz-adv-x="780" 
d="M367 432v330q0 35 -9 65q-10 34 -39 60t-79 26h-230v236q21 122 113 199q91 76 258 73q75 0 131 -26q54 -25 92 -58q40 -35 80 -53q48 -22 100 -16l-67 -178q-51 3 -103 28q-50 20 -82 49q-26 23 -65 47q-34 21 -64 21t-53 -10q-22 -11 -39 -35q-14 -20 -14 -51v-68
q77 0 152 -10q47 -9 110 -29q43 -18 74 -49q39 -45 47 -59q16 -29 25 -72q5 -24 10 -74q2 -20 2 -78v-475q0 -82 -64 -155q-64 -76 -180 -76q-88 0 -154 72q-67 70 -67 165q0 71 33 127q35 60 82 74zM483 309q-31 0 -53 -22q-24 -24 -24 -58t24 -55q22 -22 55 -22
q32 0 54 22t22 55q0 21 -10 41q-10 19 -29 29q-20 10 -39 10z" />
    <glyph glyph-name="uni0E24" unicode="&#xe24;" horiz-adv-x="954" 
d="M375 780v-354q102 -80 102 -201q0 -94 -74 -159q-78 -69 -172 -66q-83 0 -151 68q-70 64 -70 147v524q0 51 45 125q47 79 131 146q-71 80 -176 80q0 101 35 176q35 71 109 116q76 43 188 43h270q85 0 158 -43q76 -45 121 -125q47 -83 47 -184v-1220h-348v1310
q0 42 -23 80q-20 33 -63 33h-137q-99 0 -99 -121q33 -11 90 -47q52 -34 113 -37v-117q-36 0 -65 -45q-31 -48 -31 -129zM246 313q-36 0 -58 -22q-24 -24 -24 -60q0 -30 24 -51q22 -22 58 -22q13 0 28 6t25 16q11 11 16 23q7 17 7 28q0 34 -23 60q-22 22 -53 22z" />
    <glyph glyph-name="uni0E25" unicode="&#xe25;" horiz-adv-x="995" 
d="M330 1020q207 0 340 -250q-2 13 -17 51q-15 30 -24 51l-11 21v209q0 37 -14 69q-17 34 -35 52q-15 15 -45 32q-23 13 -41 13h-108q-63 0 -111 -54q-49 -55 -49 -131h-205q0 40 19 95q19 54 55 108q34 52 102 90q64 37 150 37h321q118 0 222 -90q98 -88 98 -246v-1081
h-359v420q0 44 -24 135q-28 97 -78 180q-52 88 -102 88q-27 0 -27 -78v-297q60 -44 86 -84q31 -48 31 -129q0 -108 -78 -174q-79 -67 -164 -67q-110 0 -180 73q-72 75 -72 173v448q0 20 6 47q3 16 19 68q10 35 39 78q21 33 57 69q31 31 86 53q52 21 113 21zM303 305
q-23 10 -41 10q-19 0 -39 -10q-20 -12 -30 -31q-13 -20 -13 -38q0 -31 25 -56q24 -24 57 -24q30 0 57 24q25 25 25 56q0 18 -10 38q-12 19 -31 31z" />
    <glyph glyph-name="uni0E26" unicode="&#xe26;" horiz-adv-x="991" 
d="M483 842v-623q0 -77 -63 -149q-64 -76 -172 -76q-104 0 -170 72q-68 71 -68 157q0 81 39 137q38 56 68 68v291q0 55 37 133q38 78 110 141q-28 0 -49 15q-21 12 -37 28q-12 12 -51 29q-37 12 -86 12q0 104 39 178t119 121q77 45 194 45h258q128 0 228 -100
q98 -101 98 -238v-1239h-352v1307q0 45 -27 86q-26 39 -82 39h-106q-107 0 -107 -125q29 -11 80 -41q37 -25 68 -35q32 -11 75 -8v-125q-28 3 -34 -24q-9 -27 -9 -76zM248 313q-33 0 -55 -22q-25 -25 -25 -60q0 -29 25 -51q22 -22 55 -22q19 0 39 10q17 8 28 27q11 18 11 36
q0 34 -23 60q-22 22 -55 22z" />
    <glyph glyph-name="uni0E27" unicode="&#xe27;" horiz-adv-x="624" 
d="M264 1405q82 0 154 -29q62 -26 102 -69q38 -44 60 -93q22 -54 30 -86q6 -38 6 -61v-852q0 -52 -22 -104q-24 -49 -80 -84q-55 -37 -133 -37q-81 0 -150 63t-69 170q0 47 18 90q19 46 33 60q8 10 41 43v733q0 32 -35 47q-37 12 -67 -12l-142 -107v209q7 9 37 35
q17 12 92 51q62 33 125 33zM393 303q-32 0 -53 -24q-25 -25 -25 -56q0 -33 25 -55q23 -23 53 -23q32 0 58 23q22 22 22 55q0 19 -10 39q-9 18 -29 31q-20 10 -41 10z" />
    <glyph glyph-name="uni0E28" unicode="&#xe28;" horiz-adv-x="1112" 
d="M774 1405v92h322v-53q0 -45 -19 -94q-17 -44 -37 -74q-18 -27 -18 -31t18 -28q20 -32 35 -68q19 -46 19 -88v-1057h-365v1047q-45 -15 -80 -23q-16 -5 -44.5 -12t-37.5 -10q8 -4 17 -7l32 -24q22 -19 41 -41q18 -29 31 -64q14 -38 14 -86q0 -71 -55 -141
q-60 -72 -151 -72v-567h-361v412q0 32 -24 76q-31 46 -58 102q-34 60 -43 135v309q0 83 23 160q20 68 57 111q31 37 80 65q49 25 84 33q36 8 78 8q160 0 219 2t151 2q47 0 72 -14zM471 877q-36 0 -61 -25q-27 -24 -27 -59q0 -23 12 -41q13 -22 33 -31q18 -12 43 -12
q35 0 59 24q25 25 25 60q0 34 -25 59q-28 25 -59 25zM561 1270h-164q-83 0 -129 -49q-49 -52 -49 -119v-266q0 -38 12 -62q10 46 23 78q8 25 41 82q27 43 76 70q49 24 112 24q15 0 25 -2q5 -1 15.5 -2t15.5 -2q112 90 161 168q-1 0 -8 10q-8 8 -8 12q-2 2 -8 11q-4 3 -7 7
t-3 5q-1 1 -3 2l-5 2.5t-5 3.5q-6 4 -12 10q-10 5 -16 7q-3 1 -9.5 3t-9.5 3t-9.5 2t-10.5 2h-25z" />
    <glyph glyph-name="uni0E29" unicode="&#xe29;" horiz-adv-x="1159" 
d="M1087 674v-541v-18q-7 -22 -12 -33q-10 -23 -26 -39q-18 -18 -56 -29q-38 -14 -90 -14h-874v164h90v813q0 7 -17 24q-15 15 -36 33q-25 21 -39 62q-17 49 -17 100q0 109 70 170t168 61q114 0 174 -69q61 -70 61 -152v-1048h152q82 0 82 65v258q-33 0 -47 2q-28 4 -54 17
q-32 13 -51 32q-22 22 -37 62q-16 43 -16 96q0 49 20 88q18 37 43 56q24 18 58 30q9 2 27 8t26 7q14 2 37 2v518h373v-637q11 2 28 16q10 6 27 23l12 12q17 -33 -76 -139zM303 1241q-23 23 -51 23q-30 0 -53 -23q-25 -22 -25 -51q0 -20 12 -35q11 -18 29 -27q17 -10 37 -10
q17 0 37 10q15 9 26 27t11 35q0 28 -23 51zM756 731q-21 21 -49 21q-29 0 -50 -21q-22 -22 -22 -51q0 -27 22 -49q21 -21 50 -21q28 0 49 21q20 20 20 49q0 31 -20 51z" />
    <glyph glyph-name="uni0E2A" unicode="&#xe2a;" horiz-adv-x="991" 
d="M977 1087v-1083h-354v434q0 40 -27 129q-28 91 -78 170q-52 82 -104 82q-27 0 -27 -78v-292q60 -44 86 -84q31 -48 31 -129q0 -109 -78 -175q-79 -67 -164 -67q-109 0 -180 74q-72 75 -72 172v444q0 21 6 51q7 33 21 72q14 37 41 78q26 36 59 69q39 34 84 52
q47 20 109 20q204 0 340 -256q-2 16 -17 53q-10 25 -22 49l-8 21v217q0 69 -50 119q-50 47 -90 47h-108q-62 0 -111 -55t-49 -131h-197q-2 14 2 49q2 15 17 59q6 20 29 64q15 30 43 61q39 39 59 51q33 20 76 35q44 12 92 12h252q31 0 59 25q27 21 27 47h319q0 -35 -32 -78
q-35 -47 -84 -74q60 -57 81 -116q19 -62 19 -138zM303 309q-23 10 -41 10q-19 0 -39 -10q-21 -12 -30 -30q-13 -19 -13 -39q0 -36 25 -58q24 -24 57 -24q30 0 57 24q25 22 25 58q0 16 -10 39q-11 17 -31 30z" />
    <glyph glyph-name="uni0E2B" unicode="&#xe2b;" horiz-adv-x="1089" 
d="M1073 877v-877h-342v594l39 170l-297 -764h-356v616v361q0 8 -27 29q-26 20 -53 61t-27 88q0 118 70 188q69 72 172 72q63 0 119 -35q55 -40 80 -82q26 -45 26 -81v-736l-49 -178l289 707q-38 15 -68 71q-34 52 -31 121q6 98 72 164q64 64 158 61q98 -3 164 -75
q65 -74 65 -150q0 -41 -8 -72q-9 -36 -18 -53q-5 -7 -13.5 -18t-9.5 -12q-13 -16 -20 -21l-9 -4q42 -39 60 -72q14 -28 14 -73zM246 1276q-35 0 -58 -23q-24 -24 -24 -55q0 -34 24 -55q22 -25 58 -25q31 0 53 25q23 23 23 55q0 29 -23 55q-23 23 -53 23zM858 1276
q-31 0 -57 -23q-25 -25 -25 -57q0 -22 12 -37q10 -19 29 -29q18 -12 41 -12q30 0 55 25q23 23 23 55q0 29 -23 55q-26 23 -55 23z" />
    <glyph glyph-name="uni0E2C" unicode="&#xe2c;" horiz-adv-x="1118" 
d="M1102 1065v-1065h-350l-129 584l-105 -465q-3 -11 -6 -37q-7 -31 -8 -33q-3 -7 -6 -20q-6 -14 -15 -17q-2 -1 -8.5 -4t-11.5 -4q-16 -4 -31 -4h-358v164h67v797q-6 3 -18 12q-15 6 -33 24q-20 17 -37 41q-15 21 -28 58t-13 75q0 103 72 181q69 75 180 75q34 0 74 -12
q38 -14 80 -45q36 -27 65 -92q27 -62 27 -143v-359l-39 -250l141 609l191 -609l-55 250v311q0 22 -9 43q-3 6 -7.5 16.5t-6.5 14.5q-6 8 -31 33q-8 6 -18.5 14.5t-13.5 10.5q-21 14 -44 28q51 15 93 66q44 53 57 100h350q0 -59 -20 -88q-21 -34 -51 -49q-33 -17 -37 -25
q92 -80 92 -186zM315 1233q-20 20 -53 20t-53 -20q-23 -23 -23 -53q0 -21 11 -39q10 -19 26 -29q17 -10 39 -10q14 0 29 6q13 5 24 16q8 8 15 25q6 15 6 31q0 32 -21 53z" />
    <glyph glyph-name="uni0E2D" unicode="&#xe2d;" horiz-adv-x="989" 
d="M336 1425h328q84 0 155 -47q74 -49 113 -123q41 -77 41 -165v-984q0 -46 -43 -73q-47 -29 -94 -29h-826v164h90v600q0 113 66 188q66 72 170 72q94 0 166 -72q71 -74 71 -180q0 -60 -30 -112q-38 -58 -78 -84v-412h106q13 0 27 20q12 18 12 37v865q0 62 -43 114
q-47 53 -90 53h-119q-69 -15 -100 -63q-32 -46 -35 -104h-200q-3 138 96 237q94 98 217 98zM342 864q-35 0 -59 -24q-25 -25 -25 -60q0 -31 25 -53q25 -25 59 -25q30 0 55 25q25 22 25 53q0 20 -10 43q-12 19 -31 31q-20 10 -39 10z" />
    <glyph glyph-name="uni0E2E" unicode="&#xe2e;" horiz-adv-x="1005" 
d="M803 1364l22 63h185q-8 -111 -52 -210q8 -13 11 -23q3 -13 6 -20v-23l-2 -16v-1029q0 -44 -41 -71q-47 -29 -96 -29h-826v162h84v494q0 84 72 165q72 78 170 78q94 0 168 -71q74 -74 74 -179q0 -127 -119 -206v-279h108q43 0 43 59v748q-113 -39 -196 -39q-94 0 -181 23
q-82 22 -137 77q-57 57 -57 146q0 84 57 141q59 59 142 80q86 22 182 22q297 0 383 -63zM336 739q-33 0 -57 -24q-25 -28 -25 -60q0 -33 25 -55t57 -22q18 0 33 6q10 4 26 16q10 10 19 25q6 15 6 30q0 32 -25 60q-27 24 -59 24zM225 1186q0 -92 195 -92q74 0 135 22
q57 20 57 70q0 84 -192 84q-73 0 -135 -19q-60 -18 -60 -65z" />
    <glyph glyph-name="uni0E2F" unicode="&#xe2f;" horiz-adv-x="968" 
d="M580 504l104 166q-150 -221 -342 -221q-113 0 -223 96q-107 94 -107 200v254q0 37 17 86q14 38 43 78t73 60q49 22 103 22q115 0 174 -71q59 -74 59 -164q0 -120 -98 -181v-110q0 -14 10 -31q7 -11 25 -22t31 -11q43 -3 96 90q49 88 49 148v338h360v-1231h-374v504z
M248 1087q-31 0 -51 -20q-23 -23 -23 -55q0 -26 23 -49q21 -21 51 -21t51 21q20 20 20 49q0 19 -10 39q-11 18 -24 26q-17 10 -37 10z" />
    <glyph glyph-name="uni0E30" unicode="&#xe30;" horiz-adv-x="634" 
d="M207 1403q59 0 106 -27q48 -30 66 -65q20 -38 29 -80q9 -40 6 -74q40 43 49 121q9 74 -21 119h181q8 -41 8 -103q0 -56 -27 -114q-31 -66 -63 -109q-41 -50 -105 -80t-145 -30q-126 0 -201 75q-80 74 -80 154q0 89 56 151t141 62zM193 451q60 0 108 -25q47 -27 68 -68
q18 -35 28 -79q9 -40 6 -72q43 43 52 121q9 73 -23 116h178q8 -40 11 -100q0 -58 -27 -117q-29 -62 -64 -106q-38 -50 -102 -80q-70 -31 -147 -31q-123 0 -203 74q-82 73 -82 156q0 89 57 149q56 62 140 62zM209 1262q-14 0 -29 -9q-13 -8 -22 -20q-11 -18 -11 -31
q0 -23 19 -39q18 -18 43 -18q18 0 31 8q12 5 22 21q8 13 8 28q0 25 -18 43q-20 17 -43 17zM236 293q-19 16 -41 16q-25 0 -41 -16q-19 -16 -19 -41t19 -41q15 -18 39 -18q17 0 30 8q15 9 23 22q8 11 8 29q0 23 -18 41z" />
    <glyph glyph-name="uni0E31" unicode="&#xe31;" horiz-adv-x="262" 
d="M-403 1921q58 0 102 -20q38 -18 63 -54q18 -25 35 -65q16 -40 13 -66q-1 -8 -2.5 -16t-3.5 -16t-3 -11q74 19 140 88q68 68 65 103h215q3 -95 -47 -162q-51 -72 -129 -113q-76 -39 -160 -61q-90 -23 -147 -23q-322 0 -322 207q0 95 56 154q55 55 125 55zM-387 1790
q-34 0 -49 -18q-19 -22 -19 -54q0 -17 9 -32q6 -16 22 -25q17 -10 37 -10q29 0 49 20q19 19 19 47q0 29 -19 51q-21 21 -49 21z" />
    <glyph glyph-name="uni0E32" unicode="&#xe32;" horiz-adv-x="614" 
d="M281 1421q84 0 161 -47q75 -45 117 -119q41 -71 41 -145v-1114h-354v1159q3 70 -23 80q-1 1 -4 3t-4 3h-12q-2 -1 -6.5 -2t-6.5 -2t-6.5 -4.5t-7.5 -5.5t-10 -6.5t-10 -6.5q-4 -4 -27 -18q-5 -4 -15.5 -12.5t-15.5 -12.5q-14 -11 -41 -28q-6 -4 -47 -33v199q72 58 137 88
q59 24 134 24z" />
    <glyph glyph-name="uni0E33" unicode="&#xe33;" horiz-adv-x="602" 
d="M268 1425q132 0 226 -98t94 -215v-1112h-357v1157q3 73 -18 82q-1 1 -4 2t-4 2h-10q-2 -1 -6.5 -2t-6.5 -2q-4 -2 -16 -10q-3 -2 -10.5 -6t-10.5 -6q-2 -1 -24 -19q-11 -9 -33 -22q-13 -11 -39 -29q-35 -26 -49 -35v201q83 61 137 86q56 26 131 26zM-240 1925
q89 0 152 -63q61 -64 61 -152q0 -90 -61 -151q-65 -62 -152 -62q-86 0 -151 62q-64 61 -64 151q0 88 64 152q63 63 151 63zM-240 1774q-28 0 -49 -21q-20 -20 -20 -47q0 -28 20 -45q21 -21 49 -21q29 0 50 21q20 17 20 45q0 27 -20 47q-21 21 -50 21z" />
    <glyph glyph-name="uni0E34" unicode="&#xe34;" horiz-adv-x="49" 
d="M8 1503v-20h-909q5 0 2 12q-4 15 2 35q1 5 4 22t4 27q2 19 21 57q19 35 37 60q23 32 57 57q41 30 84 49q48 22 112 33q68 12 148 12q90 0 164 -18q77 -22 119 -53q42 -33 75 -72q36 -42 49 -78q11 -28 23 -70q8 -31 8 -53zM-352 1702h-187q-80 0 -110 -47h397
q-50 47 -100 47z" />
    <glyph glyph-name="uni0E35" unicode="&#xe35;" horiz-adv-x="49" 
d="M8 1483h-899q3 0 0 12q-4 15 2 35q1 5 4 22t4 27q3 23 23 57q19 35 37 60q23 33 59 57q41 30 84 49q47 21 113 33q67 12 147 12q55 0 117 -16l6 37h268v-217q18 -42 27 -70q8 -27 8 -43v-55zM-342 1702h-188q-74 0 -109 -47h395q-47 47 -98 47z" />
    <glyph glyph-name="uni0E36" unicode="&#xe36;" horiz-adv-x="61" 
d="M18 1483h-899q0 12 2 22q0 1 11 51q7 27 26 72q16 37 47 76q41 48 78 72q43 29 115 51q67 20 156 20q32 0 94 -10q50 -11 71 -22q77 59 131 59q56 0 111 -49q53 -53 53 -125q0 -24 -6 -45q-14 -36 -14 -37l-8 -12q15 -31 26 -68q8 -27 8 -43zM-403 1702h-95
q-96 0 -131 -47h326q-9 47 -100 47zM-152 1751q-10 0 -16 -2q-3 -1 -8 -4t-6 -4q-8 -4 -11 -10q-3 -3 -8 -13q-4 -12 -4 -16q0 -16 17 -33q14 -14 36 -14q13 0 25 6q9 6 18 18q9 9 9 23q0 18 -17 35q-14 14 -35 14z" />
    <glyph glyph-name="uni0E37" unicode="&#xe37;" horiz-adv-x="55" 
d="M-143 1876h133v-250q11 -21 18 -47q6 -24 6 -41v-29q-1 -4 -2 -10.5t-2 -9.5l-2 -6h-899q0 12 2 22q0 16 8 49q6 38 21 72q18 43 47 76q32 43 74 72q45 31 112 51t158 20q50 0 66 -2q29 -4 30 -4l4 -2v43h146l35 -72zM-342 1702h-188q-26 0 -56 -12q-32 -14 -53 -35h395
q-59 47 -98 47z" />
    <glyph glyph-name="uni0E38" unicode="&#xe38;" horiz-adv-x="49" 
d="M-199 -27q57 0 103 -24q45 -28 65 -64q23 -41 31 -65q8 -27 8 -49v-283h-207v53q-87 0 -151 64q-64 61 -64 155q0 73 62 144q57 69 153 69zM-162 -199q-18 15 -41 15q-24 0 -39 -15q-16 -16 -16 -41q0 -13 6 -28q5 -14 21 -23q11 -8 26 -8q25 0 43 18q17 20 17 41
q0 24 -17 41z" />
    <glyph glyph-name="uni0E39" unicode="&#xe39;" horiz-adv-x="59" 
d="M-190 -383v322h208v-404q0 -48 -28 -70t-68 -22h-387v68q-92 0 -149 63q-62 62 -62 158q0 85 66 145t139 60q53 0 104 -23q49 -25 68 -57q22 -36 33 -68q10 -30 14 -55l2 -25v-92h60zM-422 -233q-18 18 -43 18t-43 -18q-18 -21 -18 -43q0 -26 18 -41q19 -19 43 -19
q18 0 31 8q15 11 22 23q9 12 9 29q0 21 -19 43z" />
    <glyph glyph-name="uni0E3A" unicode="&#xe3a;" 
d="M-262 -94q89 0 153 -64q62 -65 62 -155q0 -87 -62 -152q-63 -63 -153 -63q-93 0 -156 63q-63 60 -63 152t63 155q64 64 156 64z" />
    <glyph glyph-name="uni0E3B" unicode="&#xe3b;" 
 />
    <glyph glyph-name="uni0E3C" unicode="&#xe3c;" 
 />
    <glyph glyph-name="uni0E3D" unicode="&#xe3d;" 
 />
    <glyph glyph-name="uni0E3E" unicode="&#xe3e;" 
 />
    <glyph glyph-name="uni0E3F" unicode="&#xe3f;" horiz-adv-x="1044" 
d="M367 -68v146h-334v1257h334v109h178v-109q51 -2 114 -10q47 -9 107 -27q57 -20 98 -51q37 -31 72 -88q31 -50 47 -131q4 -20 4 -55q0 -154 -174 -242q102 -44 160 -119q59 -77 59 -180v-33q-8 -65 -39 -133q-31 -60 -71 -94q-39 -33 -97 -55q-66 -24 -114 -31
q-52 -8 -127 -8h-39v-146h-178zM545 1106v-285q45 0 88 17q35 14 57 53q20 36 17 90q-6 46 -31 74q-28 28 -55 37q-25 7 -76 14zM299 1106v-285h68v285h-68zM545 606v-303q93 0 149 39q57 40 51 117q-6 85 -67 112q-59 35 -133 35zM367 303v303h-68v-303h68z" />
    <glyph glyph-name="uni0E40" unicode="&#xe40;" horiz-adv-x="512" 
d="M10 1421h365v-977q3 -3 12 -6q13 -9 31 -24q24 -20 37 -39q16 -22 28 -60q13 -44 13 -84q0 -83 -68 -157q-71 -74 -174 -74q-98 0 -170 72q-74 71 -74 174v1175zM313 293q-25 22 -55 22q-33 0 -55 -22q-23 -26 -23 -57q0 -29 23 -52q22 -22 55 -22q30 0 55 22
q23 23 23 52q0 31 -23 57z" />
    <glyph glyph-name="uni0E41" unicode="&#xe41;" horiz-adv-x="940" 
d="M254 0q-98 0 -170 72q-74 71 -74 174v1175h365v-977q66 -36 86 -90v1071h352v-970q2 -2 14 -6q8 -5 31 -25q24 -20 37 -39q17 -24 31 -59q12 -40 12 -80q0 -91 -68 -168q-69 -78 -174 -78q-35 0 -75 16q-34 12 -64 39q-19 15 -45 45q-14 14 -29 39l-10 17q0 -32 -67 -93
q-69 -63 -152 -63zM700 326q-34 0 -57 -23q-25 -22 -25 -55t25 -55q23 -23 57 -23q31 0 54 23q22 22 22 55t-22 55q-23 23 -54 23zM248 322q-32 0 -55 -23q-25 -22 -25 -53q0 -34 25 -56q22 -22 55 -22t55 22q23 23 23 56q0 30 -23 53t-55 23z" />
    <glyph glyph-name="uni0E42" unicode="&#xe42;" horiz-adv-x="757" 
d="M874 1841v-133q-3 -1 -9 -2t-9 -2q-24 -6 -47 -10q-36 -6 -61 2q-17 2 -146 47q-125 43 -186 43q-4 0 -10 2h-15q-8 0 -12 -2q-9 -3 -14 -8q-8 -8 -11 -17q40 0 95 -22q40 -17 100 -70q45 -42 82 -137q33 -85 33 -207v-897q12 0 34 -22q22 -25 43 -72q21 -49 21 -103
q0 -75 -45 -129q-46 -58 -99 -79q-61 -23 -106 -23q-77 0 -125 45q-52 46 -70 107q-20 56 -20 129v1167q0 120 -35 176q-34 55 -82 55h-170v121q132 129 287 129q97 0 168 -14q63 -12 121 -31q12 -4 42.5 -15.5t47.5 -17.5q55 -18 78 -20q54 -3 61 -2q3 1 12 2.5t21 4
t26 5.5zM522 315q-20 0 -37 -10q-18 -9 -28 -29q-13 -20 -13 -40q0 -15 7 -29q7 -16 18 -25q11 -11 25 -14q12 -6 28 -6q36 0 58 22t22 52q0 20 -10 40q-10 19 -29 29q-20 10 -41 10z" />
    <glyph glyph-name="uni0E43" unicode="&#xe43;" horiz-adv-x="710" 
d="M344 1929q53 0 102 -8q40 -7 117 -29q66 -22 103 -57q41 -41 41 -90q0 -30 -19 -70q-19 -39 -39 -65q-25 -36 -41 -82q-18 -53 -18 -109v-981q44 -20 82 -73q35 -56 35 -136q0 -67 -39 -118q-44 -57 -95 -82q-63 -29 -112 -29q-67 0 -113 27q-51 25 -72 59q-24 34 -38 78
q-14 42 -17 69q-2 14 -2 43v852q0 34 12 93q10 48 43 139q25 74 95 170q66 90 149 153q6 17 2 35q-6 14 -20 23q-12 7 -29 14q-15 3 -39 6q-18 2 -41 2h-41h-8q-11 0 -29 2h-37q-3 -1 -7.5 -1.5t-12.5 -1t-14 -1.5q-26 -3 -37 -6q-22 -11 -27 -14q-17 -10 -22 -23
q-9 -15 -9 -35q0 -7 11 -18q12 -12 28 -14q21 -6 33 -9t39 -6q8 -1 15 -2t10 -1.5t4 -0.5l-62 -149q-12 0 -22 2q-27 5 -56 14q-41 9 -69 31q-34 24 -55 65q-27 43 -27 105q0 36 24 76q18 35 66 73q45 38 111 58q71 22 147 22zM465 315q-33 0 -55 -22q-23 -26 -23 -57
q0 -17 6 -29q5 -13 17 -25q11 -12 24 -14q15 -6 31 -6t31 6q10 2 26 14q12 12 17 25q6 12 6 29q0 31 -23 57q-25 22 -57 22z" />
    <glyph glyph-name="uni0E44" unicode="&#xe44;" horiz-adv-x="749" 
d="M635 1550v-1106q12 0 27 -12q4 -4 16 -16.5t20 -20.5q18 -24 33 -67q14 -43 14 -99q0 -101 -71 -166q-69 -63 -170 -63q-111 0 -178 82q-68 83 -68 166v991q0 102 23 199q19 82 57 139q31 47 76 92q40 40 73 57q44 23 58 33q22 16 22 25q0 21 -53 -6q-4 -2 -51.5 -26
t-77.5 -40q-74 -39 -115 -39q-27 0 -118 39q-95 38 -142 62v161q68 -31 137 -59q90 -37 117 -47q37 14 98 45q10 5 47 22.5t54 24.5q46 16 86 16q35 0 72 -6q44 -11 53 -16q18 -9 45 -21q22 -14 26 -14v-117q-18 -18 -30 -32q-21 -25 -49 -76q-31 -60 -31 -105zM510 315
q-35 0 -57 -22q-25 -25 -25 -57q0 -30 25 -52q22 -22 57 -22q30 0 55 22q23 23 23 52q0 31 -23 57q-25 22 -55 22z" />
    <glyph glyph-name="uni0E45" unicode="&#xe45;" horiz-adv-x="608" 
d="M281 1421q84 0 161 -47q75 -45 117 -119q41 -71 41 -145v-1266h-354v1311q3 70 -23 80q-1 1 -4 3t-4 3h-12q-2 -1 -6.5 -2t-6.5 -2t-6.5 -4.5t-7.5 -5.5t-10 -6.5t-10 -6.5q-4 -4 -27 -18q-5 -4 -15.5 -12.5t-15.5 -12.5q-14 -11 -41 -28q-6 -4 -47 -33v199q72 58 137 88
q59 24 134 24z" />
    <glyph glyph-name="uni0E46" unicode="&#xe46;" horiz-adv-x="972" 
d="M731 90v-94h-364v217q0 49 26 94q20 39 62 84q35 37 69 72q37 37 62 69q24 34 24 62v344q0 11 -6 20q-5 8 -12 11l-4 2l-94 -185l-107 175q-2 0 -4 2q-5 0 -12 -7q-6 -6 -6 -20v-55q29 -8 79 -70q43 -61 43 -143q0 -95 -75 -158q-77 -68 -172 -68q-28 0 -70 11
q-32 8 -55 28q-22 16 -43 41q-19 19 -33 47q-12 21 -19 45q-8 19 -8 41v238q0 92 35 164q34 70 88 112q58 42 119 62t129 20l113 -213l106 207q170 0 264 -94q95 -95 95 -242v-403q0 -46 -23 -100q-26 -53 -57 -87q-29 -34 -68 -73q-40 -44 -57 -76q-25 -42 -25 -80z
M301 727q-21 21 -49 21t-49 -21q-23 -23 -23 -49q0 -28 23 -51q21 -21 49 -21t49 21t21 51q0 28 -21 49z" />
    <glyph glyph-name="uni0E47" unicode="&#xe47;" horiz-adv-x="55" 
d="M-727 1690q0 102 72 165q72 60 192 60q33 0 107 -19q72 -18 116 -10q20 -2 76 8q50 9 84 21l37 10l39 -90q-113 -46 -213 -43q-54 3 -180 31q-46 9 -80 -37q-37 -46 -37 -86q0 -68 43 -68l106 99l91 -68q15 58 57 86q43 29 90 29q61 0 100 -45q41 -47 41 -101
q0 -66 -37 -106q-39 -39 -98 -39q-35 0 -59 8q-31 11 -37 16l-10 9l-123 84l-82 -88l-195 22q-30 0 -65 47t-35 105zM-129 1679q-16 0 -25 -6q-8 -4 -20 -16q-8 -11 -8 -25q0 -19 16 -35q14 -14 37 -14q19 0 33 14t14 35q0 19 -14 33t-33 14z" />
    <glyph glyph-name="uni0E48" unicode="&#xe48;" horiz-adv-x="55" 
d="M-289 1937l-35 273h338l-34 -273h-269z" />
    <glyph glyph-name="uni0E49" unicode="&#xe49;" horiz-adv-x="266" 
d="M18 2306h207q-6 -71 -32 -127t-68 -98q-43 -43 -86 -68q-54 -31 -90 -43q-51 -16 -80 -24q-34 -9 -57 -9h-181v62q10 0 27 10q16 12 20 16l9 9q-42 22 -62 57q-22 39 -22 70q0 59 45 98q44 41 100 41q51 0 90 -45q41 -47 41 -98q0 -25 -6 -46q-7 -16 -25 -45
q-4 -8 -9 -15t-7.5 -11.5t-3.5 -5.5q23 0 55 14q28 11 66 41q34 26 55 86q20 53 14 131zM-219 2198q-14 14 -37 14q-25 0 -39 -14q-16 -16 -16 -37t16 -37q15 -15 39 -15q22 0 37 15q14 14 14 37t-14 37z" />
    <glyph glyph-name="uni0E4A" unicode="&#xe4a;" horiz-adv-x="249" 
d="M141 2202l68 -74q0 -17 -31 -53q-32 -37 -80 -66q-45 -31 -112 -47q-61 -14 -129 8l20 15q16 12 33 40q20 33 20 70q0 26 -10 49q-12 21 -29 31q-16 8 -36 8q-11 0 -17 -2q-3 -1 -9 -4t-9 -4t-5.5 -2.5t-5.5 -3t-4 -2.5q-4 -2 -10 -8l-2 -3q-6 9 -18 21q-16 16 -51 29
q-39 14 -80 2h10q1 -1 3.5 -1.5t7.5 -1t9 -1.5q5 -1 15.5 -4.5t15.5 -4.5q5 -2 33 -16q17 -10 29 -25q10 -12 20 -36q8 -19 8 -50v-12q0 -12 -6 -33q-13 -30 -20 -39q-10 -13 -41 -30q-27 -15 -68 -15q-73 0 -129 62q-57 57 -57 141q0 77 55 123q54 45 129 45q36 0 74 -10
q30 -12 43 -25l12 -12q39 45 141 45q52 0 88 -22q32 -19 43 -46l9 -22q0 -66 -23 -117q55 38 96 103zM-336 2111q-23 0 -35 -12q-14 -11 -14 -33q0 -21 14 -32q12 -15 35 -15q20 0 35 15q12 12 12 32q0 22 -14 33q-15 12 -33 12z" />
    <glyph glyph-name="uni0E4B" unicode="&#xe4b;" horiz-adv-x="86" 
d="M-274 2173v96h251v-102h68v-139h-78v-93h-241v93h-78v145h78z" />
    <glyph glyph-name="uni0E4C" unicode="&#xe4c;" horiz-adv-x="237" 
d="M45 2195l152 -137q-31 -19 -68 -22q-40 -3 -57 4q-41 12 -47 14q-10 4 -21 7l-12 3q23 -87 -41 -157q-53 -50 -121 -41q-68 6 -115 53q-38 44 -32 115q6 67 49 110q37 37 88 49q54 10 90 2t82 -8q35 -3 53 8zM-123 2056q-20 17 -39 17q-20 0 -37 -17q-14 -14 -14 -37
t14 -37q16 -16 37 -16q23 0 39 16q17 17 17 37t-17 37z" />
    <glyph glyph-name="uni0E4D" unicode="&#xe4d;" horiz-adv-x="47" 
d="M-211 1460q-71 0 -121 33q-54 36 -74 82q-22 52 -22 106q0 55 22 107q20 46 74 82q50 33 121 33t121 -33q54 -36 74 -82q22 -52 22 -107q-3 -56 -24 -106q-19 -45 -72 -82q-50 -33 -121 -33zM-207 1774q-57 0 -78 -41q-21 -43 0 -84q21 -43 78 -43q55 0 76 43q21 41 0 84
q-21 41 -76 41z" />
    <glyph glyph-name="uni0E4E" unicode="&#xe4e;" horiz-adv-x="411" 
d="M309 1890l-41 27q-68 35 -110 35q-55 0 -88 -33t-33 -84q0 -10 10 -43t10 -35q0 -16 -45 -55q-48 -39 -78 -39q-2 0 -26 18q-36 23 -60 33q-39 17 -61 17q-55 0 -90 -35q-37 -34 -37 -86q0 -27 12 -54q8 -26 23 -49l10 -18q0 -6 -6 -12q-3 -1 -7.5 -4l-12 -8l-13.5 -9
q-42 -28 -49 -33q-20 -14 -25 -14q-20 0 -55 59t-35 115q0 103 78 178q77 74 184 74q94 0 183 -74l4 6q-23 51 -23 91q0 52 31 100q28 43 84 72q53 24 117 24q46 0 98 -18q48 -19 82 -43q31 -22 31 -33q0 -14 -19 -43q-21 -27 -43 -27z" />
    <glyph glyph-name="uni0E4F" unicode="&#xe4f;" horiz-adv-x="1363" 
d="M680 162q-220 0 -373 153q-155 152 -155 375t155 375q154 154 373 154q218 0 375 -154t157 -375q0 -225 -153 -375q-156 -153 -379 -153zM1004 373q129 132 129 317q0 186 -134 320q-131 131 -319 131q-187 0 -318 -131q-133 -133 -133 -320q0 -185 129 -317
q130 -133 322 -133q191 0 324 133zM889 483q-84 -84 -207 -84t-207 84t-84 207t84 207t207 84t207 -84t84 -207t-84 -207z" />
    <glyph glyph-name="uni0E50" unicode="&#xe50;" horiz-adv-x="1308" 
d="M680 1055q288 -3 450 -146t162 -381q0 -237 -162 -383q-162 -149 -446 -149q-288 0 -451 147q-165 146 -165 385t163 383q167 147 449 144zM1057 528q0 164 -101 277t-276 110q-119 -3 -207 -55q-86 -54 -131 -139q-43 -85 -43 -193q0 -163 107 -276q105 -117 278 -117
q163 0 268 117t105 276z" />
    <glyph glyph-name="uni0E51" unicode="&#xe51;" horiz-adv-x="1314" 
d="M1303 606q3 -121 -33 -225q-41 -109 -92 -172q-58 -70 -113 -117q-60 -54 -96 -74q-42 -22 -43 -22l-90 43q4 4 14 10q11 8 37 31l51 51q33 33 57 74q43 69 54 92q21 49 36 117t15 141q0 88 -23 178q-24 84 -73 150q-49 64 -136 102t-200 35q-182 -9 -281 -123t-102 -279
q-15 -279 131 -354q59 -32 127 -35q61 -3 102 15q40 15 72 47q19 19 28 57q10 38 7 60q-3 24 -11 24q0 4 -6 -2q-7 -5 -35 -14q-31 -10 -82 4q-78 15 -106 78q-26 60 -2 123q24 62 74 86q38 17 69 22q36 3 64 0q17 -2 53 -14q15 -7 45 -29q13 -10 33 -35q37 -51 55 -129
q16 -79 -8 -172q-23 -91 -98 -157q-95 -76 -189 -95q-104 -24 -190 2q-89 24 -166 80q-78 57 -127 144q-48 86 -57 188q-21 293 141 461q161 167 493 176q264 3 431 -141q164 -147 170 -402z" />
    <glyph glyph-name="uni0E52" unicode="&#xe52;" horiz-adv-x="1748" 
d="M768 342q27 -15 47 -12q19 4 25 8q6 3 6 6q-47 35 -53 82q-3 64 24 111q25 44 98 47q48 3 89 -17q34 -18 47 -47q12 -30 18 -65q4 -41 -4 -64q-15 -76 -82 -110q-68 -36 -149 -33q-85 3 -148 37q-92 48 -133 145q-44 94 -35 211q9 112 62 207q57 99 157 149q98 46 228 37
q41 -4 59 -10q21 -7 49 -23q21 -15 39 -30q14 -12 31 -33q20 -30 24 -35q2 -3 8.5 -15t8.5 -18q8 -20 12 -28q4 -14 6 -19q0 -1 1 -2q1 -4 3 -2q4 0 13 21q11 27 26 51q11 22 43 63q26 33 68 56q40 21 88 24q99 6 168 -69q68 -74 96 -183q27 -104 21 -204q-12 -150 -68 -277
q-57 -132 -162 -215q-109 -86 -246 -86h-782q-199 0 -281 119q-57 63 -57 203v948q0 118 -33 174q-3 5 -8 15.5t-8 15.5q-9 15 -18 24l-17 17q-8 8 -16 12q-3 1 -5.5 2.5t-5.5 3t-4 2.5l-12 4l-8 4h-6h-2q0 1 6 10q4 8 16 17q10 10 27 20q16 10 41 19q24 6 53 6
q59 0 103 -29q39 -26 67 -90q20 -49 25 -67q9 -29 12 -66q4 -46 4 -57v-68v-917q0 -93 37 -136q57 -69 164 -69h522q239 0 350 108q109 109 127 303q9 74 -10 156q-22 82 -66 131q-46 52 -104 43q-18 -4 -27 -8q-13 -8 -24 -19q-3 -4 -10.5 -12t-10.5 -12q-10 -14 -16 -25
q-2 -4 -5.5 -12.5t-4.5 -11.5q-2 -3 -9 -17l-4 -6q5 -12 13 -35q16 -61 20 -82q10 -55 10 -83q0 -59 -8 -103q-9 -52 -20 -84q-12 -36 -27 -59q-19 -34 -22 -37q-9 -12 -13 -12l-84 14q2 4 6 14q2 7 13 37q4 10 16 57q6 31 12 76q7 56 5 90q-3 121 -80 230q-75 106 -197 106
q-69 0 -121 -30q-50 -29 -78 -80q-27 -50 -36 -101q-14 -59 -11 -104q6 -154 117 -207z" />
    <glyph glyph-name="uni0E53" unicode="&#xe53;" horiz-adv-x="1607" 
d="M399 106q69 -24 115 31q15 21 8 21q-72 6 -100 28q-51 26 -60 105q-9 72 35 125q43 52 127 43q82 -12 117 -78q32 -74 29 -160q-6 -79 -58 -143q-53 -65 -131 -74q-105 -15 -188 23q-85 39 -131 108q-49 70 -74 162q-24 89 -27 186q-3 215 115 375q119 158 320 176
q294 30 438 -203l14 -18q5 7 13 21q5 13 30 53q17 28 51 67q24 30 78 60q46 24 103 30q112 9 200 -61q88 -73 129 -182q40 -110 37 -228q-3 -109 -33 -227q-31 -110 -69 -164q-41 -62 -80 -104q-40 -46 -66 -62t-28 -16l-101 55q-1 0 0 0.5l4 2t5 3.5q3 2 24 23l37 37
q23 23 43 59q27 45 41 78q23 56 35 107q15 62 18 131q6 124 -49 225q-58 98 -145 104q-41 3 -76 -12q-37 -15 -57 -35q-17 -17 -37 -45q-21 -33 -23 -39l-6 -16q2 -12 8 -39q7 -30 17 -111q6 -74 0 -141q-3 -60 -27 -135q-24 -68 -51 -111q-8 -13 -18 -26t-22.5 -27.5
t-17.5 -21.5q-24 -31 -47 -50q-19 -16 -20 -16l-96 41q-3 3 8 14q12 9 37 37q33 42 45 64q25 45 43 100q17 58 20 135q6 115 -33 213q-41 99 -122 160q-85 61 -199 55q-159 -6 -242 -98q-84 -93 -102 -244q-12 -125 37 -229q50 -105 155 -142z" />
    <glyph glyph-name="uni0E54" unicode="&#xe54;" horiz-adv-x="1560" 
d="M1315 1229q65 130 -2 266l-4 14q4 0 12 2q17 0 29 -2q5 -1 19 -4t22 -4q21 -6 45 -18q22 -13 45 -29q21 -18 37 -47q14 -26 24 -66q15 -75 -10 -141q-24 -64 -70 -104q-46 -44 -135 -84q-101 -46 -166 -64q-35 -11 -203 -57q-33 -11 -96 -25q-25 -5 -60 -14t-46 -12
q-12 -4 -28.5 -9t-39.5 -13t-39 -13q-63 -20 -108 -43q-32 -17 -90 -57q-55 -36 -80 -74q-31 -47 -49 -94q-22 -58 -25 -121q-3 -99 37 -178q39 -80 123 -121q76 -39 182 -11q75 22 117 31q71 15 92 17q41 4 63 6q18 2 37 2h13q1 0 -3 4q-12 6 -16 10q-4 3 -12 9.5t-12 9.5
q-17 10 -29 22l-31 31q-16 16 -31 37q-16 23 -24 41q-46 101 -19 202q26 94 119 162q92 63 209 60q112 -3 178 -72q40 -46 56 -88q19 -49 10 -101q-9 -55 -56 -96q-37 -25 -88 -28q-52 -3 -94 28q-49 36 -57 90q-6 38 6 72q6 24 20 47q2 3 3.5 5.5t2.5 4t2 2.5t1 2v0
q0 4 -17 7q-15 3 -39 -7q-28 -11 -41 -26q-64 -82 -49 -170q15 -89 82 -150q56 -51 160 -102q81 -41 154 -59l59 -15l-47 -94q-4 -4 -39 4q-27 4 -115 25q-84 20 -143 28q-108 16 -270 -20q-172 -38 -246 -41q-450 -21 -484 348q-35 347 388 547q104 49 268 98
q139 42 268 72q122 29 209 69q94 43 121 99z" />
    <glyph glyph-name="uni0E55" unicode="&#xe55;" horiz-adv-x="1544" 
d="M1538 1348q15 -262 -344 -412q-83 -32 -158 -41q-80 -9 -123 -6l-43 4l-4 -4q-2 -1 -9.5 -6.5t-12.5 -8.5q-14 -11 -41 -28t-72 -43q-80 -44 -108 -58l-54 -24q-12 -6 -33.5 -17t-29.5 -14q-5 -3 -24 -15t-33 -20q-36 -21 -60 -49q-34 -39 -45 -57q-27 -39 -35 -76
q-12 -43 -12 -92q-3 -119 90 -203q92 -83 229 -43q68 21 117 31q61 9 96 12h70q7 -1 23 -2t22 -2l14 -4l-12 8q-115 71 -149 152q-46 104 -19 213q27 106 125 164q92 53 205 47q113 -9 178 -68q39 -36 60 -88q17 -50 8 -106t-58 -93q-27 -21 -65 -24q-37 -6 -74 4
q-32 8 -63 39q-28 28 -37 69q-3 42 8 74q8 29 22 47l9 15q0 5 -15 8q-16 0 -37 -6q-21 -8 -45 -25q-51 -45 -57 -108q-9 -65 19 -119q23 -53 67 -88q64 -53 162 -103q92 -47 151 -65l58 -17l-45 -94q0 -3 -37 6q-13 3 -50.5 13t-64.5 16q-87 17 -145 22q-73 9 -150 0
q-111 -13 -192 -28q-149 -28 -172 -31q-202 -34 -336 66q-135 102 -150 278q-3 64 13 129q13 52 41 107q18 37 69 88q47 44 80 67q42 29 90 54q14 7 33 15.5t29 13t16 7.5t28.5 12.5t37.5 16.5l202 78l-12 4q-2 1 -29 16q-19 11 -37 29q-14 14 -30 43q-18 30 -21 55
q-15 99 25 172q42 76 153 99q64 15 125 -4q56 -20 97 -64q36 -41 45 -96q4 -17 8 -51q0 -31 -2 -41q-1 -7 -4 -18t-4 -15q-3 -15 -11 -27t-10 -16q-2 -2 -4.5 -5.5t-3.5 -4.5l-4 -2q17 0 29 2q15 0 65 12q39 9 92 35q44 23 88 67q42 42 72 113q55 136 -23 277q5 0 13 2
q19 0 33 -2q6 -1 21 -4.5t24 -4.5q26 -7 49 -18q21 -11 47 -29q17 -15 35 -47q13 -23 16 -65zM797 1020q35 3 55 16q25 13 37 33q11 27 16 45q3 27 -2 49q-11 29 -20 45q-16 20 -39 31q-32 11 -58 8q-33 0 -53 -14q-27 -17 -35 -35q-13 -23 -16 -45q-7 -26 2 -49
q6 -25 21 -43q13 -22 36 -31q26 -13 56 -10z" />
    <glyph glyph-name="uni0E56" unicode="&#xe56;" horiz-adv-x="1263" 
d="M381 291q-3 0 0 -19q3 -17 25 -49q25 -35 55 -59q56 -42 149 -51q95 -10 170 16q133 47 191 145q60 97 63 244q3 146 -80 264q-84 119 -247 140q-86 13 -166 -2q-67 -12 -140 -46q-44 -20 -104 -59q-54 -35 -70 -51q-14 -12 -19 -16t-5 -3q1 3 2 12t2 13l4 66
q1 16 3 48.5t3 49.5q0 72 -2 115q-4 86 -8 125q-6 42 -25 118q-13 51 -41 105q-13 26 -37 57q-24 27 -38 39q-22 19 -33 25q-21 13 -25 14l-8 2q-3 0 4 10q3 9 16 25q6 8 31 26q23 13 49 19q31 3 68 -2q165 -30 209 -277q14 -71 14 -166q0 -73 -4 -139l-6 -49q0 -3 8 2
q3 1 13.5 6t17.5 8q43 18 53 21q29 9 86 18q47 8 119 8t127 -8q69 -11 119 -26q47 -17 106 -49q48 -31 88 -74q46 -49 70 -96q32 -66 45 -127q14 -66 14 -158q0 -125 -43 -223q-44 -100 -117 -158q-79 -63 -169 -92q-93 -34 -205 -37q-230 -6 -373 113q-147 117 -147 278
q0 28 6 55q5 23 22 62q14 33 45 57q24 19 74 35q45 12 104 -2q52 -9 82 -55q31 -48 31 -103q-3 -59 -35 -94q-6 -8 -22 -20q-24 -14 -27 -15q-15 -3 -27 -6q-10 -2 -26 -6q-8 -2 -21 -2h-14z" />
    <glyph glyph-name="uni0E57" unicode="&#xe57;" horiz-adv-x="1658" 
d="M381 129q47 -21 76 -18q30 3 43 16q12 14 6 20q5 0 -6 11q-17 13 -29 32q-16 26 -16 58q0 69 43 121q39 50 114 47q53 -3 97 -29q39 -28 53 -61q13 -31 16 -78q3 -38 -10 -78q-12 -40 -33 -64q-61 -73 -164 -94q-108 -24 -202 0q-99 24 -154 82q-85 94 -125 219
q-38 117 -29 240q9 111 56 215q123 267 321 276q55 3 105 -10q49 -13 78 -33q31 -24 53 -49q27 -34 35 -53q4 -10 11 -27t9 -22q1 -5 3.5 -13t4 -13t2.5 -9q3 -12 6 -12q3 -3 6 6q0 2 1 4q3 12 12 33q1 3 8 19.5t12 27.5q12 24 33 51q23 30 45 49q21 19 62 35q29 13 75 16
q109 3 183 -71q78 -78 112 -185q34 -106 31 -221q-3 -78 -14 -141q-17 -80 -29 -117q-2 -8 -33 -84q-11 -30 -26 -55l-11 -18q1 1 11 6q12 6 26 16q19 11 39 31q5 7 21 24t24 25q26 29 45 72q37 82 41 94q25 63 33 121q4 25 9.5 81.5t6.5 67.5q6 76 -4 184q-12 159 -90 275
q-79 113 -233 199q-77 44 -31 192q18 59 29 59l61 -32q428 -225 449 -707q6 -169 -35 -330q-40 -158 -115 -274q-73 -114 -172 -184q-100 -69 -205 -72q-28 0 -49 6q-20 3 -35 14q-4 3 -20 19q-10 10 -12 16l-2 6q2 3 8 7q1 1 7.5 8.5t12.5 13.5q24 30 29 37q20 29 35 59
q18 46 30 82q17 49 25 107q9 62 12 131q3 78 -12 149t-61 123q-44 50 -117 53q-35 0 -74 -28q-36 -29 -61 -74q-25 -40 -47 -86q-23 -47 -31 -72q-12 -27 -15 -28l-4 8q-1 2 -4.5 12t-5.5 17q-6 10 -18 38q-6 13 -25 48q-5 8 -16.5 24.5t-16.5 24.5q-24 28 -41 45
q-26 26 -47 39q-29 18 -53 26q-30 9 -63 6q-81 -3 -146 -108q-66 -111 -69 -227q-2 -35 2 -101q3 -49 18 -102q16 -57 47 -96q30 -43 78 -68z" />
    <glyph glyph-name="uni0E58" unicode="&#xe58;" horiz-adv-x="1634" 
d="M1200 129q31 5 55 29q19 22 19 37q-3 15 -6 18q-28 -29 -111 12q-43 19 -59 82q-15 57 14 119q28 60 88 78q114 35 180 -31t72 -164q6 -123 -78 -219q-87 -96 -207 -96q-55 0 -98 6q-36 5 -82 23q-34 12 -57 28q-4 2 -60 39q-30 20 -55 35q-42 32 -47 35q-30 18 -51 35
q-25 15 -47 26q-39 19 -49 21q-28 4 -46 4q-26 -3 -47 -15t-34 -41q-13 -32 -13 -61q-3 -34 0 -63q0 -30 4 -50q3 -15 -2 -20q0 -6 -61 12q-55 13 -146 64q-88 49 -124 102q-84 119 -93 279q-12 162 70 311q90 149 207 209q116 61 311 61q96 0 201 -30q118 -35 186 -52
q86 -22 156 -4q110 27 168 121q54 89 57 227q3 34 0 72q-2 30 -10 68q-10 50 -12 59q-2 6 -5.5 17t-6 19.5t-5.5 14.5q-3 8 -8 21t-6 16l-10 25l-4 8q0 5 26 8q27 3 68 -6q37 -8 67 -35q73 -61 99 -164q28 -113 14 -219q-16 -124 -66 -215q-54 -98 -141 -158
q-88 -61 -203 -73q-89 -9 -178 24q-37 12 -108.5 36.5t-85.5 29.5q-106 36 -193 33q-49 0 -115 -17q-55 -17 -108 -49q-49 -30 -84 -80q-39 -51 -47 -106q-6 -30 -10 -90q-2 -32 2 -78q2 -28 10 -62t14 -47q13 -25 17 -31q9 -16 14 -18l4 -6q0 2 2 4q3 3 6 12q3 8 10 19
q2 5 13 20q6 11 16 25q10 10 25 22q18 19 26 23q18 10 35 18q21 10 39 13q47 9 96 -5q46 -14 82 -36q46 -32 78 -58q14 -12 27 -22.5t24 -18.5t13 -10q18 -11 79 -59q60 -51 89 -68q39 -24 88 -37q52 -15 108 -6z" />
    <glyph glyph-name="uni0E59" unicode="&#xe59;" horiz-adv-x="1271" 
d="M635 141q50 0 100 13q41 8 70 28q22 12 45 39q15 18 27 45q8 20 12 41q2 12 2 31v10q2 2 0 2h-6q-73 -14 -146 15q-57 25 -77 75q-25 52 -17 101q9 47 39 82q50 53 115 65q64 9 110 -6q39 -13 78 -43q34 -29 55 -92q22 -65 25 -135q3 -71 -29 -158q-30 -82 -96 -148
t-188 -92q-123 -29 -269 -8q-141 20 -245 105q-97 78 -142 192q-44 109 -35 232q9 117 66 200q25 40 66 78q43 39 69 53q28 17 60 31q8 4 16.5 7t17 6.5t11.5 4.5l14 7q3 3 -4 6q-15 5 -21 8q-13 3 -32 12q-22 11 -37 21q-16 7 -39 26q-18 15 -35 39q-21 30 -27 47
q-13 30 -16 62q-3 38 2 74q9 69 49 118q38 50 99 74q74 27 116 33q41 6 129 10q63 0 123 -8q21 -3 58 -9t53 -8q41 -8 94 -8q45 0 86 21t70 63q13 16 20 43q6 21 6 43q-1 7 -2 20t-2 19q-4 22 -6 29q-3 10 -2 10q0 7 37 10q34 0 80 -18q44 -17 63 -60q46 -155 -61 -253
q-70 -67 -176 -76q-114 -9 -291 30q-125 27 -199 -12q-77 -41 -86 -114q-3 -38 19 -66t69 -43q59 -19 86 -25q40 -9 94 -12q93 -4 131 -2q57 0 103 6q33 2 78 10q11 2 27 6l20 5l14 2q14 0 17 -23q3 -20 -7 -57q-9 -35 -28 -60q-36 -45 -101 -51q-64 -9 -163 6
q-113 13 -156 11q-116 -6 -199 -74q-78 -67 -114 -162q-32 -88 -29 -194q9 -127 113 -218q106 -92 229 -92z" />
    <glyph glyph-name="uni0E5A" unicode="&#xe5a;" horiz-adv-x="1765" 
d="M1360 1358h78v-1358h-78v1122q-129 -173 -422 -323q-292 -142 -500 -142q-336 0 -336 336q0 150 99 258q94 107 231 107h39v-96h-39q-47 0 -98 -23q-44 -20 -80 -59t-53 -86q-21 -50 -21 -101q0 -239 258 -239q267 0 604 211q318 200 318 344v49zM1538 1354h78v-1354h-78
v1354z" />
    <glyph glyph-name="uni0E5B" unicode="&#xe5b;" horiz-adv-x="3278" 
d="M932 971q0 155 -70 246q-71 92 -215 92q-111 0 -233 -146q-115 -157 -115 -377q0 -237 129 -387q133 -151 289 -151q129 0 233 84q97 78 152 223q57 126 139 459q66 266 107 405h116l131 -571l88 506h119l117 -529l147 471l150 -436l102 336q11 -24 47 -92
q48 -90 76 -139q44 -78 86 -131q43 -58 66 -58l102 -4q75 -6 78 2h276h146v-174h-47q-25 0 -60 -2t-96 -2q-68 -2 -153 -2h-21h-12q-27 -6 -189 -6q-76 0 -129 16q-53 15 -92 66l-6 4q0 9 8 12q-22 0 -31 21l-157 -506l-137 467l-160 -488l-156 477l-90 -522h-119l-145 678
q-1 -2 -3.5 -12t-4.5 -17q-37 -117 -37 -118q-4 -12 -17.5 -50t-23.5 -65q-29 -83 -47 -117q-33 -68 -53 -104q-36 -67 -68 -99q-26 -28 -82 -77q-49 -46 -96 -66q-58 -23 -117 -37q-69 -16 -137 -16q-124 0 -223 45q-111 49 -177 121q-71 74 -124 174q-53 96 -74 203
q-25 112 -25 213q0 305 154 512q165 219 399 219q159 0 275 -78q110 -74 165 -199q52 -122 52 -274q0 -68 -13 -144q-15 -73 -45 -145q-30 -76 -75 -133q-46 -58 -115 -92q-70 -37 -160 -37q-147 0 -248 131q-80 130 -80 240q0 84 33 143q31 60 80 84q50 24 107 24
q58 -3 104 -28q45 -26 80 -86q31 -60 31 -137q0 -87 -35 -146q45 29 76 90q30 65 41 119q12 58 12 117zM635 657q11 0 22 11q11 10 13 28q1 6 2 19t2 18v43v15q0 47 -15 81q-14 33 -36 33q-25 0 -39 -33q-19 -36 -19 -81q0 -50 19 -93q18 -41 51 -41z" />
    <glyph glyph-name="uni2000" unicode="&#x2000;" horiz-adv-x="1159" 
 />
    <glyph glyph-name="uni2001" unicode="&#x2001;" horiz-adv-x="2318" 
 />
    <glyph glyph-name="uni2002" unicode="&#x2002;" horiz-adv-x="1159" 
 />
    <glyph glyph-name="uni2003" unicode="&#x2003;" horiz-adv-x="2318" 
 />
    <glyph glyph-name="uni2004" unicode="&#x2004;" horiz-adv-x="772" 
 />
    <glyph glyph-name="uni2005" unicode="&#x2005;" horiz-adv-x="579" 
 />
    <glyph glyph-name="uni2006" unicode="&#x2006;" horiz-adv-x="385" 
 />
    <glyph glyph-name="uni2007" unicode="&#x2007;" horiz-adv-x="385" 
 />
    <glyph glyph-name="uni2008" unicode="&#x2008;" horiz-adv-x="288" 
 />
    <glyph glyph-name="uni2009" unicode="&#x2009;" horiz-adv-x="462" 
 />
    <glyph glyph-name="uni200A" unicode="&#x200a;" horiz-adv-x="126" 
 />
    <glyph glyph-name="uni200B" unicode="&#x200b;" 
 />
    <glyph glyph-name="uni2010" unicode="&#x2010;" horiz-adv-x="643" 
d="M72 612v293h499v-293h-499z" />
    <glyph glyph-name="uni2011" unicode="&#x2011;" horiz-adv-x="643" 
d="M72 612v293h499v-293h-499z" />
    <glyph glyph-name="figuredash" unicode="&#x2012;" horiz-adv-x="643" 
d="M72 612v293h499v-293h-499z" />
    <glyph glyph-name="endash" unicode="&#x2013;" horiz-adv-x="1275" 
d="M0 729v102h1346v-102h-1346z" />
    <glyph glyph-name="emdash" unicode="&#x2014;" horiz-adv-x="1953" 
d="M0 729v102h2058v-102h-2058z" />
    <glyph glyph-name="quoteleft" unicode="&#x2018;" horiz-adv-x="360" 
d="M207 1460q4 0 8 -2q21 -9 33 -12q7 -2 31 -16q17 -12 32 -31t23 -43t8 -64q0 -66 -45 -108q-45 -45 -107 -45q-70 0 -116 49q-47 47 -47 104q0 39 16 82q11 29 33 60l18 20q102 108 193 129q-2 -3 -9.5 -12t-13.5 -15q-5 -5 -12 -15t-10 -13q-9 -9 -19 -29
q-11 -23 -16 -39z" />
    <glyph glyph-name="quoteright" unicode="&#x2019;" horiz-adv-x="360" 
d="M168 1262q-6 0 -10 2q-17 8 -31 12q-12 3 -33 18q-21 12 -31 29q-11 14 -20 41q-10 27 -10 57q0 72 45 117q42 45 106 45q69 0 115 -49q45 -51 45 -113q0 -32 -16 -75q-12 -33 -33 -62l-19 -20q-110 -110 -188 -125q2 3 10 11.5t13 14.5t12 16t10 13q10 15 17 29
q9 18 18 39z" />
    <glyph glyph-name="quotesinglbase" unicode="&#x201a;" 
d="M-356 1487h-809q0 21 2 35q0 24 20 80q18 55 58 98q41 40 129 78q87 34 217 34q59 0 102 -12l4 45h246v-207q4 -12 13 -33.5t12 -31.5q6 -27 6 -37v-49zM-676 1679h-164q-77 0 -100 -39h358q-39 39 -94 39z" />
    <glyph glyph-name="quotedblleft" unicode="&#x201c;" horiz-adv-x="702" 
d="M555 1460q4 0 8 -2q18 -6 43 -16q13 -8 37 -25q23 -20 35 -47q12 -30 12 -70q0 -71 -45 -116t-106 -45q-72 0 -117 51q-47 50 -47 110q0 11 4 35q5 26 8 33q7 17 14 29q6 15 15 24q2 3 6 9.5t6 9.5q2 2 5.5 7t4.5 7l4 4q107 101 193 125q-4 -8 -12 -16q-9 -9 -13 -17
q-8 -8 -12 -14q-2 -3 -5.5 -7.5t-4.5 -6.5q-7 -11 -10 -19q-2 -3 -6.5 -10t-6.5 -10q-7 -10 -10 -23zM213 1460q4 0 8 -2q18 -6 43 -16q5 -3 18 -11.5t21 -13.5q23 -20 35 -47q10 -33 10 -70q0 -71 -45 -116t-106 -45q-72 0 -117 51q-47 50 -47 110q0 11 4 35q5 26 8 33
q7 17 14 29q6 15 15 24q2 3 6 9.5t6 9.5q2 2 5.5 7t4.5 7l4 4q104 104 193 125q-3 -3 -10.5 -12l-12.5 -15q-5 -5 -12 -15t-10 -13q-9 -9 -19 -29q-11 -23 -16 -39z" />
    <glyph glyph-name="quotedblright" unicode="&#x201d;" horiz-adv-x="688" 
d="M510 1257q-2 2 -16 9q-6 2 -19 8q-12 4 -20 8q-12 6 -21 12q-3 2 -18 17q-14 14 -17 20q-6 12 -12 27q-6 10 -10 33q-2 10 -2 36q0 67 45 109q46 43 106 43q66 0 113 -47t47 -105q0 -39 -18 -79q-24 -47 -39 -64l-19 -20q-84 -103 -182 -125q3 3 6 7t8 10t9 11q6 5 13 15
t9 12q9 9 19 29q6 10 18 34zM170 1257q-3 3 -18 9q-5 2 -13 4.5t-10 3.5q-1 1 -4.5 2t-7.5 3t-8 5q-21 12 -23 16q-9 6 -18 21q-14 15 -17 27q-8 20 -10 34q-6 18 -6 43q0 66 45 111q46 43 104 43q66 0 113 -47q47 -50 47 -107q0 -42 -18 -82q-16 -37 -37 -61l-19 -20
q-81 -100 -182 -127q9 15 27 36q6 8 17 22t15 19q16 24 23 45z" />
    <glyph glyph-name="quotedblbase" unicode="&#x201e;" 
d="M-504 1847h119v-231q17 -40 20 -66q3 -34 0 -49l-4 -14h-809v18q0 11 9 45q6 37 20 64q9 23 41 67q28 38 66 64q43 28 102 45q65 18 143 18l90 -2v41h129l31 -69zM-688 1679h-164q-61 0 -100 -39h358q-48 39 -94 39z" />
    <glyph glyph-name="dagger" unicode="&#x2020;" 
d="M-659 1511l-35 330h342l-35 -330h-272z" />
    <glyph glyph-name="daggerdbl" unicode="&#x2021;" 
d="M-375 1915h223q-9 -91 -49 -160q-46 -74 -96 -113q-53 -44 -115 -71q-73 -34 -110 -41q-52 -10 -78 -10h-195v63q7 0 19 4q2 1 16 10q6 4 15 13l8 8l4 4q-15 9 -27 18q-12 7 -24 23q-10 10 -19 25q-9 12 -12 24q-3 7 -8 25q-4 16 -4 24q0 61 47 105q46 43 112 43
q51 0 95 -47q43 -49 43 -107q0 -25 -7 -49q-16 -38 -22 -47q-16 -26 -19 -37q24 0 56 14q25 13 69 45q37 27 62 93q22 64 16 141zM-672 1815q-26 0 -41 -15q-16 -16 -16 -39t16 -39t41 -16q22 0 41 16q17 17 17 39t-17 39q-18 15 -41 15z" />
    <glyph glyph-name="bullet" unicode="&#x2022;" horiz-adv-x="1105" 
d="M573 209q-172 0 -299 127t-127 299q0 170 127 297q125 125 299 125t299 -125t125 -297q0 -174 -125 -299q-127 -127 -299 -127z" />
    <glyph glyph-name="ellipsis" unicode="&#x2026;" horiz-adv-x="1703" 
d="M242 174q40 0 67 -27t27 -67q0 -31 -29 -60q-26 -26 -65 -26q-33 0 -62 29q-28 28 -28 57q0 41 26 67q27 27 64 27zM893 174q22 0 43 -12q17 -10 35 -35q12 -21 12 -47q0 -30 -27 -57q-29 -29 -63 -29q-25 0 -45 14q-24 14 -35 33q-14 17 -14 39q0 39 28 67q27 27 66 27z
M1473 147q27 27 65 27q39 0 66 -27q24 -27 24 -67q0 -34 -26 -60t-64 -26q-39 0 -65 26q-29 29 -29 60q0 38 29 67z" />
    <glyph glyph-name="uni202F" unicode="&#x202f;" horiz-adv-x="462" 
 />
    <glyph glyph-name="perthousand" unicode="&#x2030;" 
d="M-633 1774v106h252v-113h90v-151h-100v-105h-242v105h-78v158h78z" />
    <glyph glyph-name="guilsinglleft" unicode="&#x2039;" 
d="M-311 1511l-35 330h342l-39 -330h-268z" />
    <glyph glyph-name="guilsinglright" unicode="&#x203a;" 
d="M-676 1929l-35 273h338l-35 -273h-268z" />
    <glyph glyph-name="uni205F" unicode="&#x205f;" horiz-adv-x="579" 
 />
    <glyph glyph-name="Euro" unicode="&#x20ac;" horiz-adv-x="989" 
d="M502 825l8 -16l106 -266v205q0 103 -69 178q-73 76 -182 96q-103 16 -191 8q-96 -9 -145 -31v158q0 33 20 74q22 42 62 88q37 42 116 78q76 30 172 30q86 0 160 -26q73 -27 158 -27q45 0 98 15q56 16 84 30l62 -162q-64 -49 -197 -55q-41 -3 -150 31q-112 34 -200 31h-15
q-14 0 -28 -2t-41 -11q-20 -7 -37 -18q-20 -13 -29 -31q52 15 129 15q53 0 123 -15q81 -17 152 -47q86 -36 151 -76q74 -49 117 -114q45 -68 45 -150l-4 -567h-406q-4 10 -51 106q-32 63 -61 119l-27 49q-77 -45 -145 -45q-78 0 -133 43q-59 41 -80 90q-23 54 -23 92
q0 64 25 119q21 53 59 80q37 29 72 43t69 14q53 0 91 -14q32 -12 67 -39q25 -21 43 -43q19 -22 25 -37zM580 209h393q0 -130 -29 -170q-26 -39 -119 -39q-29 0 -92 14q-71 15 -127 15q-123 0 -196 -33l-52 49q-42 -45 -129 -45q-109 0 -168 86q-61 85 -55 178q2 31 21 90
q14 45 34 74q20 30 39 49q54 -36 90 -49q31 -11 91 -14q-111 -68 -111 -150q0 -38 27 -65q25 -31 67 -31q29 0 53 12q21 12 31 29l55 -51l52 49q18 -34 59 -37q40 -3 66 39zM344 774q-23 23 -53 23q-32 0 -55 -23q-23 -26 -23 -57q0 -32 23 -55t55 -23q30 0 53 23t23 55
q0 31 -23 57z" />
    <glyph glyph-name="trademark" unicode="&#x2122;" 
d="M-547 1464q-69 0 -119 33q-52 29 -73 80q-23 54 -23 106q0 53 25 105q21 46 73 80q50 30 117 30q68 0 121 -30q54 -35 74 -80q22 -52 22 -105q0 -54 -22 -106q-24 -50 -74 -80q-50 -33 -121 -33zM-543 1774q-57 0 -78 -41q-21 -43 0 -84q21 -43 78 -43q44 0 64 26
q22 28 22 58q0 29 -22 57q-21 27 -64 27z" />
    <glyph glyph-name="uni25CC" unicode="&#x25cc;" horiz-adv-x="1650" 
d="M829 147q31 0 54 -20q22 -22 22 -53q0 -29 -22 -51q-26 -23 -54 -23q-30 0 -53 23q-22 22 -22 51q0 31 22 53q20 20 53 20zM1421 752q35 0 58 -23q20 -20 20 -51q0 -35 -20 -55q-23 -23 -58 -23q-26 0 -49 23q-20 20 -20 55q0 31 20 51q23 23 49 23zM229 752q26 0 52 -23
q22 -22 22 -51q0 -19 -10 -39q-9 -18 -27 -29q-20 -10 -37 -10q-32 0 -55 23q-22 22 -22 55q0 30 24 51q23 23 53 23zM829 1348q19 0 37 -9q16 -9 29 -26q10 -17 10 -37q0 -29 -22 -51q-26 -23 -54 -23q-30 0 -53 23q-22 22 -22 51t22 51q21 21 53 21zM406 1171q24 0 40 -8
q18 -11 27 -26q10 -20 10 -43q0 -20 -10 -37q-11 -18 -29 -27q-20 -10 -38 -10t-35 10q-18 9 -29 27q-10 17 -10 37q0 35 22 57q20 20 52 20zM1247 1171q33 0 53 -20q23 -23 23 -57q0 -15 -6 -27q-5 -13 -17 -25q-10 -10 -22 -16q-15 -6 -31 -6q-10 0 -22 4q-15 4 -21 10
q-3 2 -18 17q-7 7 -10 20q-5 15 -5 23q0 34 23 57q20 20 53 20zM1247 330q30 0 53 -23t23 -53q0 -31 -20 -51q-23 -23 -54 -23q-32 0 -55 23t-23 53t23 53q21 21 53 21zM406 330q34 0 55 -21q22 -22 22 -53t-22 -53q-23 -23 -55 -23q-18 0 -35 10q-18 9 -29 27
q-10 17 -10 37q0 19 10 39q10 16 29 26q18 11 35 11z" />
    <glyph glyph-name="uni25FC" unicode="&#x25fc;" horiz-adv-x="1064" 
d="M0 0v1065h1065v-1065h-1065z" />
    <glyph glyph-name="uniF701" unicode="&#xf701;" 
d="M-367 1505l2 -18h-819q3 0 0 12q-4 11 2 29q1 3 4 18.5t4 24.5q3 22 19 51q18 33 33 55q19 28 53 52q41 29 76 43q41 18 102 30q65 10 133 10q80 0 148 -18q61 -17 106 -47q37 -25 68 -64q29 -37 43 -69q4 -13 11 -35t9 -29q6 -27 6 -45zM-690 1679h-168q-74 0 -100 -39
h358q-39 39 -90 39z" />
    <glyph glyph-name="uniF70C" unicode="&#xf70c;" horiz-adv-x="323" 
d="M209 1796l74 -80q0 -19 -31 -55q-34 -37 -84 -70t-119 -49q-67 -15 -137 6q3 1 6 3t7 6t7 6q10 8 33 45q21 34 21 75q0 40 -23 66q-22 25 -55 25q-12 0 -29 -7q-20 -12 -24 -16l-11 -6q-1 1 -2 3t-2 3l-10 10q-3 3 -8 8.5t-8 8.5q-3 2 -11.5 6.5t-13.5 7.5q-21 8 -29 10
q-20 4 -32 4q-18 0 -39 -6q6 -2 18 -2q1 0 14.5 -3t24.5 -7q28 -9 47 -23q20 -14 39 -43q16 -32 16 -71v-15q-1 -3 -3.5 -13t-4.5 -17q-11 -30 -20 -43q-14 -17 -43 -33q-28 -14 -72 -14q-82 0 -139 63q-58 64 -58 152q0 81 60 129q59 47 135 47q41 0 78 -13q32 -11 45 -24
l12 -12q45 45 146 45q28 0 65 -11q32 -10 45 -24q19 -19 25 -29q11 -18 12 -22l4 -11q0 -34 -8 -67q-8 -37 -18 -53q67 42 100 110zM-291 1702q-14 0 -26 -6q-13 -6 -19 -19q-6 -12 -6 -26q0 -22 14 -33q14 -14 37 -14q20 0 35 12q12 12 12 35q0 22 -12 37q-14 14 -35 14z
" />
    <glyph glyph-name="uniF70E" unicode="&#xf70e;" horiz-adv-x="182" 
d="M-10 1808l151 -137q-31 -19 -67 -22q-40 -4 -58 4q-41 12 -47 14q-7 3 -13.5 5t-10.5 3t-6 2q24 -87 -43 -157q-53 -50 -121 -41q-68 6 -115 53q-39 45 -33 115q6 67 49 110q37 37 88 49q55 10 91 2t82 -8q35 -3 53 8zM-217 1686q-13 0 -27 -7q-13 -10 -18 -20
q-6 -12 -6 -27q0 -14 6 -26q7 -13 18 -19q11 -8 27 -8t27 8q9 5 20 19q8 11 8 26q0 21 -16 37q-17 17 -39 17z" />
    <glyph glyph-name="uniF70F" unicode="&#xf70f;" horiz-adv-x="1409" 
d="M928 231v-51q0 -22 33 -22h133q11 0 34 10t23 22v0v0v0v0v0v0h2v0v0h2v0h2v0h2h2h2h2h2h2h2h3h2h2h2h2h2h2h2h2h2h2h2h2h2h2h2h2h2h2h2h2h3h2h2h2h2h2h2h2h2h2h2h2h2h2h2h2h2h2h2h2h2h3h2h2h2h2h2h2h2h2h2h2h2h2h2h2h2h2h2h2h2h2h3h2h2h2h2h2h2h2h2h2h2h2h2h2h2h2h2h2h2
h2h2h3h2h2h2h2h2h2h18q-15 -40 -55 -86t-102 -79q-64 -37 -125 -37h-340q-21 0 -41 10q-17 8 -35 25q-17 17 -25 36t-8 47q0 37 17 76q16 32 34 41l17 8q-41 0 -92 45q-54 45 -54 117v803q0 37 -18 55q-19 19 -45 19h-137q-31 0 -54 -13q-18 -13 -28 -36q-9 -24 -9 -60
q18 -15 37 -28q22 -16 78 -43q57 -28 92 -25v-117q-33 0 -69 -51q-39 -51 -39 -94v-377q102 -83 102 -203q0 -92 -71 -157q-72 -66 -175 -66q-102 0 -161 68q-60 66 -60 129v567q0 50 68 139q70 92 112 103q-81 84 -180 84q0 143 94 237q91 94 232 94h280q105 0 205 -100
q101 -101 101 -254v-676h120v1018h351v-1178h-465zM240 313q-34 0 -56 -22q-22 -25 -22 -60q0 -31 22 -53t56 -22q32 0 57 22q22 22 22 53q0 35 -22 60q-25 22 -57 22z" />
    <glyph glyph-name="uniF715" unicode="&#xf715;" 
d="M-227 2202l67 -76q0 -17 -28 -53q-32 -37 -80 -66q-44 -31 -111 -47q-65 -15 -129 6q3 2 11 8t10 8q13 10 32 41q19 36 19 70q0 41 -23 64q-22 22 -51 22q-14 0 -29 -6q-4 -3 -12.5 -7.5t-11.5 -6.5l-8 -9q-5 7 -19 25q-16 16 -51 29q-39 14 -80 2h16q1 0 13.5 -4
t23.5 -7q20 -7 47 -22q21 -17 35 -43q17 -31 17 -66v-14q0 -10 -6 -31q-12 -27 -21 -39q-11 -17 -41 -30q-27 -15 -68 -15q-77 0 -133 62q-57 57 -57 143q0 46 29 90q26 39 69 58q41 18 86 18q38 0 76 -10q31 -11 45 -25l12 -10q41 41 138 41q51 0 92 -23q32 -20 43 -45
l8 -22q0 -46 -22 -117q55 38 92 107zM-700 2111q-21 0 -35 -14q-15 -15 -15 -33q0 -45 50 -45q13 0 22 6q8 3 16 15q7 10 7 24q0 17 -13 33q-14 14 -32 14z" />
    <glyph glyph-name="uniF718" unicode="&#xf718;" horiz-adv-x="49" 
d="M-199 -27q57 0 103 -24q45 -28 65 -64q23 -41 31 -65q8 -27 8 -49v-283h-207v53q-87 0 -151 64q-64 61 -64 155q0 73 62 144q57 69 153 69zM-162 -199q-18 15 -41 15q-24 0 -39 -15q-16 -16 -16 -41q0 -13 6 -28q5 -14 21 -23q11 -8 26 -8q25 0 43 18q17 20 17 41
q0 24 -17 41z" />
    <glyph glyph-name="uniF719" unicode="&#xf719;" horiz-adv-x="59" 
d="M-190 -383v322h208v-404q0 -48 -28 -70t-68 -22h-387v68q-92 0 -149 63q-62 62 -62 158q0 85 66 145t139 60q53 0 104 -23q49 -25 68 -57q22 -36 33 -68q10 -30 14 -55l2 -25v-92h60zM-422 -233q-18 18 -43 18t-43 -18q-18 -21 -18 -43q0 -26 18 -41q19 -19 43 -19
q18 0 31 8q15 11 22 23q9 12 9 29q0 21 -19 43z" />
    <glyph glyph-name="uniF71A" unicode="&#xf71a;" 
d="M-262 -94q89 0 153 -64q62 -65 62 -155q0 -87 -62 -152q-63 -63 -153 -63q-93 0 -156 63q-63 60 -63 152t63 155q64 64 156 64z" />
    <glyph glyph-name="uniF780" unicode="&#xf780;" horiz-adv-x="1552" 
d="M375 780v-354q102 -80 102 -201q0 -94 -74 -159q-78 -69 -172 -66q-83 0 -151 68q-70 64 -70 147v524q0 51 45 125q47 79 131 146q-71 80 -176 80q0 101 35 176q35 71 109 116q76 43 188 43h270q85 0 158 -43q76 -45 121 -125q47 -83 47 -184v-1220h-348v1310
q0 42 -23 80q-20 33 -63 33h-137q-99 0 -99 -121q33 -11 90 -47q52 -34 113 -37v-117q-36 0 -65 -45q-31 -48 -31 -129zM246 313q-36 0 -58 -22q-24 -24 -24 -60q0 -30 24 -51q22 -22 58 -22q13 0 28 6t25 16q11 11 16 23q7 17 7 28q0 34 -23 60q-22 22 -53 22zM1219 1421
q86 0 163 -47q73 -46 115 -119q41 -71 41 -145v-1266h-354v1311q3 70 -23 80q-15 9 -33 0q-12 -6 -77 -51q-58 -46 -103 -74v199q79 61 137 88q59 24 134 24z" />
    <glyph glyph-name="uniF781" unicode="&#xf781;" horiz-adv-x="1591" 
d="M1262 1421q84 0 161 -47q73 -46 115 -119q41 -71 41 -145v-1266h-354v1311q3 71 -23 80q-12 9 -31 0q-9 -4 -77 -51q-65 -49 -105 -74v199q79 61 137 88q59 24 136 24zM483 842v-623q0 -77 -63 -149q-64 -76 -172 -76q-104 0 -170 72q-68 71 -68 157q0 81 39 137
q38 56 68 68v291q0 55 37 133q38 78 110 141q-28 0 -49 15q-21 12 -37 28q-12 12 -51 29q-37 12 -86 12q0 104 39 178t119 121q77 45 194 45h258q128 0 228 -100q98 -101 98 -238v-1239h-352v1307q0 45 -27 86q-26 39 -82 39h-106q-107 0 -107 -125q29 -11 80 -41
q37 -25 68 -35q32 -11 75 -8v-125q-28 3 -34 -24q-9 -27 -9 -76zM248 313q-33 0 -55 -22q-25 -25 -25 -60q0 -29 25 -51q22 -22 55 -22q19 0 39 10q17 8 28 27q11 18 11 36q0 34 -23 60q-22 22 -55 22z" />
    <glyph glyph-name="uniF782" unicode="&#xf782;" horiz-adv-x="1118" 
d="M1102 1065v-1065h-350l-129 584l-105 -465q-3 -11 -6 -37q-7 -31 -8 -33q-3 -7 -6 -20q-6 -14 -15 -17q-2 -1 -8.5 -4t-11.5 -4q-16 -4 -31 -4h-358v164h67v797q-6 3 -18 12q-15 6 -33 24q-20 17 -37 41q-15 21 -28 58t-13 75q0 103 72 181q69 75 180 75q34 0 74 -12
q38 -14 80 -45q36 -27 65 -92q27 -62 27 -143v-359l-39 -250l141 609l191 -609l-55 250v311q0 22 -9 43q-3 6 -7.5 16.5t-6.5 14.5q-6 8 -31 33q-8 6 -18.5 14.5t-13.5 10.5q-21 14 -44 28q51 15 93 66q44 53 57 100h350q0 -59 -20 -88q-21 -34 -51 -49q-33 -17 -37 -25
q92 -80 92 -186zM315 1233q-20 20 -53 20t-53 -20q-23 -23 -23 -53q0 -21 11 -39q10 -19 26 -29q17 -10 39 -10q14 0 29 6q13 5 24 16q8 8 15 25q6 15 6 31q0 32 -21 53z" />
    <glyph glyph-name="uniF783" unicode="&#xf783;" horiz-adv-x="614" 
d="M-588 1464q-69 0 -119 33q-52 29 -73 80q-23 54 -23 106q0 53 25 105q21 46 73 80q49 30 117 30t121 -30q54 -35 74 -80q22 -52 22 -105q0 -54 -22 -106q-24 -50 -74 -80q-50 -33 -121 -33zM-584 1774q-57 0 -78 -41q-21 -43 0 -84q21 -43 78 -43q44 0 64 26q22 28 22 58
q0 29 -22 57q-21 27 -64 27zM281 1421q84 0 161 -47q75 -45 117 -119q41 -71 41 -145v-1114h-354v1159q3 70 -23 80q-1 1 -4 3t-4 3h-12q-2 -1 -6.5 -2t-6.5 -2t-6.5 -4.5t-7.5 -5.5t-10 -6.5t-10 -6.5q-4 -4 -27 -18q-5 -4 -15.5 -12.5t-15.5 -12.5q-14 -11 -41 -28
q-6 -4 -47 -33v199q72 58 137 88q59 24 134 24z" />
    <glyph glyph-name="uniF784" unicode="&#xf784;" 
d="M-817 1974q-47 38 -47 92q0 102 123 179q119 73 264 73q113 0 198 -32l33 -13v-102q-39 13 -49 16q-8 2 -17.5 5t-15.5 5t-10 3t-15 4.5t-18 5.5q-19 3 -32 6q-5 1 -16 2t-17 2q-14 2 -41 2q-93 0 -191 -49q-100 -51 -100 -107q0 -40 119 -67l39 -12v-80h-52q-4 0 -12 2
h-20q-61 0 -127 -54q-66 -57 -66 -92q0 -49 45 -82q40 -32 109 -32q133 0 186 96l15 24h102l-33 -69q-79 -150 -270 -150q-109 0 -180 62q-74 62 -74 151q0 128 170 211z" />
    <glyph glyph-name="uniF785" unicode="&#xf785;" horiz-adv-x="1652" 
d="M129 702q0 304 219 523q220 217 533 217q310 0 524 -217q223 -219 223 -523q0 -298 -223 -524q-214 -217 -524 -217q-317 0 -537 217q-215 218 -215 524zM313 702q0 -239 164 -409q164 -164 404 -164q228 0 399 168q168 168 168 405q0 236 -168 404q-170 170 -399 170
q-234 0 -404 -170q-164 -170 -164 -404zM1020 600l215 -10q-9 -149 -100 -240q-88 -88 -238 -88q-168 0 -266 113q-99 114 -99 321q0 216 95 334q92 115 272 115q311 0 332 -346l-215 -15q-3 189 -117 189q-125 0 -125 -283q0 -145 33 -201q30 -61 92 -61q106 0 121 172z
" />
    <glyph glyph-name="uniF786" unicode="&#xf786;" horiz-adv-x="1656" 
d="M129 702q0 304 219 523q220 217 533 217q310 0 524 -217q223 -219 223 -523q0 -298 -223 -524q-214 -217 -524 -217q-317 0 -537 217q-215 218 -215 524zM313 702q0 -239 164 -409q164 -164 404 -164q228 0 399 168q168 168 168 405q0 236 -168 404q-170 170 -399 170
q-234 0 -404 -170q-164 -170 -164 -404zM807 274h-236v859h283q316 24 340 -263q0 -160 -129 -225l158 -371h-252l-107 328h-57v-328zM848 973h-41v-209h51q107 0 107 106q0 103 -117 103z" />
    <glyph glyph-name="uniF787" unicode="&#xf787;" horiz-adv-x="1515" 
d="M213 1522h-172v155h537v-155h-175v-662h-190v662zM797 860h-156v817h285l116 -503l132 503h274v-817h-178v682l-174 -682h-138l-161 682v-682z" />
    <glyph glyph-name="uniF788" unicode="&#xf788;" horiz-adv-x="1681" 
d="M913 893l484 -477h-140l-415 409l-414 -409h-137l483 477l-522 512h139l451 -444l454 444h136z" />
    <glyph glyph-name="uniF789" unicode="&#xf789;" horiz-adv-x="2033" 
d="M338 858v96h1358v-96h-1358zM1006 571q36 0 63 -24q25 -28 25 -64t-25 -61t-63 -25q-34 0 -58 27q-26 23 -26 59t26 62q23 26 58 26zM1006 1448q35 0 63 -25q25 -28 25 -63q0 -32 -25 -57q-27 -27 -63 -27q-31 0 -58 27q-26 26 -26 57q0 37 26 63q25 25 58 25z" />
  </font>
</defs>
</svg>
